<svg width="101" height="31" viewBox="0 0 101 31" fill="none" xmlns="http://www.w3.org/2000/svg">
<path d="M100.138 26.9322C100.138 27.3051 100.064 27.6744 99.9216 28.0188C99.7788 28.3633 99.5695 28.6763 99.3055 28.9399C99.0416 29.2034 98.7284 29.4124 98.3836 29.5548C98.0389 29.6973 97.6695 29.7704 97.2965 29.77H4.30618C3.55249 29.7708 2.82934 29.4723 2.29578 28.9401C1.76221 28.4079 1.46192 27.6857 1.46094 26.9322V4.30149C1.46192 3.54765 1.76209 2.82502 2.29555 2.29226C2.82901 1.7595 3.55215 1.46016 4.30618 1.45996H97.2957C97.6689 1.45996 98.0385 1.53346 98.3833 1.67627C98.7281 1.81908 99.0414 2.0284 99.3053 2.29227C99.5691 2.55614 99.7784 2.86939 99.9212 3.21414C100.064 3.55888 100.137 3.92837 100.137 4.30149L100.138 26.9322Z" fill="white"/>
<path d="M97.2959 30.4304H4.30564C3.37718 30.4302 2.48672 30.0618 1.82964 29.406C1.17256 28.7503 0.802548 27.8607 0.800781 26.9324L0.800781 4.30249C0.802155 3.37381 1.17193 2.4836 1.82898 1.82714C2.48604 1.17067 3.37672 0.801565 4.30564 0.800781L97.2952 0.800781C98.224 0.801956 99.1144 1.17119 99.7714 1.82757C100.428 2.48395 100.798 3.37393 100.8 4.30249V26.9324C100.802 28.8619 99.2266 30.4304 97.2959 30.4304Z" fill="#A6A6A6"/>
<path d="M100.138 26.9322C100.138 27.3051 100.064 27.6744 99.9216 28.0188C99.7788 28.3633 99.5695 28.6763 99.3055 28.9399C99.0416 29.2034 98.7284 29.4124 98.3836 29.5548C98.0389 29.6973 97.6695 29.7704 97.2965 29.77H4.30618C3.55249 29.7708 2.82934 29.4723 2.29578 28.9401C1.76221 28.4079 1.46192 27.6857 1.46094 26.9322V4.30149C1.46192 3.54765 1.76209 2.82502 2.29555 2.29226C2.82901 1.7595 3.55215 1.46016 4.30618 1.45996H97.2957C97.6689 1.45996 98.0385 1.53346 98.3833 1.67627C98.7281 1.81908 99.0414 2.0284 99.3053 2.29227C99.5691 2.55614 99.7784 2.86939 99.9212 3.21414C100.064 3.55888 100.137 3.92837 100.137 4.30149L100.138 26.9322Z" fill="black"/>
<path d="M23.1298 15.4596C23.1083 13.0716 25.0856 11.9098 25.176 11.8557C24.0562 10.2234 22.3204 10.0003 21.7105 9.98256C20.2526 9.82919 18.8385 10.8547 18.0959 10.8547C17.3385 10.8547 16.1949 9.99738 14.9624 10.0226C13.3763 10.047 11.8926 10.9651 11.0788 12.3906C9.39936 15.2974 10.6519 19.5689 12.2609 21.9184C13.0658 23.0699 14.0063 24.3539 15.2373 24.3087C16.4417 24.2598 16.8916 23.5419 18.3449 23.5419C19.785 23.5419 20.2074 24.3087 21.4629 24.2798C22.7555 24.2598 23.5692 23.124 24.346 21.9629C25.2761 20.6448 25.6496 19.3451 25.6645 19.2785C25.6348 19.2681 23.1549 18.3212 23.1298 15.4596ZM20.7581 8.43695C21.4059 7.6271 21.8491 6.52531 21.726 5.40723C20.7885 5.44872 19.616 6.05555 18.9408 6.84762C18.3435 7.54559 17.8098 8.68961 17.9477 9.76547C19.0009 9.84401 20.0822 9.23421 20.7581 8.43695Z" fill="white"/>
<path d="M97.2957 0.800781H47.4873L66.9964 30.4304H97.2957C98.2244 30.4297 99.1148 30.0608 99.7719 29.4046C100.429 28.7485 100.799 27.8586 100.801 26.9302V4.30249C100.799 3.37387 100.429 2.48378 99.7722 1.82735C99.1151 1.17093 98.2246 0.801761 97.2957 0.800781Z" fill="url(#paint0_linear_1756_59269)"/>
<path d="M40.5738 24.1432H38.8907L37.9687 21.2468H34.764L33.8857 24.1432H32.2471L35.4229 14.2827H37.3839L40.5738 24.1432ZM37.6908 20.0317L36.857 17.4569C36.7688 17.1939 36.6028 16.5744 36.3597 15.5993H36.33C36.2322 16.0187 36.0758 16.6381 35.8616 17.4569L35.0419 20.0317H37.6908ZM48.7249 20.5007C48.7249 21.7099 48.3965 22.6657 47.7392 23.3674C47.1507 23.992 46.4192 24.304 45.5469 24.304C44.6049 24.304 43.9275 23.9683 43.5161 23.2955V27.0262H41.936V19.37C41.936 18.6105 41.916 17.8318 41.8775 17.0331H43.2671L43.3553 18.1601H43.3849C43.9119 17.3109 44.7116 16.8864 45.7848 16.8864C46.6237 16.8864 47.3241 17.2176 47.8844 17.8807C48.444 18.5453 48.7249 19.4182 48.7249 20.5007ZM47.1151 20.5585C47.1151 19.8664 46.9595 19.2959 46.6467 18.8462C46.305 18.3786 45.8463 18.1445 45.2711 18.1445C44.8813 18.1445 44.527 18.2749 44.2106 18.532C43.8934 18.7913 43.6859 19.1299 43.5888 19.5493C43.5454 19.7062 43.5208 19.8676 43.5154 20.0302V21.2165C43.5154 21.7329 43.674 22.1693 43.9912 22.5264C44.3084 22.8821 44.7205 23.0607 45.2274 23.0607C45.8226 23.0607 46.2858 22.8302 46.6171 22.3731C46.9491 21.9144 47.1151 21.3098 47.1151 20.5585ZM56.9048 20.5007C56.9048 21.7099 56.5765 22.6657 55.9191 23.3674C55.3299 23.992 54.5992 24.304 53.7261 24.304C52.7841 24.304 52.1067 23.9683 51.6954 23.2955V27.0262H50.1153V19.37C50.1153 18.6105 50.0952 17.8318 50.0567 17.0331H51.4463L51.5345 18.1601H51.5642C52.0904 17.3109 52.8901 16.8864 53.964 16.8864C54.8022 16.8864 55.5026 17.2176 56.0644 17.8807C56.6232 18.5453 56.9048 19.4182 56.9048 20.5007ZM55.2943 20.5585C55.2943 19.8664 55.138 19.2959 54.8252 18.8462C54.4835 18.3786 54.0263 18.1445 53.4511 18.1445C53.0613 18.1445 52.707 18.2749 52.3891 18.532C52.0719 18.7913 51.8651 19.1299 51.768 19.5493C51.7198 19.7449 51.6939 19.9042 51.6939 20.0302V21.2165C51.6939 21.7329 51.8532 22.1693 52.169 22.5264C52.4862 22.8814 52.8982 23.0607 53.4067 23.0607C54.0025 23.0607 54.4658 22.8302 54.7963 22.3731C55.1283 21.9144 55.2943 21.3098 55.2943 20.5585ZM66.0505 21.3772C66.0505 22.2167 65.757 22.8991 65.1738 23.4259C64.5319 24.0009 63.6359 24.2892 62.4871 24.2892C61.4258 24.2892 60.575 24.0846 59.9332 23.6749L60.2985 22.3582C60.9915 22.7687 61.7527 22.9732 62.5813 22.9732C63.1771 22.9732 63.6403 22.8384 63.9709 22.5709C64.3022 22.3027 64.4697 21.9441 64.4697 21.4965C64.4697 21.0957 64.3311 20.76 64.0591 20.4866C63.7856 20.214 63.3335 19.9598 62.6984 19.7264C60.9715 19.0825 60.1073 18.1408 60.1073 16.9019C60.1073 16.0928 60.4127 15.4304 61.0219 14.9125C61.6311 14.3953 62.439 14.1367 63.4439 14.1367C64.3415 14.1367 65.0893 14.2931 65.6829 14.605L65.2864 15.8928C64.7276 15.5905 64.0969 15.4393 63.3913 15.4393C62.834 15.4393 62.3967 15.5764 62.084 15.849C61.8208 16.0928 61.6874 16.3899 61.6874 16.7426C61.6874 17.1316 61.8394 17.4547 62.1418 17.7081C62.4041 17.9415 62.8829 18.1956 63.5751 18.4683C64.4245 18.8106 65.0485 19.2092 65.448 19.6671C65.8504 20.125 66.0505 20.6963 66.0505 21.3772ZM71.2882 18.2186H69.5465V21.6706C69.5465 22.5487 69.8533 22.9866 70.4685 22.9866C70.7509 22.9866 70.9851 22.9629 71.1703 22.9132L71.2141 24.1128C70.9028 24.2291 70.4929 24.2877 69.9853 24.2877C69.3612 24.2877 68.8735 24.0972 68.5215 23.7164C68.1709 23.3356 67.9946 22.6976 67.9946 21.7996V18.2156H66.957V17.0301H67.9946V15.7283L69.5465 15.26V17.0301H71.2882V18.2186ZM79.1309 20.5296C79.1309 21.6225 78.8182 22.5198 78.1941 23.2214C77.5412 23.9439 76.6726 24.304 75.5898 24.304C74.5448 24.304 73.7139 23.9579 73.0943 23.2666C72.4748 22.5739 72.165 21.701 72.165 20.6481C72.165 19.5464 72.4851 18.6439 73.1232 17.9422C73.7629 17.2398 74.6241 16.8886 75.7069 16.8886C76.7504 16.8886 77.5886 17.2354 78.223 17.9274C78.8293 18.5987 79.1309 19.4656 79.1309 20.5296ZM77.493 20.5659C77.493 19.9146 77.3522 19.3559 77.0698 18.8884C76.7385 18.3238 76.2642 18.0415 75.6498 18.0415C75.0169 18.0415 74.5314 18.3238 74.2009 18.8884C73.9178 19.3559 73.7769 19.9242 73.7769 20.5955C73.7769 21.2476 73.9178 21.8077 74.2009 22.2738C74.5425 22.8384 75.0191 23.1207 75.6365 23.1207C76.2405 23.1207 76.7141 22.8325 77.0565 22.2597C77.347 21.7811 77.493 21.2187 77.493 20.5659ZM84.2693 18.4223C84.1049 18.3927 83.9382 18.3781 83.7712 18.3786C83.2154 18.3786 82.7855 18.5876 82.4831 19.0084C82.2208 19.3789 82.0888 19.8472 82.0888 20.4125V24.1432H80.5087V19.2722C80.5101 18.5258 80.4948 17.7795 80.4628 17.0338H81.8391L81.8969 18.3942H81.9406C82.1081 17.9267 82.3705 17.5495 82.7307 17.2672C83.0604 17.0205 83.461 16.887 83.8728 16.8864C84.0188 16.8864 84.1507 16.8967 84.2678 16.9153L84.2693 18.4223ZM91.3361 20.2517C91.3401 20.4919 91.3207 20.7318 91.2783 20.9682H86.5379C86.5557 21.6706 86.7855 22.2086 87.2257 22.579C87.6252 22.9095 88.1417 23.0755 88.7762 23.0755C89.478 23.0755 90.1184 22.9643 90.6942 22.7398L90.9418 23.8357C90.2688 24.1291 89.4743 24.2751 88.5575 24.2751C87.4547 24.2751 86.5891 23.9505 85.9591 23.303C85.3306 22.6546 85.0156 21.7833 85.0156 20.6919C85.0156 19.6205 85.3084 18.7276 85.8946 18.0156C86.5083 17.2554 87.3376 16.8753 88.3811 16.8753C89.4061 16.8753 90.1821 17.2554 90.7091 18.0156C91.1263 18.618 91.3361 19.3648 91.3361 20.2517ZM89.8293 19.842C89.8404 19.373 89.7367 18.9692 89.5225 18.6276C89.249 18.1875 88.828 17.9681 88.264 17.9681C87.7475 17.9681 87.3265 18.1823 87.0063 18.612C86.7432 18.9536 86.5868 19.3641 86.5387 19.8405L89.8293 19.842Z" fill="white"/>
<path d="M34.309 10.7969C33.8695 10.7969 33.4893 10.7754 33.1729 10.7391V5.97183C33.6155 5.90348 34.0627 5.86978 34.5106 5.87106C36.3227 5.87106 37.1572 6.76242 37.1572 8.21541C37.1572 9.89143 36.1715 10.7969 34.309 10.7969ZM34.5743 6.48234C34.3298 6.48234 34.1215 6.49716 33.9488 6.53273V10.1567C34.0422 10.1715 34.2216 10.1782 34.4736 10.1782C35.6609 10.1782 36.3368 9.50244 36.3368 8.2369C36.3368 7.10844 35.7253 6.48234 34.5743 6.48234ZM39.7579 10.8332C38.7366 10.8332 38.0748 10.0707 38.0748 9.03564C38.0748 7.95682 38.7507 7.18772 39.8157 7.18772C40.8222 7.18772 41.4988 7.91385 41.4988 8.97859C41.4988 10.0707 40.8014 10.8332 39.7579 10.8332ZM39.7875 7.75529C39.2265 7.75529 38.867 8.27988 38.867 9.01341C38.867 9.73287 39.2339 10.2575 39.7801 10.2575C40.3263 10.2575 40.6932 9.69656 40.6932 8.99859C40.6932 8.28729 40.3338 7.75529 39.7875 7.75529ZM47.3227 7.25959L46.2295 10.7539H45.5173L45.0645 9.23644C44.9519 8.86526 44.8581 8.48862 44.7836 8.10798H44.7688C44.7117 8.48882 44.6035 8.87041 44.4886 9.23644L44.0069 10.7539H43.2872L42.2585 7.25959H43.0567L43.4525 8.92079C43.5459 9.31646 43.6244 9.68989 43.6896 10.0426H43.7045C43.7615 9.74843 43.8549 9.38092 43.992 8.9282L44.4886 7.26034H45.1215L45.5966 8.89264C45.7115 9.2883 45.8049 9.67656 45.8775 10.0433H45.8982C45.9486 9.68397 46.0279 9.30238 46.1354 8.89264L46.5601 7.26034L47.3227 7.25959ZM51.3471 10.7539H50.5704V8.74741C50.5704 8.12946 50.3332 7.81975 49.8656 7.81975C49.4053 7.81975 49.0889 8.21541 49.0889 8.67554V10.7539H48.3121V8.25839C48.3121 7.94941 48.3047 7.61821 48.2832 7.25885H48.9666L49.0029 7.79826H49.0244C49.2334 7.42483 49.6573 7.18772 50.1324 7.18772C50.8661 7.18772 51.3479 7.74862 51.3479 8.66146L51.3471 10.7539ZM53.489 10.7539H52.7116V5.65619H53.489V10.7539ZM56.3209 10.8332C55.3004 10.8332 54.6378 10.0707 54.6378 9.03564C54.6378 7.95682 55.3137 7.18772 56.378 7.18772C57.3852 7.18772 58.0611 7.91385 58.0611 8.97859C58.0619 10.0707 57.3637 10.8332 56.3209 10.8332ZM56.3498 7.75529C55.7888 7.75529 55.4293 8.27988 55.4293 9.01341C55.4293 9.73287 55.7969 10.2575 56.3417 10.2575C56.8886 10.2575 57.2548 9.69656 57.2548 8.99859C57.2555 8.28729 56.8968 7.75529 56.3498 7.75529ZM61.1235 10.7539L61.0672 10.3516H61.0464C60.8093 10.6754 60.4632 10.8332 60.0244 10.8332C59.3981 10.8332 58.9535 10.3945 58.9535 9.80474C58.9535 8.94228 59.7013 8.49623 60.996 8.49623V8.43177C60.996 7.97164 60.7522 7.74121 60.2705 7.74121C59.9258 7.74121 59.6234 7.8279 59.3574 8.00054L59.1995 7.49003C59.5227 7.28849 59.9258 7.18772 60.3994 7.18772C61.3125 7.18772 61.7735 7.66934 61.7735 8.63331V9.92033C61.7735 10.273 61.7891 10.5464 61.8239 10.7546L61.1235 10.7539ZM61.0168 9.01341C60.1541 9.01341 59.7213 9.22236 59.7213 9.71805C59.7213 10.0848 59.9444 10.2641 60.2542 10.2641C60.6492 10.2641 61.0168 9.96256 61.0168 9.55282V9.01341ZM65.5452 10.7539L65.5089 10.193H65.4874C65.2643 10.6168 64.8893 10.8332 64.3653 10.8332C63.5226 10.8332 62.8986 10.0922 62.8986 9.04972C62.8986 7.95682 63.5456 7.18698 64.429 7.18698C64.8967 7.18698 65.228 7.3448 65.4147 7.66193H65.4303V5.65619H66.2077V9.81215C66.2077 10.15 66.2159 10.4664 66.2367 10.7539H65.5452ZM65.4303 8.69777C65.4303 8.20875 65.1064 7.79159 64.6121 7.79159C64.0362 7.79159 63.6842 8.3021 63.6842 9.02082C63.6842 9.72546 64.0495 10.2078 64.5965 10.2078C65.0849 10.2078 65.4303 9.78325 65.4303 9.28015V8.69777ZM71.1371 10.8332C70.1165 10.8332 69.4547 10.0707 69.4547 9.03564C69.4547 7.95682 70.1306 7.18772 71.1949 7.18772C72.2021 7.18772 72.878 7.91385 72.878 8.97859C72.8788 10.0707 72.1813 10.8332 71.1371 10.8332ZM71.166 7.75529C70.6057 7.75529 70.2462 8.27988 70.2462 9.01341C70.2462 9.73287 70.6131 10.2575 71.1586 10.2575C71.7055 10.2575 72.0717 9.69656 72.0717 8.99859C72.0731 8.28729 71.7137 7.75529 71.166 7.75529ZM77.0551 10.7539H76.2776V8.74741C76.2776 8.12946 76.0405 7.81975 75.5728 7.81975C75.1126 7.81975 74.7968 8.21541 74.7968 8.67554V10.7539H74.0194V8.25839C74.0194 7.94941 74.012 7.61821 73.9905 7.25885H74.6738L74.7101 7.79826H74.7316C74.9399 7.42483 75.3646 7.18698 75.8389 7.18698C76.5726 7.18698 77.0551 7.74788 77.0551 8.66072V10.7539ZM82.2809 7.84198H81.4263V9.53874C81.4263 9.97071 81.5761 10.1863 81.8784 10.1863C82.0156 10.1863 82.1304 10.1715 82.2231 10.15L82.2446 10.7398C82.0941 10.7976 81.8925 10.8265 81.642 10.8265C81.0298 10.8265 80.6637 10.4886 80.6637 9.60395V7.84198H80.1538V7.25959H80.6637V6.61942L81.4263 6.38898V7.25885H82.2809V7.84198ZM86.3927 10.7539H85.6168V8.76223C85.6168 8.13687 85.3803 7.82049 84.9119 7.82049C84.5095 7.82049 84.1345 8.0939 84.1345 8.64739V10.7539H83.3585V5.65619H84.1345V7.75529H84.15C84.3946 7.37444 84.7489 7.18698 85.201 7.18698C85.9406 7.18698 86.3927 7.76196 86.3927 8.67554V10.7539ZM90.6054 9.19346H88.2745C88.2893 9.85513 88.7273 10.2286 89.3758 10.2286C89.7205 10.2286 90.0377 10.1708 90.3178 10.0633L90.4386 10.6027C90.1081 10.7465 89.719 10.8184 89.2661 10.8184C88.173 10.8184 87.5259 10.1278 87.5259 9.05713C87.5259 7.98572 88.1885 7.18031 89.1787 7.18031C90.0718 7.18031 90.6321 7.84198 90.6321 8.84151C90.6371 8.95947 90.6281 9.07761 90.6054 9.19346ZM89.8931 8.63998C89.8931 8.10057 89.6211 7.71972 89.1246 7.71972C88.6784 7.71972 88.3256 8.10798 88.2752 8.63998H89.8931Z" fill="white"/>
<defs>
<linearGradient id="paint0_linear_1756_59269" x1="74.1431" y1="30.5091" x2="74.1431" y2="-76.3497" gradientUnits="userSpaceOnUse">
<stop stop-color="#1A1A1A" stop-opacity="0.1"/>
<stop offset="0.123" stop-color="#212121" stop-opacity="0.151"/>
<stop offset="0.308" stop-color="#353535" stop-opacity="0.227"/>
<stop offset="0.532" stop-color="#575757" stop-opacity="0.318"/>
<stop offset="0.783" stop-color="#858585" stop-opacity="0.421"/>
<stop offset="1" stop-color="#B3B3B3" stop-opacity="0.51"/>
</linearGradient>
</defs>
</svg>
