<svg width="101" height="31" viewBox="0 0 101 31" fill="none" xmlns="http://www.w3.org/2000/svg">
<path d="M97.0971 30.4304H4.50448C2.43041 30.4304 0.800781 28.8008 0.800781 26.7267V4.50448C0.800781 2.43041 2.43041 0.800781 4.50448 0.800781H97.0971C99.1712 0.800781 100.801 2.43041 100.801 4.50448V26.7267C100.801 28.8008 99.1712 30.4304 97.0971 30.4304Z" fill="black"/>
<path d="M97.0971 1.39337C98.8008 1.39337 100.208 2.80078 100.208 4.50448V26.7267C100.208 28.4304 98.8008 29.8378 97.0971 29.8378H4.50448C2.80078 29.8378 1.39337 28.4304 1.39337 26.7267V4.50448C1.39337 2.80078 2.80078 1.39337 4.50448 1.39337H97.0971ZM97.0971 0.800781H4.50448C2.43041 0.800781 0.800781 2.50448 0.800781 4.50448V26.7267C0.800781 28.8008 2.43041 30.4304 4.50448 30.4304H97.0971C99.1712 30.4304 100.801 28.8008 100.801 26.7267V4.50448C100.801 2.50448 99.1712 0.800781 97.0971 0.800781Z" fill="#A6A6A6"/>
<path d="M35.9122 8.35655C35.9122 8.94915 35.7641 9.46766 35.3937 9.83803C34.9493 10.2825 34.4307 10.5047 33.7641 10.5047C33.0974 10.5047 32.5789 10.2825 32.1344 9.83803C31.69 9.39359 31.4678 8.87507 31.4678 8.20841C31.4678 7.54174 31.69 7.02322 32.1344 6.57878C32.5789 6.13433 33.0974 5.91211 33.7641 5.91211C34.0604 5.91211 34.3567 5.98618 34.653 6.13433C34.9493 6.28248 35.1715 6.43063 35.3196 6.65285L34.9493 7.02322C34.653 6.65285 34.2826 6.5047 33.7641 6.5047C33.3196 6.5047 32.8752 6.65285 32.5789 7.02322C32.2085 7.31952 32.0604 7.76396 32.0604 8.28248C32.0604 8.801 32.2085 9.24544 32.5789 9.54174C32.9493 9.83804 33.3196 10.0603 33.7641 10.0603C34.2826 10.0603 34.653 9.91211 35.0233 9.54174C35.2456 9.31952 35.3937 9.02322 35.3937 8.65285H33.7641V8.06026H35.9122V8.35655ZM39.3196 6.5047H37.3196V7.91211H39.1715V8.43063H37.3196V9.83803H39.3196V10.4306H36.727V5.98618H39.3196V6.5047ZM41.7641 10.4306H41.1715V6.5047H39.9122V5.98618H43.0233V6.5047H41.7641V10.4306ZM45.1715 10.4306V5.98618H45.7641V10.4306H45.1715ZM48.2826 10.4306H47.69V6.5047H46.4307V5.98618H49.4678V6.5047H48.2085V10.4306H48.2826ZM55.3196 9.83803C54.8752 10.2825 54.3567 10.5047 53.69 10.5047C53.0233 10.5047 52.5048 10.2825 52.0604 9.83803C51.6159 9.39359 51.3937 8.87507 51.3937 8.20841C51.3937 7.54174 51.6159 7.02322 52.0604 6.57878C52.5048 6.13433 53.0233 5.91211 53.69 5.91211C54.3567 5.91211 54.8752 6.13433 55.3196 6.57878C55.7641 7.02322 55.9863 7.54174 55.9863 8.20841C55.9863 8.87507 55.7641 9.39359 55.3196 9.83803ZM52.5048 9.46766C52.8011 9.76396 53.2456 9.98618 53.69 9.98618C54.1344 9.98618 54.5789 9.83804 54.8752 9.46766C55.1715 9.17137 55.3937 8.72692 55.3937 8.20841C55.3937 7.68989 55.2456 7.24544 54.8752 6.94915C54.5789 6.65285 54.1344 6.43063 53.69 6.43063C53.2456 6.43063 52.8011 6.57878 52.5048 6.94915C52.2085 7.24544 51.9863 7.68989 51.9863 8.20841C51.9863 8.72692 52.1344 9.17137 52.5048 9.46766ZM56.8011 10.4306V5.98618H57.4678L59.6159 9.46766V5.98618H60.2085V10.4306H59.6159L57.3196 6.801V10.4306H56.8011Z" fill="white" stroke="white" stroke-width="0.2" stroke-miterlimit="10"/>
<path d="M51.2451 16.9493C49.4673 16.9493 48.0599 18.2826 48.0599 20.1344C48.0599 21.9122 49.4673 23.3196 51.2451 23.3196C53.0229 23.3196 54.4303 21.9863 54.4303 20.1344C54.4303 18.2085 53.0229 16.9493 51.2451 16.9493ZM51.2451 21.9863C50.2822 21.9863 49.4673 21.1715 49.4673 20.0604C49.4673 18.9493 50.2822 18.1344 51.2451 18.1344C52.2081 18.1344 53.0229 18.8752 53.0229 20.0604C53.0229 21.1715 52.2081 21.9863 51.2451 21.9863ZM44.3562 16.9493C42.5785 16.9493 41.171 18.2826 41.171 20.1344C41.171 21.9122 42.5785 23.3196 44.3562 23.3196C46.134 23.3196 47.5414 21.9863 47.5414 20.1344C47.5414 18.2085 46.134 16.9493 44.3562 16.9493ZM44.3562 21.9863C43.3933 21.9863 42.5785 21.1715 42.5785 20.0604C42.5785 18.9493 43.3933 18.1344 44.3562 18.1344C45.3192 18.1344 46.134 18.8752 46.134 20.0604C46.134 21.1715 45.3192 21.9863 44.3562 21.9863ZM36.134 17.9122V19.2456H39.3192C39.2451 19.9863 38.9488 20.5789 38.5785 20.9493C38.134 21.3937 37.3933 21.9122 36.134 21.9122C34.134 21.9122 32.6525 20.3567 32.6525 18.3567C32.6525 16.3567 34.2081 14.8011 36.134 14.8011C37.171 14.8011 37.9859 15.2456 38.5785 15.7641L39.5414 14.8011C38.7266 14.0604 37.6896 13.4678 36.2081 13.4678C33.5414 13.4678 31.2451 15.69 31.2451 18.3567C31.2451 21.0233 33.5414 23.2456 36.2081 23.2456C37.6896 23.2456 38.7266 22.8011 39.6155 21.8381C40.5044 20.9493 40.8007 19.69 40.8007 18.727C40.8007 18.4307 40.8007 18.1344 40.7266 17.9122H36.134ZM69.7636 18.9493C69.4673 18.2085 68.7266 16.9493 67.097 16.9493C65.4673 16.9493 64.134 18.2085 64.134 20.1344C64.134 21.9122 65.4673 23.3196 67.2451 23.3196C68.6525 23.3196 69.5414 22.4307 69.8377 21.9122L68.8007 21.1715C68.4303 21.69 67.9859 22.0604 67.2451 22.0604C66.5044 22.0604 66.0599 21.7641 65.6896 21.0974L69.9118 19.3196L69.7636 18.9493ZM65.4673 19.9863C65.4673 18.8011 66.4303 18.1344 67.097 18.1344C67.6155 18.1344 68.134 18.4307 68.2822 18.8011L65.4673 19.9863ZM61.9859 23.0233H63.3933V13.7641H61.9859V23.0233ZM59.7636 17.6159C59.3933 17.2456 58.8007 16.8752 58.0599 16.8752C56.5044 16.8752 55.0229 18.2826 55.0229 20.0604C55.0229 21.8381 56.4303 23.1715 58.0599 23.1715C58.8007 23.1715 59.3933 22.8011 59.6896 22.4307H59.7636V22.8752C59.7636 24.0604 59.097 24.727 58.0599 24.727C57.2451 24.727 56.6525 24.1344 56.5044 23.6159L55.3192 24.1344C55.6896 24.9493 56.5785 25.9863 58.134 25.9863C59.7636 25.9863 61.097 25.0233 61.097 22.727V17.0974H59.7636V17.6159ZM58.134 21.9863C57.171 21.9863 56.3562 21.1715 56.3562 20.0604C56.3562 18.9493 57.171 18.1344 58.134 18.1344C59.097 18.1344 59.8377 18.9493 59.8377 20.0604C59.8377 21.1715 59.097 21.9863 58.134 21.9863ZM76.2081 13.7641H72.8747V23.0233H74.2822V19.5418H76.2081C77.7636 19.5418 79.2451 18.4307 79.2451 16.653C79.2451 14.8752 77.7636 13.7641 76.2081 13.7641ZM76.2822 18.2085H74.2822V15.0233H76.2822C77.3192 15.0233 77.9118 15.9122 77.9118 16.5789C77.8377 17.3937 77.2451 18.2085 76.2822 18.2085ZM84.8007 16.8752C83.7636 16.8752 82.7266 17.3196 82.3562 18.2826L83.6155 18.8011C83.9118 18.2826 84.3562 18.1344 84.8747 18.1344C85.6155 18.1344 86.2822 18.5789 86.3562 19.3196V19.3937C86.134 19.2456 85.5414 19.0233 84.9488 19.0233C83.6155 19.0233 82.2822 19.7641 82.2822 21.0974C82.2822 22.3567 83.3933 23.1715 84.5784 23.1715C85.5414 23.1715 85.9859 22.727 86.3562 22.2826H86.4303V23.0233H87.7636V19.4678C87.6155 17.8381 86.3562 16.8752 84.8007 16.8752ZM84.6525 21.9863C84.2081 21.9863 83.5414 21.7641 83.5414 21.1715C83.5414 20.4307 84.3562 20.2085 85.0229 20.2085C85.6155 20.2085 85.9118 20.3567 86.2822 20.5048C86.134 21.3937 85.3933 21.9863 84.6525 21.9863ZM92.4303 17.0974L90.8747 21.0974H90.8007L89.171 17.0974H87.6896L90.134 22.727L88.7266 25.8381H90.134L93.9118 17.0974H92.4303ZM79.9859 23.0233H81.3933V13.7641H79.9859V23.0233Z" fill="white"/>
<path d="M8.5043 6.35645C8.28208 6.57867 8.20801 6.94904 8.20801 7.39348V23.7639C8.20801 24.2083 8.35616 24.5787 8.57838 24.8009L8.65245 24.875L17.8376 15.6898V15.5416L8.5043 6.35645Z" fill="url(#paint0_linear_1756_59270)"/>
<path d="M20.8007 18.8002L17.7637 15.7632V15.5409L20.8007 12.5039L20.8748 12.578L24.5044 14.6521C25.5414 15.2446 25.5414 16.2076 24.5044 16.8002L20.8007 18.8002Z" fill="url(#paint1_linear_1756_59270)"/>
<path d="M20.8743 18.7263L17.7632 15.6152L8.50391 24.8745C8.87428 25.2449 9.3928 25.2449 10.0595 24.9486L20.8743 18.7263Z" fill="url(#paint2_linear_1756_59270)"/>
<path d="M20.8743 12.504L10.0595 6.3558C9.3928 5.98543 8.87428 6.05951 8.50391 6.42988L17.7632 15.6151L20.8743 12.504Z" fill="url(#paint3_linear_1756_59270)"/>
<path opacity="0.2" d="M20.8002 18.6523L10.0595 24.7264C9.46687 25.0968 8.94835 25.0227 8.57798 24.7264L8.50391 24.8005L8.57798 24.8746C8.94835 25.1709 9.46687 25.2449 10.0595 24.8746L20.8002 18.6523Z" fill="black"/>
<path opacity="0.12" d="M8.5043 24.7264C8.28208 24.5042 8.20801 24.1338 8.20801 23.6894V23.7635C8.20801 24.2079 8.35616 24.5783 8.57838 24.8005V24.7264H8.5043ZM24.5043 16.5783L20.8006 18.6524L20.8747 18.7264L24.5043 16.6524C25.0228 16.3561 25.245 15.9857 25.245 15.6153C25.245 15.9857 24.9487 16.282 24.5043 16.5783Z" fill="black"/>
<path opacity="0.25" d="M10.0599 6.43014L24.5043 14.6524C24.9487 14.9487 25.245 15.245 25.245 15.6153C25.245 15.245 25.0228 14.8746 24.5043 14.5783L10.0599 6.35607C9.02282 5.76347 8.20801 6.20792 8.20801 7.3931V7.46718C8.20801 6.35607 9.02282 5.83755 10.0599 6.43014Z" fill="white"/>
<defs>
<linearGradient id="paint0_linear_1756_59270" x1="16.9487" y1="7.25274" x2="4.5169" y2="19.6839" gradientUnits="userSpaceOnUse">
<stop stop-color="#00A0FF"/>
<stop offset="0.007" stop-color="#00A1FF"/>
<stop offset="0.26" stop-color="#00BEFF"/>
<stop offset="0.512" stop-color="#00D2FF"/>
<stop offset="0.76" stop-color="#00DFFF"/>
<stop offset="1" stop-color="#00E3FF"/>
</linearGradient>
<linearGradient id="paint1_linear_1756_59270" x1="25.8629" y1="15.6158" x2="7.93923" y2="15.6158" gradientUnits="userSpaceOnUse">
<stop stop-color="#FFE000"/>
<stop offset="0.409" stop-color="#FFBD00"/>
<stop offset="0.775" stop-color="#FFA500"/>
<stop offset="1" stop-color="#FF9C00"/>
</linearGradient>
<linearGradient id="paint2_linear_1756_59270" x1="19.1906" y1="17.316" x2="2.3328" y2="34.1738" gradientUnits="userSpaceOnUse">
<stop stop-color="#FF3A44"/>
<stop offset="1" stop-color="#C31162"/>
</linearGradient>
<linearGradient id="paint3_linear_1756_59270" x1="6.20539" y1="0.93062" x2="13.7335" y2="8.45877" gradientUnits="userSpaceOnUse">
<stop stop-color="#32A071"/>
<stop offset="0.069" stop-color="#2DA771"/>
<stop offset="0.476" stop-color="#15CF74"/>
<stop offset="0.801" stop-color="#06E775"/>
<stop offset="1" stop-color="#00F076"/>
</linearGradient>
</defs>
</svg>
