<svg width="35" height="20" viewBox="0 0 35 20" fill="none" xmlns="http://www.w3.org/2000/svg">
<rect x="0.600098" y="0.800781" width="33.6" height="19.2" rx="2.4" fill="black"/>
<path d="M17.4108 14.51C16.4565 15.3144 15.2186 15.8 13.8659 15.8C10.8477 15.8 8.40088 13.3823 8.40088 10.4C8.40088 7.41766 10.8477 5 13.8659 5C15.2186 5 16.4565 5.4856 17.4108 6.29001C18.3651 5.4856 19.603 5 20.9557 5C23.974 5 26.4208 7.41766 26.4208 10.4C26.4208 13.3823 23.974 15.8 20.9557 15.8C19.603 15.8 18.3651 15.3144 17.4108 14.51Z" fill="#ED0006"/>
<path d="M17.4102 14.51C18.5852 13.5195 19.3303 12.0457 19.3303 10.4C19.3303 8.75427 18.5852 7.28049 17.4102 6.29003C18.3645 5.48561 19.6024 5 20.9551 5C23.9733 5 26.4201 7.41766 26.4201 10.4C26.4201 13.3823 23.9733 15.8 20.9551 15.8C19.6024 15.8 18.3645 15.3144 17.4102 14.51Z" fill="#F9A000"/>
<path d="M17.4108 14.5102C18.5859 13.5198 19.331 12.046 19.331 10.4002C19.331 8.75449 18.5859 7.2807 17.4108 6.29024C16.2358 7.2807 15.4907 8.75449 15.4907 10.4002C15.4907 12.046 16.2358 13.5198 17.4108 14.5102Z" fill="#FF5E00"/>
<rect x="0.900098" y="1.10078" width="33" height="18.6" rx="2.1" stroke="black" stroke-opacity="0.14" stroke-width="0.6"/>
</svg>
