<svg width="34" height="20" viewBox="0 0 34 20" fill="none" xmlns="http://www.w3.org/2000/svg">
<rect y="0.800781" width="33.6" height="19.2" rx="2.4" fill="#00579F"/>
<path d="M20.6877 6.20117C21.4774 6.20117 22.116 6.38283 22.5186 6.54736L22.241 8.30324L22.0564 8.2169C21.687 8.05248 21.1994 7.88819 20.5358 7.90555C19.7298 7.90555 19.3683 8.26001 19.36 8.60608C19.36 8.98676 19.7972 9.23764 20.5112 9.60969C21.6873 10.1893 22.2329 10.8986 22.2247 11.8242C22.2082 13.5111 20.8137 14.6012 18.6718 14.6012C17.7559 14.5924 16.8738 14.3931 16.3951 14.1684L16.6807 12.3431L16.9495 12.473C17.6132 12.7761 18.0499 12.9055 18.8649 12.9055C19.4526 12.9055 20.0828 12.6544 20.0908 12.1097C20.0908 11.755 19.8223 11.4953 19.0325 11.0973C18.2598 10.7079 17.2267 10.0592 17.2434 8.89133C17.2522 7.30837 18.6718 6.20117 20.6877 6.20117Z" fill="white"/>
<path d="M13.0771 14.48H15.1185L16.3952 6.34857H14.3539L13.0771 14.48Z" fill="white"/>
<path fill-rule="evenodd" clip-rule="evenodd" d="M27.7516 6.34857H26.1726C25.6857 6.34857 25.3157 6.49551 25.1056 7.02324L22.0734 14.4799H24.2154C24.2154 14.4799 24.568 13.4763 24.6438 13.2601H27.2648C27.3234 13.5456 27.5084 14.4799 27.5084 14.4799H29.3985L27.7516 6.34857ZM25.2318 11.5993C25.3999 11.1322 26.0468 9.32421 26.0468 9.32421C26.0434 9.33122 26.0701 9.25496 26.1098 9.1416C26.1684 8.9743 26.2553 8.72616 26.3154 8.54572L26.458 9.24637C26.458 9.24637 26.8446 11.1928 26.9285 11.5993H25.2318Z" fill="white"/>
<path d="M9.37283 11.8934L11.372 6.34857H13.5306L10.3219 14.4714H8.16321L6.33203 7.36046C7.6256 8.06146 8.78476 9.47127 9.15437 10.7689L9.37283 11.8934Z" fill="white"/>
<path d="M7.5172 6.34883H4.23282L4.19922 6.51313C6.76124 7.18791 8.45801 8.81445 9.15514 10.7695L8.44116 7.03235C8.32361 6.51301 7.96238 6.36596 7.5172 6.34883Z" fill="#FAA61A"/>
<rect x="0.3" y="1.10078" width="33" height="18.6" rx="2.1" stroke="black" stroke-opacity="0.14" stroke-width="0.6"/>
</svg>
