<svg width="79" height="78" viewBox="0 0 79 78" fill="none" xmlns="http://www.w3.org/2000/svg">
<path d="M36.9929 8.21271V51.052C36.9911 51.2134 36.9477 51.3717 36.8671 51.5115C36.7865 51.6514 36.6712 51.768 36.5325 51.8503C36.2255 51.9764 35.892 52.024 35.5621 51.9887C35.1726 51.9887 34.783 51.9887 34.397 51.9887C33.6078 51.9744 32.8226 51.872 32.056 51.6835C30.3172 51.2131 28.7816 50.1817 27.6869 48.7488C26.5921 47.316 25.9993 45.5616 26 43.7572V0.825645C25.999 0.69224 26.0308 0.560629 26.0925 0.442438C26.1543 0.324248 26.2441 0.223113 26.3542 0.147965C26.6022 0.0257375 26.88 -0.022304 27.1546 0.00959072C27.5087 0.00959072 27.8629 0.00959072 28.217 0.00959072C28.9294 0.00490359 29.6406 0.0654762 30.3419 0.190545C32.2153 0.545419 33.9059 1.5449 35.1217 3.0162C36.3374 4.48751 37.0018 6.33815 37 8.24818L36.9929 8.21271Z" fill="url(#paint0_linear_1532_105887)"/>
<path fill-rule="evenodd" clip-rule="evenodd" d="M23.5895 29.2106C28.5588 20.551 39.1609 14.1973 48.141 15.0823C66.0089 16.8171 68.1741 44.9396 45.3015 51.8997C38.2984 52.7671 37.9186 47.8449 39.1503 43.4129C59.5241 33.9987 50.4091 21.852 44.0485 25.7376C42.1141 26.9258 40.0625 29.0202 38.1813 31.2838C34.9371 35.2081 32.2005 39.6226 31.4374 40.6768C23.4369 51.7129 15.0354 44.0899 23.5895 29.2106Z" fill="white"/>
<path fill-rule="evenodd" clip-rule="evenodd" d="M61.8768 28.8708C62.8648 37.6832 57.9526 48.0434 45.59 51.8986C38.6983 52.7759 38.3247 47.7973 39.5397 43.3109C58.588 34.2524 51.41 22.7082 45.2898 24.98C47.7314 24.0615 50.3594 23.7826 52.9337 24.1689C55.508 24.5551 57.9465 25.5942 60.0264 27.1911C60.6852 27.7009 61.3038 28.2625 61.8768 28.8708Z" fill="url(#paint1_linear_1532_105887)"/>
<path d="M6.54678 62.814C8.36938 62.9657 9 64.0707 9 65.9413C9 68.3536 7.81896 69 4.99028 69C2.72661 69 1.49089 68.982 0 68.8628V57.1372C1.33779 57.0181 2.45322 57 4.4435 57C7.53098 57 8.62818 57.6464 8.62818 60.0587C8.62818 61.7415 8.02673 62.6082 6.55043 62.7454L6.54678 62.814ZM4.31592 58.9537H2.55164V61.9401H4.45443C5.72296 61.9401 6.12028 61.6332 6.12028 60.427C6.12028 59.2209 5.69016 58.9537 4.31592 58.9537ZM4.54192 67.0464C5.96354 67.0464 6.36452 66.7574 6.36452 65.4466C6.36452 64.0202 5.93803 63.6627 4.46172 63.641H2.5407V67.0427L4.54192 67.0464Z" fill="white"/>
<path d="M12.4984 65.1139L11.6472 68H9L12.3793 57.6379C12.4282 57.4509 12.5442 57.2854 12.7077 57.1694C12.8713 57.0534 13.0725 56.9939 13.2774 57.001H15.7226C15.9281 56.9913 16.1306 57.0498 16.2948 57.1662C16.459 57.2826 16.5744 57.4496 16.6207 57.6379L20 68H17.3672L16.5052 65.1139H12.4984ZM14.9761 59.8702C14.8895 59.5314 14.7885 59.169 14.738 58.8336H14.28L14.0239 59.8702L13.0393 63.2339H15.9607L14.9761 59.8702Z" fill="white"/>
<path d="M28.9865 68H21V66.1367L26.1987 58.8666H21.1313V57H28.8754V58.8666L23.6936 66.1367H29L28.9865 68Z" fill="white"/>
<path d="M33.4948 65.1139L32.6472 68H30L33.3793 57.6379C33.4275 57.4506 33.5434 57.2848 33.7071 57.1686C33.8709 57.0525 34.0724 56.9933 34.2774 57.001H36.7226C36.9281 56.9913 37.1307 57.0498 37.2948 57.1662C37.459 57.2826 37.5744 57.4496 37.6207 57.6379L41 68H38.3672L37.5197 65.1139H33.4948ZM35.9761 59.8702C35.8895 59.5314 35.7885 59.169 35.738 58.8336H35.28L35.0239 59.8702L34.0393 63.2339H36.9607L35.9761 59.8702Z" fill="white"/>
<path d="M48.3527 68L47.4914 64.6814C47.2769 63.9896 46.9465 63.769 46.268 63.769H44.5102V68H42V57.1485C43.447 57.0264 44.9 56.9795 46.3523 57.0081C49.3301 57.0081 50.5711 57.73 50.5711 60.2165C50.5711 61.7404 50.0086 62.7163 48.3879 62.8901V62.9703C48.7988 63.0578 49.1727 63.2602 49.4615 63.5515C49.7504 63.8427 49.9409 64.2095 50.0086 64.6045L51 67.9866L48.3527 68ZM46.3172 61.9276C47.6391 61.9276 48.0363 61.5934 48.0363 60.3869C48.0363 59.1804 47.6391 58.8596 46.3172 58.8596L44.4961 58.8763V61.9276H46.3172Z" fill="white"/>
<path d="M59.694 59.6785C59.694 61.2707 59.3348 62.3606 57.9195 62.5957V62.6634C59.4892 62.9163 59.9813 63.8709 59.9993 65.5663C60.0316 67.9777 58.9648 69 56.0086 69C54.6673 68.9868 53.3282 68.8869 52 68.7008L52.1042 66.7881C53.4547 66.8735 54.2845 66.9056 55.3154 66.9056C56.921 66.9056 57.4706 66.5708 57.4706 65.228C57.4706 64.1594 57.1473 63.6216 55.6746 63.6358H53.4943V61.894H55.6746C57.1437 61.894 57.2802 61.2565 57.2622 60.3517C57.2622 59.2298 56.8563 59.0766 55.4662 59.0766C54.3168 59.0766 53.1818 59.1122 52.3556 59.1443L52.2371 57.2992C53.4495 57.1026 54.6759 57.0025 55.9045 57C58.6128 56.9965 59.694 57.634 59.694 59.6785Z" fill="white"/>
<path d="M70 64.8345C70 67.5187 69.3399 69 66.1043 69C62.8687 69 62 67.7721 62 63.1176C62 57.8276 63.546 57.0031 66.6345 57.0031C67.518 56.9805 68.4004 57.0825 69.2578 57.3065L69.1313 58.9877C68.2933 58.952 67.811 58.952 66.6345 58.952C65.0235 58.952 64.4934 59.391 64.3805 61.9932C65.0646 61.3542 65.7486 61.1544 66.8294 61.1544C69.2749 61.1544 70 62.1966 70 64.8345ZM67.6811 64.8844C67.6811 63.4566 67.3767 63.0176 66.1214 63.0176C65.4882 63.011 64.8709 63.2245 64.3668 63.6244C64.3668 66.43 64.5276 67.0332 66.1214 67.0332C67.5511 67.0332 67.6811 66.3622 67.6811 64.8844Z" fill="white"/>
<path d="M74.4091 58.9945L74.2891 61.1347L75.7605 61.3421C78.2422 61.6515 79 63.0564 79 65.1783C79 67.202 78.2864 69 75.4195 69C74.2731 68.9821 73.1298 68.8604 72 68.636L72.2084 66.616C73.1746 66.7361 74.1407 66.8198 74.8543 66.8198C76.3983 66.8198 76.7267 66.3067 76.7488 65.142C76.8087 63.6351 76.1709 63.4968 74.3586 63.3221L73.0956 63.1474C72.9941 63.1391 72.8949 63.1077 72.804 63.055C72.713 63.0023 72.632 62.9293 72.5657 62.8403C72.4993 62.7513 72.4489 62.648 72.4174 62.5364C72.3859 62.4249 72.3739 62.3072 72.382 62.1902L72.6346 57H78.6685L78.5958 59.02L74.4091 58.9945Z" fill="white"/>
<path d="M32.5 77.002C32.433 76.9957 32.3655 77.0042 32.3022 77.027C32.2389 77.0499 32.1814 77.0864 32.1338 77.1341C32.0862 77.1817 32.0497 77.2394 32.027 77.3028C32.0042 77.3662 31.9957 77.4339 32.002 77.501C32.002 77.6334 32.0545 77.7603 32.1479 77.8538C32.2413 77.9474 32.3679 78 32.5 78C32.6321 78 32.7587 77.9474 32.8521 77.8538C32.9455 77.7603 32.998 77.6334 32.998 77.501C33.0043 77.4339 32.9958 77.3662 32.973 77.3028C32.9502 77.2394 32.9138 77.1817 32.8662 77.1341C32.8186 77.0864 32.7611 77.0499 32.6978 77.027C32.6345 77.0042 32.567 76.9957 32.5 77.002Z" fill="white"/>
<path d="M32.0224 72.0262H18.0744V71.7476C18.0744 70.8937 18.294 70.6043 19.059 70.6043C19.7738 70.6579 20.4693 70.8663 21.0992 71.2157V70.6043C20.4542 70.2461 19.739 70.0397 19.0059 70C17.9681 70 17.4404 70.4342 17.4404 71.7259V72.0154H16.1582V71.0421H15.5242V72.0154H9V72.5726H9.68713V73.2347C9.66392 73.6424 9.77216 74.0466 9.99528 74.3854L10.0909 74.5373C9.93524 74.6319 9.80943 74.7701 9.72843 74.9356C9.64744 75.1011 9.61466 75.2869 9.63401 75.4708V76.1945C9.63401 76.9579 10.0378 77.327 10.8383 77.327H10.9693V76.7553H10.8383C10.3813 76.7553 10.2574 76.5491 10.2574 76.209V75.507C10.2574 75.1452 10.3813 74.9607 10.8383 74.9607H11.2952C11.745 74.9607 11.8937 75.156 11.8937 75.5251V77.8951H12.5277V72.5834H13.7568C13.5785 72.839 13.4922 73.1496 13.5124 73.4627C13.526 73.9392 13.6084 74.411 13.7568 74.863C13.9092 75.3293 13.9835 75.8186 13.9764 76.3103C13.9645 76.8727 13.8042 77.4215 13.5124 77.8987H14.2208C14.504 77.4203 14.6478 76.8692 14.6352 76.3103C14.6388 75.7521 14.5526 75.1972 14.3802 74.6676C14.2483 74.2857 14.1742 73.8855 14.1606 73.4808C14.1417 73.159 14.2487 72.8427 14.4581 72.6015H15.549V77.8987H16.183V72.5834H17.4652V77.8806H18.0992V72.5834H20.915C20.832 72.7064 20.7909 72.8539 20.7981 73.0032V74.8123C20.7981 75.6771 21.2231 75.9919 21.9599 75.9919C22.1876 76.0093 22.4143 75.9454 22.6009 75.811C22.6009 76.9254 22.3743 77.3306 21.3719 77.3306H21.2656C20.1641 77.3306 19.8489 76.8602 19.8489 75.7639V73.6183H19.2149V75.7639C19.2149 77.1678 19.7072 77.9132 21.2373 77.9132H21.379C22.7958 77.9132 23.242 77.2944 23.242 75.9376V74.5844H22.608V74.8159C22.608 75.2139 22.5018 75.4202 22.0272 75.4202C21.5525 75.4202 21.4498 75.2212 21.4498 74.834V73.0032C21.4498 72.7065 21.588 72.5907 21.843 72.5907H22.608V73.137C22.608 73.7304 22.8205 74.0271 23.4616 74.0271H23.7698C24.124 74.0271 24.2019 74.1827 24.2019 74.5301V78H24.8324V74.4758C24.8324 73.7775 24.6234 73.4518 23.9115 73.4518H23.5856C23.2952 73.4518 23.2314 73.3541 23.2314 73.09V72.5798H26.1251C25.9055 72.8295 25.8347 73.2058 25.8347 73.7739V76.4514C25.8347 77.3306 26.1181 77.8987 26.9185 77.8987C26.9858 77.8987 27.039 77.8987 27.1204 77.8987V77.3487H27.0496C26.6175 77.3487 26.4616 77.1425 26.4616 76.5491V73.4989C26.4616 72.967 26.5821 72.5834 27.085 72.5834H29.4333V73.3831H28.8241C27.8678 73.3831 27.4994 73.8571 27.4994 74.6567V75.3804C27.4654 75.7144 27.5278 76.0513 27.6788 76.3496C27.8299 76.6479 28.063 76.8945 28.3495 77.0592L29.4864 77.8661H30.0567V73.9548H30.4888C31.0697 73.9548 31.2184 74.2153 31.2184 74.6784V75.8905C31.2184 76.2922 31.0874 76.4659 30.6198 76.4659H30.5313V77.0665H30.68C31.4805 77.0665 31.8524 76.6829 31.8524 75.9195V74.6567C31.8524 73.8571 31.4982 73.3831 30.5136 73.3831H30.0567V72.5834H34.6045V73.1045L33.5844 73.5785C32.8017 73.9729 32.5714 74.2261 32.5714 75.1235V75.4383C32.5714 76.2017 32.8194 76.5599 33.5738 77.1099L34.6647 77.8806H35.2101V72.5834H36V72.0262H32.0224ZM11.8831 74.5844C11.8 74.506 11.7012 74.447 11.5936 74.4114C11.486 74.3758 11.3721 74.3644 11.2597 74.3781H10.7037L10.5726 74.1683C10.3766 73.9001 10.2823 73.5685 10.307 73.2347V72.5726H11.8831V74.5844ZM29.4297 77.1171L28.6541 76.5418C28.2078 76.2198 28.1086 75.9882 28.1086 75.2682V74.6676C28.1086 74.2153 28.2609 73.9439 28.8383 73.9439H29.412V76.2017C29.4117 76.4983 29.4318 76.7945 29.4722 77.0882L29.4297 77.1171ZM34.608 77.1171L33.8253 76.5274C33.2621 76.0932 33.1842 75.9412 33.1842 75.2573C33.1842 74.5735 33.255 74.4143 33.8076 74.1357L34.5832 73.7739V76.2198C34.5826 76.5161 34.6003 76.8122 34.6364 77.1063L34.608 77.1171Z" fill="white"/>
<path d="M41.5705 75.0598C41.7129 74.9616 41.8268 74.8199 41.8986 74.6517C41.9705 74.4835 41.9974 74.2959 41.9759 74.1112V73.2462C41.9759 72.4794 41.649 72.0105 40.8742 72.0105C40.723 71.9956 40.5707 72.0168 40.4275 72.0726C40.2843 72.1283 40.1535 72.2175 40.0437 72.334C39.9434 72.2167 39.8202 72.1265 39.6836 72.0704C39.547 72.0143 39.4007 71.9938 39.2558 72.0105C39.0985 71.9846 38.9378 72.0067 38.7909 72.0746C38.6441 72.1425 38.5166 72.2535 38.4222 72.3958C38.3106 72.262 38.1722 72.1594 38.0183 72.0962C37.8643 72.0331 37.6992 72.0112 37.5362 72.0324H37V72.5921H37.5296C38.056 72.5921 38.1835 72.8973 38.1835 73.2571V74.1875C38.1835 74.551 38.0364 74.7654 37.6048 74.7654H37.4446V75.3251C37.523 75.3318 37.6017 75.3318 37.68 75.3251C37.8281 75.3415 37.9776 75.3168 38.1151 75.2534C38.2525 75.19 38.3738 75.0898 38.4679 74.9617C38.558 75.0904 38.6761 75.1913 38.8112 75.2549C38.9462 75.3186 39.0937 75.3427 39.2395 75.3251C39.3255 75.3315 39.4118 75.3315 39.4978 75.3251V74.7472H39.3212C38.8668 74.7472 38.7295 74.5292 38.7295 74.1694V73.2535C38.7295 72.8901 38.7458 72.5702 39.2722 72.5702C39.7986 72.5702 39.8084 72.8755 39.8084 73.2353V74.0749H40.3445V73.2535C40.3445 72.8901 40.4034 72.5957 40.8742 72.5957C41.3449 72.5957 41.3907 72.8828 41.3907 73.2535V74.104C41.3907 74.4674 41.3188 74.7618 40.7761 74.7618H40.0437V75.3469H40.7826C41.3351 75.3469 41.4071 75.6558 41.4071 76.0084V76.5572C41.4071 77.2513 41.0017 77.4149 39.8836 77.4149H39.5566C38.4352 77.4149 37.9972 77.2259 37.9972 76.5026V75.8085H37.4119V76.5026C37.4119 77.593 38.0658 78 39.5566 78H39.8836C41.4005 78 41.9923 77.5966 41.9923 76.5462V75.9793C42.0151 75.7965 41.9869 75.6102 41.9115 75.4458C41.8361 75.2813 41.7171 75.1466 41.5705 75.0598Z" fill="white"/>
<path d="M43 72.5878H45.2416V73.1201L44.345 73.6044C43.6507 73.9741 43.4577 74.2662 43.4577 75.183V75.5046C43.4577 76.2847 43.6725 76.6507 44.3387 77.2126L45.2976 78H45.7833V76.5213C45.9754 76.6729 46.2037 76.7468 46.434 76.732C47.1905 76.732 47.561 76.3105 47.561 75.39V74.6506C47.561 73.8891 47.2497 73.475 46.5243 73.475H46.3468V74.0518H46.4402C46.873 74.0518 47.0131 74.2551 47.0131 74.6506V75.3715C47.0131 75.8484 46.873 76.1109 46.3904 76.1109C45.9577 76.1109 45.7677 75.8706 45.7677 75.4418V72.5693H48V72H43.0187L43 72.5878ZM45.2572 77.22L44.5753 76.6174C44.0803 76.1738 44.0087 76.0185 44.0087 75.3198C44.0087 74.6211 44.0648 74.451 44.5598 74.1738L45.2385 73.8041V76.3031C45.2398 76.6034 45.2554 76.9033 45.2852 77.2015L45.2572 77.22Z" fill="white"/>
<path d="M43.5018 77.0037C43.4344 76.9949 43.3657 77.0018 43.3013 77.0238C43.2369 77.0457 43.1784 77.0822 43.1303 77.1303C43.0822 77.1784 43.0457 77.2369 43.0238 77.3013C43.0018 77.3658 42.9949 77.4344 43.0037 77.5018C43.0037 77.6004 43.0329 77.6967 43.0876 77.7786C43.1424 77.8605 43.2202 77.9244 43.3112 77.9621C43.4022 77.9998 43.5024 78.0096 43.599 77.9904C43.6957 77.9712 43.7844 77.9238 43.8541 77.8541C43.9238 77.7844 43.9712 77.6957 43.9904 77.599C44.0097 77.5024 43.9998 77.4022 43.9621 77.3112C43.9244 77.2202 43.8605 77.1424 43.7786 77.0876C43.6967 77.0329 43.6004 77.0037 43.5018 77.0037Z" fill="white"/>
<path d="M51.6244 72C50.7144 72 50.263 72.4969 50.263 73.2608V74.67C50.263 75.4116 50.6185 75.827 51.3863 75.827H51.6066V75.2485H51.5C51.0308 75.2485 50.8993 75.0185 50.8993 74.6774V73.2682C50.8993 72.8974 51.0663 72.5859 51.6102 72.5859C52.154 72.5859 52.3495 72.9085 52.3495 73.2682V77.403H51.4396C50.8317 77.403 50.622 77.199 50.622 76.576V76.131H50V76.6762C50 77.6255 50.4408 78 51.3507 78H53V73.2608C53 72.4969 52.5308 72 51.6244 72Z" fill="white"/>
<path d="M69.0219 73C68.3342 73 68.0493 73.4542 68.0493 74.2664V74.9546H68.537V74.2664C68.537 73.8534 68.6137 73.5472 69.0219 73.5472C69.4301 73.5472 69.4986 73.8534 69.4986 74.2664V74.9821C69.4986 75.5637 69.3479 75.8183 68.9069 75.8183H68V76.3414L69.274 78H69.8986L68.6192 76.3414H68.926C69.6932 76.3414 70 75.9043 70 74.9649V74.2319C69.989 73.4542 69.6877 73 69.0219 73Z" fill="white"/>
<path d="M70.3415 72.1993V71.8173C70.3415 71.0104 70.0232 70.6569 69.1965 70.6569H68.7429C68.1502 70.6569 68.0112 70.5141 68.0112 70H67.4368C67.4368 70.0893 67.4368 70.1678 67.4368 70.2392C67.4368 70.9747 67.8539 71.196 68.6002 71.196H69.0099C69.5001 71.196 69.6903 71.2853 69.6903 71.8423V72.1993H59.9557V71.2389H59.3008V72.1993H58.1229V71.2389H57.468V77.2227L54.9768 75.6196H55.0572C56.0486 75.6196 56.5462 75.2626 56.5462 74.2451V72.1993H55.9316V72.9883C55.9316 73.456 55.8401 73.7024 55.295 73.7024C54.7499 73.7024 54.6585 73.4632 54.6585 72.9883V72.1993H54.0037V72.9705C54.0037 73.8452 54.3695 74.2629 55.2036 74.2629C55.4616 74.2796 55.7182 74.2145 55.9352 74.0773V74.2629C55.9352 74.8306 55.7157 75.1055 55.0975 75.1055H54V75.7446L57.5266 77.976H58.1265V72.7491H59.3045V77.976H59.9593V72.7491H61.4409C61.2141 72.9955 61.141 73.3668 61.141 73.9273V76.5693C61.141 77.4369 61.43 77.9974 62.2567 77.9974C62.3262 78.0009 62.3958 78.0009 62.4653 77.9974V77.4547H62.3957C61.9494 77.4547 61.7848 77.2512 61.7848 76.6657V73.6524C61.7848 73.1276 61.9129 72.7491 62.4323 72.7491H66.0284V75.309C66.0271 75.7654 66.0601 76.2212 66.1272 76.6728H66.0906L65.6004 75.4947C65.2346 74.5807 64.8212 74.0487 64.031 74.0487H63.9578C63.2262 74.0487 62.8128 74.4843 62.8128 75.2911V75.3518C62.8128 76.1052 63.1311 76.5122 63.892 76.5122C63.9656 76.5132 64.0391 76.5072 64.1115 76.4943V75.9731H63.9651C63.6286 75.9731 63.4566 75.7981 63.4566 75.3518V75.3197C63.4566 74.8841 63.603 74.6271 63.9944 74.6271H64.0566C64.5834 74.6271 64.7663 75.0448 65.1358 75.9017L66.065 77.976H66.6832V72.7491H71V72.1993H70.3415Z" fill="white"/>
<defs>
<linearGradient id="paint0_linear_1532_105887" x1="25.4263" y1="53.9295" x2="38.0466" y2="-4.08586" gradientUnits="userSpaceOnUse">
<stop stop-color="#198442"/>
<stop offset="0.46" stop-color="#4DB548"/>
</linearGradient>
<linearGradient id="paint1_linear_1532_105887" x1="60.6933" y1="24.0099" x2="21.6881" y2="65.9155" gradientUnits="userSpaceOnUse">
<stop stop-color="#198442"/>
<stop offset="0.46" stop-color="#4DB548"/>
</linearGradient>
</defs>
</svg>
