<svg width="12" height="8" viewBox="0 0 12 8" fill="none" xmlns="http://www.w3.org/2000/svg">
<path d="M2.2373 5.00129L11.2995 5.00129C11.3336 5.00162 11.3671 5.0095 11.3967 5.02417C11.4263 5.03883 11.4509 5.05978 11.4683 5.085C11.495 5.14081 11.5051 5.20145 11.4976 5.26143C11.4976 5.33226 11.4976 5.40309 11.4976 5.47328C11.4946 5.61677 11.4729 5.75953 11.4331 5.8989C11.3335 6.21505 11.1154 6.49425 10.8122 6.6933C10.5091 6.89234 10.138 7.00013 9.75632 7L0.674656 7C0.646435 7.00018 0.618595 6.99441 0.593593 6.98318C0.568591 6.97195 0.547197 6.95561 0.5313 6.9356C0.505444 6.89052 0.495282 6.83999 0.502029 6.79008C0.502029 6.72569 0.502029 6.6613 0.502029 6.59691C0.501037 6.46739 0.513851 6.33807 0.540308 6.21056C0.615377 5.86995 0.826806 5.56256 1.13804 5.34151C1.44928 5.12047 1.84076 4.99967 2.24481 5L2.2373 5.00129Z" fill="url(#paint0_linear_1756_58653)"/>
<path fill-rule="evenodd" clip-rule="evenodd" d="M6.57256 7.31628C4.70021 6.36976 3.32645 4.3503 3.5178 2.6398C3.89288 -0.763607 9.97343 -1.17602 11.4783 3.18067C11.6659 4.51458 10.6016 4.58692 9.64333 4.35232C7.60784 0.471598 4.98152 2.20778 5.82164 3.41933C6.07855 3.78779 6.53139 4.17857 7.02082 4.53689C7.86933 5.15484 8.82379 5.6761 9.05174 5.82145C11.4379 7.34535 9.7897 8.94564 6.57256 7.31628Z" fill="white"/>
<defs>
<linearGradient id="paint0_linear_1756_58653" x1="11.9082" y1="7.10431" x2="-0.171304" y2="4.04709" gradientUnits="userSpaceOnUse">
<stop stop-color="#198442"/>
<stop offset="0.46" stop-color="#4DB548"/>
</linearGradient>
</defs>
</svg>
