<svg width="78" height="24" viewBox="0 0 78 24" fill="none" xmlns="http://www.w3.org/2000/svg">
<g clip-path="url(#clip0_1671_504)">
<path d="M8.00128 3.80014C8.00128 3.80014 8.00128 23.5483 8.00128 23.5625C8.00128 23.7103 7.91823 23.8582 7.78859 23.9311C7.65084 24.0081 7.49487 23.9919 7.34092 23.996C7.16063 24 6.98035 24 6.80209 23.996C6.43747 23.9838 6.07488 23.9473 5.72039 23.8542C4.77643 23.607 3.93781 22.9588 3.44355 22.1182C3.10324 21.5388 2.92093 20.8663 2.92093 20.1938V0.380824C2.92093 0.257259 2.98372 0.137745 3.08703 0.0688724C3.19844 -0.00405132 3.33214 0.00810263 3.45773 0.00607698C3.62181 0.00202566 3.78589 0 3.94996 0C4.27609 0.00202566 4.60425 0.0222822 4.92633 0.083052C5.79939 0.249156 6.60763 0.731263 7.16468 1.42404C7.70553 2.09453 8.00128 2.94126 8.00128 3.80216V3.80014Z" fill="url(#paint0_linear_1671_504)"/>
<path fill-rule="evenodd" clip-rule="evenodd" d="M2.05761 13.2009C4.35268 9.18204 9.23857 6.23066 13.379 6.64186C21.6194 7.44808 22.616 20.5034 12.0664 23.7344C8.83547 24.1375 8.65923 21.8525 9.22844 19.7945C18.6234 15.4251 14.4202 9.78569 11.4871 11.5905C10.5937 12.1415 9.64776 13.1138 8.78077 14.1652C7.28381 15.9862 6.02183 18.0362 5.66328 18.5264C1.98469 23.6493 -1.89242 20.1105 2.05559 13.203L2.05761 13.2009Z" fill="#11823B"/>
<path fill-rule="evenodd" clip-rule="evenodd" d="M19.7111 13.1568C20.175 17.202 17.8718 21.9562 12.0764 23.7246C8.84545 24.1277 8.66922 21.8428 9.23843 19.7847C18.1696 15.626 14.807 10.3289 11.9346 11.3701C14.254 10.5112 16.8549 10.8981 18.8441 12.385C19.1601 12.622 19.4477 12.8752 19.7192 13.1547H19.7111V13.1568Z" fill="url(#paint1_linear_1671_504)"/>
<path d="M27.2359 12.4832C28.4452 12.5865 28.8665 13.3279 28.8665 14.5818C28.8665 16.2003 28.0806 16.6338 26.1987 16.6338C24.6937 16.6338 23.8733 16.6216 22.8807 16.5426V8.67496C23.77 8.59596 24.5114 8.5838 25.8341 8.5838C27.8861 8.5838 28.6174 9.01729 28.6174 10.6358C28.6174 11.7641 28.2183 12.3454 27.2379 12.4366V12.4832H27.2359ZM25.7531 9.8944H24.5782V11.8897H25.8442C26.6889 11.8897 26.9502 11.6851 26.9502 10.8748C26.9502 10.0646 26.6646 9.8944 25.7531 9.8944ZM25.901 15.3232C26.8469 15.3232 27.1204 15.1287 27.1204 14.2516C27.1204 13.2935 26.8348 13.0544 25.8544 13.0423H24.5762V15.3232H25.8989H25.901Z" fill="#11823B"/>
<path d="M31.7049 14.4782L31.1357 16.5424H29.3571L31.6259 9.13049C31.6948 8.84487 31.9459 8.67471 32.2295 8.67471H33.8723C34.1681 8.67471 34.4091 8.84487 34.476 9.13049L36.7447 16.5424H34.9763L34.4051 14.4782H31.7029H31.7049ZM33.37 10.7267C33.3133 10.4877 33.2444 10.2243 33.2099 9.98531H32.902L32.7319 10.7267L32.0695 13.1332H34.0303L33.37 10.7267Z" fill="#11823B"/>
<path d="M42.9585 16.5424H37.2117V15.2074L40.9511 10.0076H37.3029V8.67267H42.8674V10.0076L39.1381 15.2074H42.9585V16.5424Z" fill="#11823B"/>
<path d="M45.7625 14.4782L45.1933 16.5424H43.4147L45.6835 9.13049C45.7523 8.84487 46.0035 8.67471 46.2871 8.67471H47.9299C48.2257 8.67471 48.4667 8.84487 48.5336 9.13049L50.8023 16.5424H49.0339L48.4647 14.4782H45.7625ZM47.4276 10.7267C47.3708 10.4877 47.302 10.2243 47.2675 9.98531H46.9596L46.7895 10.7267L46.1271 13.1332H48.0879L47.4276 10.7267Z" fill="#11823B"/>
<path d="M55.9798 16.5425L55.3863 14.136C55.2384 13.6336 55.0095 13.4756 54.5416 13.4756H53.3221V16.5425H51.6125V8.67481C52.5585 8.58366 53.1966 8.5715 54.6125 8.5715C56.6645 8.5715 57.5193 9.09615 57.5193 10.897C57.5193 12.003 57.1324 12.7099 56.0142 12.8477V12.9044C56.4133 12.9955 56.9501 13.2812 57.1324 14.0894L57.8171 16.5404H55.9818L55.9798 16.5425ZM54.576 12.1286C55.4876 12.1286 55.761 11.8774 55.761 11.0104C55.761 10.1434 55.4876 9.90439 54.576 9.90439L53.3221 9.91654V12.1286H54.576Z" fill="#11823B"/>
<path d="M63.8017 10.3502C63.8017 11.4339 63.5626 12.1753 62.6045 12.3353V12.3819C63.6659 12.5521 63.9961 13.2023 64.0083 14.3549C64.0306 15.9977 63.3135 16.6925 61.3162 16.6925C60.4046 16.6925 59.4688 16.6014 58.6139 16.4879L58.6828 15.1875C59.5944 15.2442 60.1534 15.2665 60.8503 15.2665C61.934 15.2665 62.2986 15.0376 62.2986 14.126C62.2986 13.3968 62.0819 13.0322 61.0893 13.0423H59.6187V11.8573H61.0893C62.0819 11.8573 62.173 11.4238 62.1609 10.808C62.1609 10.0443 61.8874 9.941 60.9414 9.941C60.1656 9.941 59.4019 9.96328 58.8428 9.98759L58.7638 8.73371C59.6085 8.59596 60.4289 8.52911 61.2392 8.52911C63.0744 8.52911 63.8057 8.96261 63.8057 10.3542L63.8017 10.3502Z" fill="#0DB04B"/>
<path d="M70.8484 13.8506C70.8484 15.6757 70.3805 16.6784 68.0895 16.6784C65.7985 16.6784 65.1806 15.8459 65.1806 12.6879C65.1806 9.09641 66.2745 8.53732 68.4642 8.53732C68.841 8.53732 69.5824 8.53732 70.3238 8.74191L70.2326 9.88236C69.6391 9.86008 69.2968 9.86008 68.4642 9.86008C67.3238 9.86008 66.947 10.1558 66.868 11.9242C67.3461 11.4907 67.8383 11.353 68.602 11.353C70.3359 11.353 70.8484 12.0599 70.8484 13.8506ZM69.2056 13.8851C69.2056 12.9148 68.9889 12.619 68.0996 12.619C67.6438 12.619 67.3238 12.7223 66.8558 13.0302C66.868 14.9344 66.9693 15.3456 68.0996 15.3456C69.1145 15.3456 69.2056 14.8898 69.2056 13.8851Z" fill="#0DB04B"/>
<path d="M73.5831 10.0198L73.4919 11.4458L74.6202 11.5836C76.5243 11.7882 77.1057 12.724 77.1057 14.1379C77.1057 15.5518 76.5588 16.6801 74.3569 16.6801C73.6378 16.6801 72.6796 16.589 71.7336 16.429L71.8937 15.0839C72.6351 15.1629 73.3764 15.2217 73.9234 15.2217C75.1084 15.2217 75.3596 14.8793 75.3839 14.1035C75.4284 13.1008 74.9382 13.0096 73.5486 12.884L72.5905 12.7706C72.2603 12.7362 72.0193 12.4749 72.0436 12.1325L72.238 8.67676H76.8687L76.812 10.0218H73.5851L73.5831 10.0198Z" fill="#0DB04B"/>
<path d="M39.634 23.4453C39.4314 23.4453 39.3625 23.5628 39.3625 23.7168C39.3625 23.8707 39.4314 23.9943 39.634 23.9943C39.8365 23.9943 39.9054 23.8707 39.9054 23.7168C39.9054 23.5628 39.8386 23.4453 39.634 23.4453Z" fill="#0DB04B"/>
<path d="M38.9812 19.5822H29.2135V19.3918C29.2135 18.8064 29.3674 18.6099 29.9022 18.6099C30.5727 18.6099 31.3303 19.0292 31.3303 19.0292V18.616C31.3303 18.616 30.597 18.2028 29.8657 18.2028C29.1345 18.2028 28.7698 18.4985 28.7698 19.3837V19.5802H27.8704V18.9158H27.4268V19.5802H22.8549V19.961H23.335V20.4168C23.335 20.6943 23.3715 20.9516 23.5497 21.2048L23.6186 21.3101C23.4039 21.4276 23.2985 21.6423 23.2985 21.9502V22.4364C23.2985 22.959 23.5821 23.2122 24.1412 23.2122H24.2344V22.8111H24.1412C23.8212 22.8111 23.7361 22.6693 23.7361 22.4364V21.9563C23.7361 21.7173 23.8232 21.5816 24.1412 21.5816H24.4613C24.7752 21.5816 24.8806 21.7173 24.8806 21.9685V23.593H25.3242V19.9631H26.1871C26.0575 20.1352 26.0149 20.3196 26.0149 20.5667C26.0149 20.8807 26.0636 21.0711 26.1871 21.5269C26.2985 21.9198 26.3411 22.1123 26.3411 22.5053C26.3411 23.115 26.0149 23.5951 26.0149 23.5951H26.5011C26.5011 23.5951 26.7908 23.1818 26.7908 22.5053C26.7908 22.1123 26.7604 21.9077 26.6125 21.379C26.495 20.9597 26.4586 20.7936 26.4586 20.5667C26.4586 20.3135 26.5193 20.1292 26.6672 19.9631H27.4309V23.593H27.8745V19.9631H28.7739V23.593H29.2175V19.9631H31.1864C31.1378 20.0299 31.1054 20.1231 31.1054 20.2527V21.4904C31.1054 22.0819 31.4012 22.2966 31.9177 22.2966C32.2195 22.2966 32.3492 22.1852 32.3674 22.173C32.3674 22.9367 32.2074 23.2122 31.5065 23.2122H31.4336C30.6638 23.2122 30.437 22.8922 30.437 22.1406V20.67H29.9933V22.1406C29.9933 23.1008 30.3377 23.6113 31.4093 23.6113H31.5085C32.5112 23.6113 32.8131 23.1859 32.8131 22.2581V21.3283H32.3694V21.4884C32.3694 21.7598 32.2945 21.9016 31.9623 21.9016C31.6301 21.9016 31.5571 21.7659 31.5571 21.5005V20.2446C31.5571 20.0421 31.6564 19.961 31.8347 19.961H32.3694V20.3297C32.3694 20.7369 32.5173 20.9394 32.967 20.9394H33.1817C33.4349 20.9394 33.4835 21.0448 33.4835 21.2838V23.6599H33.9272V21.2595C33.9272 20.7794 33.7793 20.5586 33.281 20.5586H33.0541C32.8515 20.5586 32.8151 20.4918 32.8151 20.3135V19.9631H34.8407C34.6868 20.1352 34.6382 20.3945 34.6382 20.7814V22.6146C34.6382 23.2183 34.8347 23.6052 35.3958 23.6052C35.4444 23.6052 35.4829 23.6052 35.5376 23.5991V23.2244H35.4889C35.1871 23.2244 35.0757 23.0826 35.0757 22.6774V20.591C35.0757 20.2284 35.1628 19.9631 35.5133 19.9631H37.1561V20.51H36.7307C36.0602 20.51 35.8009 20.8361 35.8009 21.383V21.8874C35.8009 22.3857 35.8941 22.6876 36.3985 23.038L37.1925 23.591H37.5916V20.9009H37.8934C38.2985 20.9009 38.4039 21.0792 38.4039 21.3871V22.2176C38.4039 22.4951 38.3107 22.6106 37.9846 22.6106H37.9238V23.0238C37.9238 23.0238 37.9906 23.0299 38.0291 23.0299C38.5882 23.0299 38.8475 22.7645 38.8475 22.2419V21.381C38.8475 20.8341 38.5882 20.508 37.9116 20.508H37.5916V19.961H40.7739V20.3175L40.0609 20.6437C39.5139 20.9151 39.3539 21.0873 39.3539 21.7031V21.9178C39.3539 22.4404 39.5261 22.6876 40.0548 23.0623L40.8185 23.591H41.2054V19.961H41.7584V19.5802H38.9893L38.9812 19.5822ZM24.8806 21.3425C24.8178 21.2615 24.6719 21.2007 24.443 21.2007H24.0561L23.963 21.0589C23.8212 20.8564 23.7786 20.7085 23.7786 20.4188V19.9631H24.8806V21.3425ZM37.1581 23.0724L36.6172 22.6795C36.3033 22.4587 36.2364 22.2986 36.2364 21.8064V21.3932C36.2364 21.0853 36.3417 20.907 36.7469 20.907H37.148V22.4526C37.148 22.6734 37.1662 22.8962 37.1905 23.0623L37.1601 23.0745L37.1581 23.0724ZM40.784 23.0724L40.2371 22.6653C39.8441 22.3695 39.7874 22.2662 39.7874 21.7983C39.7874 21.3304 39.836 21.219 40.2249 21.0286L40.7658 20.7753V22.4485C40.7658 22.6936 40.784 22.9043 40.8022 23.0583L40.784 23.0704V23.0724Z" fill="#0DB04B"/>
<path d="M46.1323 21.649C46.3531 21.5436 46.4402 21.2924 46.4402 21.0028V20.4113C46.4402 19.8887 46.1992 19.5686 45.6036 19.5686C45.3079 19.5686 45.1053 19.6496 44.9757 19.7894C44.8642 19.6537 44.6738 19.5686 44.3781 19.5686C44.0337 19.5686 43.8494 19.6679 43.7441 19.834C43.6205 19.6739 43.4119 19.5808 43.0736 19.5808H42.6684V19.9616H43.0675C43.4665 19.9616 43.5536 20.1702 43.5536 20.4174V21.0514C43.5536 21.2985 43.4422 21.4444 43.1161 21.4444H42.9925V21.8373C43.0169 21.8434 43.0918 21.8495 43.1708 21.8495C43.4726 21.8495 43.657 21.7502 43.7684 21.5963C43.8737 21.7502 44.058 21.8495 44.3538 21.8495C44.4267 21.8495 44.532 21.8434 44.5503 21.8373V21.4444H44.4267C44.0823 21.4444 43.977 21.2965 43.977 21.0514V20.4174C43.977 20.1723 43.9892 19.9494 44.3902 19.9494C44.7589 19.9494 44.7954 20.1581 44.7954 20.4052V20.9785H45.2025V20.4194C45.2025 20.1662 45.2451 19.9697 45.6016 19.9697C45.9581 19.9697 45.9946 20.1662 45.9946 20.4194V20.9987C45.9946 21.2377 45.9399 21.4484 45.5266 21.4484H44.9736V21.8495H45.5327C45.95 21.8495 46.0067 22.0581 46.0067 22.2992V22.6739C46.0067 23.1479 45.6988 23.2594 44.8501 23.2594H44.5969C43.7481 23.2594 43.4159 23.1297 43.4159 22.6375V22.1635H42.9723V22.6375C42.9723 23.3708 43.4645 23.6584 44.5969 23.6584H44.8501C46.0006 23.6584 46.4503 23.3809 46.4503 22.6739V22.287C46.4503 22.0034 46.3774 21.7583 46.1303 21.653L46.1323 21.649Z" fill="#0DB04B"/>
<path d="M46.6429 19.9631H48.4275V20.3196L47.7145 20.6457C47.1615 20.905 47.0075 21.0893 47.0075 21.7051V21.9199C47.0075 22.4425 47.1797 22.6896 47.7084 23.0644L48.4721 23.5931H48.859V22.6025C48.9825 22.6957 49.1547 22.7443 49.3755 22.7443C49.9792 22.7443 50.2749 22.4607 50.2749 21.8449V21.3588C50.2749 20.8483 50.0278 20.5708 49.4505 20.5708C49.4079 20.5708 49.3269 20.5769 49.3087 20.5769V20.9638H49.3836C49.728 20.9638 49.8394 21.0995 49.8394 21.3648V21.8388C49.8394 22.1589 49.728 22.3371 49.3472 22.3371C49.0028 22.3371 48.861 22.1771 48.861 21.8875V19.9611H50.6213V19.5802H46.647V19.9611L46.6429 19.9631ZM48.4397 23.0644L47.8988 22.6653C47.5058 22.3696 47.4491 22.2663 47.4491 21.7983C47.4491 21.3304 47.4916 21.2129 47.8867 21.0286L48.4275 20.7754V22.4486C48.4275 22.6876 48.4457 22.8983 48.464 23.0522L48.4397 23.0644Z" fill="#0DB04B"/>
<path d="M47.2704 23.4453C47.0618 23.4453 46.9929 23.5689 46.9929 23.7228C46.9929 23.8768 47.0618 24.0003 47.2704 24.0003C47.4791 24.0003 47.5479 23.8829 47.5479 23.7228C47.5479 23.5628 47.4791 23.4453 47.2704 23.4453Z" fill="#0DB04B"/>
<path d="M53.0431 19.5823C52.4091 19.5823 52.0951 19.9145 52.0951 20.425V21.3669C52.0951 21.853 52.3341 22.1427 52.877 22.1427C52.9195 22.1427 53.0066 22.1366 53.0309 22.1366V21.7497H52.958C52.6319 21.7497 52.5387 21.5958 52.5387 21.3689V20.427C52.5387 20.1879 52.6562 19.9712 53.0431 19.9712C53.43 19.9712 53.5596 20.1859 53.5596 20.427V23.1961H52.9256C52.5002 23.1961 52.3544 23.0603 52.3544 22.643V22.3473H51.9107V22.7099C51.9107 23.3439 52.2186 23.5951 52.8527 23.5951H54.0032V20.425C54.0032 19.9145 53.6771 19.5823 53.0431 19.5823Z" fill="#0DB04B"/>
<path d="M64.8673 20.3014C64.2454 20.3014 63.9881 20.6276 63.9881 21.213V21.6991H64.4317V21.213C64.4317 20.9172 64.4986 20.6964 64.8693 20.6964C65.24 20.6964 65.3007 20.9172 65.3007 21.213V21.7295C65.3007 22.1488 65.165 22.3332 64.766 22.3332H63.9476V22.7079L65.0982 23.901H65.6633L64.4945 22.7079H64.772C65.4668 22.7079 65.7444 22.3939 65.7444 21.7295V21.2008C65.7444 20.6276 65.4729 20.3014 64.8713 20.3014H64.8673Z" fill="#0DB04B"/>
<path d="M65.746 19.5825V19.3171C65.746 18.758 65.5313 18.5109 64.9702 18.5109H64.6623C64.2632 18.5109 64.1761 18.4116 64.1761 18.0551H63.7892C63.7831 18.1159 63.7771 18.1726 63.7771 18.2212C63.7771 18.7317 64.0607 18.8856 64.565 18.8856H64.8426C65.1748 18.8856 65.3044 18.9464 65.3044 19.3353V19.5825H58.7068V18.918H58.2632V19.5825H57.4631V18.918H57.0195V23.0605L55.328 21.9586H55.3827C56.0532 21.9586 56.3915 21.7054 56.3915 21.0045V19.5825H55.9722V20.1294C55.9722 20.4555 55.9114 20.6216 55.5407 20.6216C55.17 20.6216 55.1093 20.4555 55.1093 20.1294V19.5825H54.6657V20.1172C54.6657 20.727 54.9189 21.0166 55.4779 21.0166C55.6805 21.0166 55.8466 20.9802 55.9702 20.887V21.0166C55.9702 21.4096 55.8223 21.602 55.405 21.602H54.6657V22.0457L57.0539 23.5973H57.4611V19.9673H58.2612V23.5973H58.7048V19.9673H59.7075C59.5536 20.1395 59.505 20.3988 59.505 20.7857V22.6189C59.505 23.2226 59.7014 23.6095 60.2625 23.6095C60.3112 23.6095 60.3497 23.6095 60.4043 23.6034V23.2286H60.3557C60.0539 23.2286 59.9425 23.0869 59.9425 22.6817V20.5953C59.9425 20.2327 60.0296 19.9673 60.38 19.9673H62.8169V21.7459C62.8169 22.1652 62.8534 22.4913 62.8837 22.6939L62.8594 22.7L62.5272 21.8816C62.2679 21.2476 61.9985 20.8789 61.4638 20.8789H61.4151C60.9108 20.8789 60.6393 21.1807 60.6393 21.7398V21.7823C60.6393 22.3049 60.854 22.5885 61.3726 22.5885C61.4273 22.5885 61.4901 22.5825 61.5205 22.5764V22.2077H61.4212C61.1943 22.2077 61.0769 22.0842 61.0769 21.7763V21.7519C61.0769 21.4501 61.1761 21.2719 61.4395 21.2719H61.482C61.8385 21.2719 61.9621 21.5615 62.2133 22.1571L62.8412 23.5973H63.2524V19.9673H66.1754V19.5865H65.744L65.746 19.5825Z" fill="#0DB04B"/>
</g>
<defs>
<linearGradient id="paint0_linear_1671_504" x1="2.65557" y1="24.8913" x2="8.46921" y2="-1.87779" gradientUnits="userSpaceOnUse">
<stop stop-color="#108526"/>
<stop offset="0.46" stop-color="#4DB63F"/>
</linearGradient>
<linearGradient id="paint1_linear_1671_504" x1="19.1642" y1="10.9285" x2="1.2938" y2="30.541" gradientUnits="userSpaceOnUse">
<stop stop-color="#108526"/>
<stop offset="0.46" stop-color="#4DB63F"/>
</linearGradient>
<clipPath id="clip0_1671_504">
<rect width="76.7076" height="24" fill="white" transform="translate(0.400002)"/>
</clipPath>
</defs>
</svg>
