<svg width="107" height="34" viewBox="0 0 107 34" fill="none" xmlns="http://www.w3.org/2000/svg">
<g clip-path="url(#clip0_1757_86833)">
<path d="M10.5059 5.25281C10.5059 5.25281 10.5059 32.5504 10.5059 32.57C10.5059 32.7744 10.3911 32.9788 10.2119 33.0796C10.0215 33.186 9.80588 33.1636 9.59308 33.1692C9.34387 33.1748 9.09467 33.1748 8.84827 33.1692C8.34426 33.1524 7.84306 33.102 7.35305 32.9732C6.04823 32.6316 4.88902 31.7356 4.20581 30.5735C3.7354 29.7727 3.4834 28.8431 3.4834 27.9135V0.526346C3.4834 0.355544 3.5702 0.190341 3.713 0.0951402C3.867 -0.00566111 4.05181 0.0111391 4.22541 0.00833907C4.45221 0.002739 4.67901 -6.10352e-05 4.90582 -6.10352e-05C5.35662 0.002739 5.81023 0.0307394 6.25543 0.11474C7.46225 0.344343 8.57946 1.01075 9.34947 1.96836C10.0971 2.89518 10.5059 4.06559 10.5059 5.25561V5.25281Z" fill="url(#paint0_linear_1757_86833)"/>
<path fill-rule="evenodd" clip-rule="evenodd" d="M2.29052 18.2478C5.46296 12.6925 12.2167 8.61283 17.9399 9.18124C29.3305 10.2957 30.7081 28.3419 16.1255 32.8079C11.6594 33.3652 11.4158 30.2067 12.2027 27.3619C25.1892 21.3222 19.3791 13.5269 15.3247 16.0217C14.0899 16.7833 12.7823 18.1274 11.5838 19.5806C9.51462 22.0978 7.77019 24.9314 7.27459 25.6091C2.18972 32.6903 -3.16955 27.7987 2.28772 18.2506L2.29052 18.2478Z" fill="white"/>
<path fill-rule="evenodd" clip-rule="evenodd" d="M26.6925 18.1862C27.3337 23.7778 24.1501 30.3495 16.1392 32.794C11.6731 33.3512 11.4295 30.1927 12.2163 27.3479C24.5617 21.5994 19.9136 14.2773 15.9432 15.7165C19.1492 14.5293 22.7445 15.0641 25.4941 17.1194C25.9309 17.447 26.3285 17.797 26.7037 18.1834H26.6925V18.1862Z" fill="url(#paint1_linear_1757_86833)"/>
<path d="M37.0948 17.2537C38.7664 17.3965 39.3488 18.4214 39.3488 20.1546C39.3488 22.3918 38.2624 22.991 35.6612 22.991C33.5807 22.991 32.4467 22.9742 31.0747 22.865V11.9897C32.3039 11.8805 33.3287 11.8637 35.1572 11.8637C37.9936 11.8637 39.0044 12.4629 39.0044 14.7001C39.0044 16.2597 38.4528 17.0633 37.0976 17.1893V17.2537H37.0948ZM35.0452 13.6753H33.4211V16.4333H35.1712C36.3388 16.4333 36.7 16.1505 36.7 15.0305C36.7 13.9105 36.3052 13.6753 35.0452 13.6753ZM35.2496 21.1794C36.5572 21.1794 36.9352 20.9106 36.9352 19.6982C36.9352 18.3738 36.5404 18.0434 35.1852 18.0266H33.4183V21.1794H35.2468H35.2496Z" fill="white"/>
<path d="M43.2716 20.0118L42.4848 22.865H40.0264L43.1624 12.6197C43.2576 12.2249 43.6048 11.9897 43.9968 11.9897H46.2677C46.6765 11.9897 47.0097 12.2249 47.1021 12.6197L50.2381 22.865H47.7937L47.0041 20.0118H43.2688H43.2716ZM45.5732 14.8261C45.4948 14.4957 45.3996 14.1317 45.352 13.8013H44.9264L44.6912 14.8261L43.7756 18.1526H46.4861L45.5732 14.8261Z" fill="white"/>
<path d="M58.829 22.865H50.8853V21.0198L56.0541 13.8321H51.0113V11.9869H58.703V13.8321L53.5481 21.0198H58.829V22.865Z" fill="white"/>
<path d="M62.7042 20.0118L61.9174 22.865H59.459L62.595 12.6197C62.6902 12.2249 63.0374 11.9897 63.4294 11.9897H65.7003C66.1091 11.9897 66.4423 12.2249 66.5347 12.6197L69.6707 22.865H67.2263L66.4395 20.0118H62.7042ZM65.0059 14.8261C64.9275 14.4957 64.8323 14.1317 64.7847 13.8013H64.359L64.1238 14.8261L63.2082 18.1526H65.9187L65.0059 14.8261Z" fill="white"/>
<path d="M76.8274 22.865L76.007 19.5386C75.8026 18.8442 75.4862 18.6258 74.8394 18.6258H73.1538V22.865H70.7905V11.9897C72.0981 11.8637 72.9802 11.8469 74.9374 11.8469C77.7738 11.8469 78.9554 12.5721 78.9554 15.0613C78.9554 16.5902 78.4206 17.5674 76.875 17.7578V17.8362C77.4266 17.9622 78.1686 18.357 78.4206 19.4742L79.367 22.8622H76.8302L76.8274 22.865ZM74.887 16.7638C76.147 16.7638 76.525 16.4166 76.525 15.2181C76.525 14.0197 76.147 13.6893 74.887 13.6893L73.1538 13.7061V16.7638H74.887Z" fill="white"/>
<path d="M87.6387 14.3053C87.6387 15.8033 87.3083 16.8282 85.9838 17.0494V17.1138C87.4511 17.349 87.9075 18.2478 87.9243 19.841C87.9551 22.1118 86.9639 23.0722 84.203 23.0722C82.943 23.0722 81.6494 22.9462 80.4678 22.7894L80.563 20.9918C81.823 21.0702 82.5958 21.101 83.559 21.101C85.057 21.101 85.561 20.7846 85.561 19.5246C85.561 18.5166 85.2614 18.0126 83.8894 18.0266H81.8566V16.3885H83.8894C85.2614 16.3885 85.3874 15.7893 85.3706 14.9381C85.3706 13.8825 84.9926 13.7397 83.685 13.7397C82.6126 13.7397 81.557 13.7705 80.7842 13.8041L80.675 12.0709C81.8426 11.8805 82.9766 11.7881 84.0966 11.7881C86.6335 11.7881 87.6443 12.3873 87.6443 14.3109L87.6387 14.3053Z" fill="white"/>
<path d="M97.3799 19.1438C97.3799 21.6666 96.7331 23.0526 93.5663 23.0526C90.3994 23.0526 89.5454 21.9018 89.5454 17.5366C89.5454 12.5721 91.0574 11.7993 94.0843 11.7993C94.6051 11.7993 95.6299 11.7993 96.6547 12.0821L96.5287 13.6585C95.7083 13.6277 95.2351 13.6277 94.0843 13.6277C92.5079 13.6277 91.987 14.0365 91.8778 16.4809C92.5387 15.8817 93.2191 15.6913 94.2747 15.6913C96.6715 15.6913 97.3799 16.6686 97.3799 19.1438ZM95.1091 19.1914C95.1091 17.8502 94.8095 17.4414 93.5803 17.4414C92.9503 17.4414 92.5079 17.5842 91.861 18.0098C91.8778 20.6418 92.0178 21.2102 93.5803 21.2102C94.9831 21.2102 95.1091 20.5802 95.1091 19.1914Z" fill="white"/>
<path d="M101.16 13.8489L101.034 15.8201L102.594 16.0105C105.226 16.2933 106.029 17.587 106.029 19.5414C106.029 21.4958 105.273 23.0554 102.23 23.0554C101.236 23.0554 99.9111 22.9294 98.6035 22.7082L98.8247 20.849C99.8495 20.9582 100.874 21.0394 101.63 21.0394C103.268 21.0394 103.616 20.5662 103.649 19.4938C103.711 18.1078 103.033 17.9818 101.112 17.8082L99.7879 17.6514C99.3315 17.6038 98.9983 17.2426 99.0319 16.7694L99.3007 11.9925H105.702L105.623 13.8517H101.163L101.16 13.8489Z" fill="white"/>
<path d="M54.2341 32.4075C53.9541 32.4075 53.8589 32.5699 53.8589 32.7827C53.8589 32.9955 53.9541 33.1663 54.2341 33.1663C54.5141 33.1663 54.6093 32.9955 54.6093 32.7827C54.6093 32.5699 54.5169 32.4075 54.2341 32.4075Z" fill="white"/>
<path d="M53.3326 27.0679H39.8308V26.8047C39.8308 25.9955 40.0436 25.7238 40.7828 25.7238C41.7096 25.7238 42.7569 26.3035 42.7569 26.3035V25.7322C42.7569 25.7322 41.7432 25.161 40.7324 25.161C39.7216 25.161 39.2176 25.5698 39.2176 26.7935V27.0651H37.9744V26.1467H37.3612V27.0651H31.0415V27.5915H31.7051V28.2215C31.7051 28.6051 31.7555 28.9607 32.0019 29.3107L32.0971 29.4563C31.8003 29.6187 31.6547 29.9155 31.6547 30.3411V31.0131C31.6547 31.7355 32.0467 32.0855 32.8195 32.0855H32.9483V31.5311H32.8195C32.3771 31.5311 32.2595 31.3351 32.2595 31.0131V30.3495C32.2595 30.0191 32.3799 29.8315 32.8195 29.8315H33.2619C33.6959 29.8315 33.8415 30.0191 33.8415 30.3663V32.6119H34.4547V27.5943H35.6476C35.4684 27.8323 35.4096 28.0871 35.4096 28.4287C35.4096 28.8627 35.4768 29.1259 35.6476 29.7559C35.8016 30.2991 35.8604 30.5651 35.8604 31.1083C35.8604 31.9511 35.4096 32.6147 35.4096 32.6147H36.0816C36.0816 32.6147 36.482 32.0435 36.482 31.1083C36.482 30.5651 36.44 30.2823 36.2356 29.5515C36.0732 28.9719 36.0228 28.7423 36.0228 28.4287C36.0228 28.0787 36.1068 27.8239 36.3112 27.5943H37.3668V32.6119H37.98V27.5943H39.2232V32.6119H39.8364V27.5943H42.5581C42.4909 27.6867 42.4461 27.8155 42.4461 27.9947V29.7055C42.4461 30.5231 42.8549 30.8199 43.5689 30.8199C43.9861 30.8199 44.1653 30.6659 44.1905 30.6491C44.1905 31.7047 43.9693 32.0855 43.0005 32.0855H42.8997C41.8356 32.0855 41.522 31.6431 41.522 30.6043V28.5715H40.9088V30.6043C40.9088 31.9315 41.3848 32.6371 42.8661 32.6371H43.0033C44.3893 32.6371 44.8065 32.0491 44.8065 30.7667V29.4815H44.1933V29.7027C44.1933 30.0779 44.0897 30.2739 43.6305 30.2739C43.1713 30.2739 43.0705 30.0863 43.0705 29.7195V27.9835C43.0705 27.7035 43.2077 27.5915 43.4541 27.5915H44.1933V28.1011C44.1933 28.6639 44.3977 28.9439 45.0193 28.9439H45.3161C45.6661 28.9439 45.7333 29.0895 45.7333 29.4199V32.7043H46.3465V29.3863C46.3465 28.7227 46.1421 28.4175 45.4533 28.4175H45.1397C44.8597 28.4175 44.8093 28.3251 44.8093 28.0787V27.5943H47.6093C47.3965 27.8323 47.3293 28.1907 47.3293 28.7255V31.2595C47.3293 32.0939 47.6009 32.6287 48.3765 32.6287C48.4437 32.6287 48.4969 32.6287 48.5725 32.6203V32.1023H48.5053C48.0881 32.1023 47.9341 31.9063 47.9341 31.3463V28.4623C47.9341 27.9611 48.0545 27.5943 48.5389 27.5943H50.8098V28.3503H50.2218C49.2949 28.3503 48.9365 28.8011 48.9365 29.5571V30.2543C48.9365 30.9431 49.0653 31.3603 49.7625 31.8447L50.8602 32.6091H51.4118V28.8907H51.829C52.389 28.8907 52.5346 29.1371 52.5346 29.5627V30.7107C52.5346 31.0943 52.4058 31.2539 51.955 31.2539H51.871V31.8251C51.871 31.8251 51.9634 31.8335 52.0166 31.8335C52.7894 31.8335 53.1478 31.4667 53.1478 30.7443V29.5543C53.1478 28.7983 52.7894 28.3475 51.8542 28.3475H51.4118V27.5915H55.8106V28.0843L54.825 28.5351C54.069 28.9103 53.8478 29.1483 53.8478 29.9995V30.2963C53.8478 31.0187 54.0858 31.3603 54.8166 31.8783L55.8722 32.6091H56.407V27.5915H57.1714V27.0651H53.3438L53.3326 27.0679ZM33.8415 29.5011C33.7547 29.3891 33.5531 29.3051 33.2367 29.3051H32.7019L32.5731 29.1091C32.3771 28.8291 32.3183 28.6247 32.3183 28.2243V27.5943H33.8415V29.5011ZM50.8126 31.8923L50.065 31.3491C49.6309 31.0439 49.5385 30.8227 49.5385 30.1423V29.5711C49.5385 29.1455 49.6841 28.8991 50.2442 28.8991H50.7986V31.0355C50.7986 31.3407 50.8238 31.6487 50.8574 31.8783L50.8154 31.8951L50.8126 31.8923ZM55.8246 31.8923L55.0686 31.3295C54.5254 30.9207 54.447 30.7779 54.447 30.1311C54.447 29.4843 54.5142 29.3303 55.0518 29.0671L55.7994 28.7171V31.0299C55.7994 31.3687 55.8246 31.6599 55.8498 31.8727L55.8246 31.8895V31.8923Z" fill="white"/>
<path d="M63.2163 29.9239C63.5215 29.7783 63.6419 29.4311 63.6419 29.0307V28.2131C63.6419 27.4907 63.3087 27.0483 62.4855 27.0483C62.0767 27.0483 61.7967 27.1603 61.6175 27.3535C61.4635 27.1659 61.2003 27.0483 60.7915 27.0483C60.3154 27.0483 60.0606 27.1855 59.915 27.4151C59.7442 27.1939 59.4558 27.0651 58.9882 27.0651H58.4282V27.5915H58.9798C59.5314 27.5915 59.6518 27.8799 59.6518 28.2215V29.0979C59.6518 29.4395 59.4978 29.6411 59.047 29.6411H58.8762V30.1843C58.9098 30.1927 59.0134 30.2011 59.1226 30.2011C59.5398 30.2011 59.7946 30.0639 59.9486 29.8511C60.0942 30.0639 60.349 30.2011 60.7579 30.2011C60.8587 30.2011 61.0043 30.1927 61.0295 30.1843V29.6411H60.8587C60.3827 29.6411 60.237 29.4367 60.237 29.0979V28.2215C60.237 27.8827 60.2538 27.5747 60.8083 27.5747C61.3179 27.5747 61.3683 27.8631 61.3683 28.2047V28.9971H61.9311V28.2243C61.9311 27.8743 61.9899 27.6027 62.4827 27.6027C62.9755 27.6027 63.0259 27.8743 63.0259 28.2243V29.0251C63.0259 29.3555 62.9503 29.6467 62.3791 29.6467H61.6147V30.2011H62.3875C62.9643 30.2011 63.0427 30.4895 63.0427 30.8227V31.3407C63.0427 31.9959 62.6171 32.1499 61.4439 32.1499H61.0939C59.9206 32.1499 59.4614 31.9707 59.4614 31.2903V30.6351H58.8482V31.2903C58.8482 32.3039 59.5286 32.7016 61.0939 32.7016H61.4439C63.0343 32.7016 63.6559 32.3179 63.6559 31.3407V30.8059C63.6559 30.4139 63.5551 30.0751 63.2135 29.9295L63.2163 29.9239Z" fill="white"/>
<path d="M63.9219 27.5943H66.3887V28.0871L65.4031 28.5379C64.6387 28.8963 64.4259 29.1511 64.4259 30.0023V30.2991C64.4259 31.0215 64.6639 31.3631 65.3947 31.8812L66.4503 32.612H66.9851V31.2427C67.1559 31.3715 67.3939 31.4387 67.6991 31.4387C68.5335 31.4387 68.9423 31.0467 68.9423 30.1955V29.5235C68.9423 28.8179 68.6007 28.4343 67.8027 28.4343C67.7439 28.4343 67.6319 28.4427 67.6067 28.4427V28.9775H67.7103C68.1863 28.9775 68.3403 29.1651 68.3403 29.5319V30.1871C68.3403 30.6295 68.1863 30.8759 67.6599 30.8759C67.1839 30.8759 66.9879 30.6547 66.9879 30.2543V27.5915H69.4211V27.0651H63.9275V27.5915L63.9219 27.5943ZM66.4055 31.8812L65.6579 31.3295C65.1147 30.9207 65.0363 30.7779 65.0363 30.1311C65.0363 29.4843 65.0951 29.3219 65.6411 29.0671L66.3887 28.7171V31.0299C66.3887 31.3603 66.4139 31.6516 66.4391 31.8644L66.4055 31.8812Z" fill="white"/>
<path d="M64.7903 32.4075C64.5019 32.4075 64.4067 32.5783 64.4067 32.7911C64.4067 33.0039 64.5019 33.1747 64.7903 33.1747C65.0787 33.1747 65.1739 33.0123 65.1739 32.7911C65.1739 32.5699 65.0787 32.4075 64.7903 32.4075Z" fill="white"/>
<path d="M72.7703 27.0679C71.8939 27.0679 71.4599 27.5271 71.4599 28.2327V29.5347C71.4599 30.2067 71.7903 30.6071 72.5407 30.6071C72.5995 30.6071 72.7199 30.5987 72.7535 30.5987V30.0639H72.6527C72.2019 30.0639 72.0731 29.8511 72.0731 29.5375V28.2355C72.0731 27.9051 72.2355 27.6055 72.7703 27.6055C73.3051 27.6055 73.4843 27.9023 73.4843 28.2355V32.0631H72.6079C72.0199 32.0631 71.8183 31.8755 71.8183 31.2987V30.8899H71.2051V31.3911C71.2051 32.2675 71.6307 32.6147 72.5071 32.6147H74.0975V28.2327C74.0975 27.5271 73.6467 27.0679 72.7703 27.0679Z" fill="white"/>
<path d="M89.114 28.0619C88.2544 28.0619 87.8988 28.5127 87.8988 29.3219V29.9939H88.512V29.3219C88.512 28.9131 88.6044 28.6079 89.1168 28.6079C89.6292 28.6079 89.7132 28.9131 89.7132 29.3219V30.0359C89.7132 30.6155 89.5256 30.8703 88.974 30.8703H87.8428V31.3883L89.4332 33.0376H90.2144L88.5988 31.3883H88.9824C89.9428 31.3883 90.3264 30.9543 90.3264 30.0359V29.3051C90.3264 28.5127 89.9512 28.0619 89.1196 28.0619H89.114Z" fill="white"/>
<path d="M90.3294 27.0679V26.7011C90.3294 25.9282 90.0326 25.5866 89.257 25.5866H88.8314C88.2798 25.5866 88.1594 25.4494 88.1594 24.9566H87.6246C87.6162 25.0406 87.6078 25.119 87.6078 25.1862C87.6078 25.8918 87.9998 26.1047 88.697 26.1047H89.0806C89.5398 26.1047 89.719 26.1887 89.719 26.7263V27.0679H80.5993V26.1495H79.9861V27.0679H78.88V26.1495H78.2668V31.8755L75.9288 30.3523H76.0044C76.9312 30.3523 77.3988 30.0023 77.3988 29.0335V27.0679H76.8192V27.8239C76.8192 28.2747 76.7352 28.5043 76.2228 28.5043C75.7104 28.5043 75.6264 28.2747 75.6264 27.8239V27.0679H75.0132V27.8071C75.0132 28.6499 75.3632 29.0503 76.136 29.0503C76.416 29.0503 76.6456 28.9999 76.8164 28.8711V29.0503C76.8164 29.5935 76.612 29.8595 76.0352 29.8595H75.0132V30.4727L78.3144 32.6175H78.8772V27.5999H79.9832V32.6175H80.5965V27.5999H81.9825C81.7697 27.8379 81.7025 28.1963 81.7025 28.7311V31.2651C81.7025 32.0995 81.9741 32.6343 82.7497 32.6343C82.8169 32.6343 82.8701 32.6343 82.9457 32.6259V32.1079H82.8785C82.4613 32.1079 82.3073 31.9119 82.3073 31.3519V28.4679C82.3073 27.9667 82.4277 27.5999 82.9121 27.5999H86.2805V30.0583C86.2805 30.6379 86.3309 31.0887 86.3729 31.3687L86.3393 31.3771L85.8801 30.2459C85.5217 29.3695 85.1493 28.8599 84.4101 28.8599H84.3429C83.6457 28.8599 83.2705 29.2771 83.2705 30.0499V30.1087C83.2705 30.8311 83.5673 31.2231 84.2841 31.2231C84.3597 31.2231 84.4465 31.2147 84.4885 31.2063V30.6967H84.3513C84.0377 30.6967 83.8753 30.5259 83.8753 30.1003V30.0667C83.8753 29.6495 84.0125 29.4031 84.3765 29.4031H84.4353C84.9281 29.4031 85.0989 29.8035 85.4461 30.6267L86.3141 32.6175H86.8825V27.5999H90.923V27.0735H90.3266L90.3294 27.0679Z" fill="white"/>
</g>
<defs>
<linearGradient id="paint0_linear_1757_86833" x1="3.11659" y1="34.4068" x2="11.1527" y2="-2.5957" gradientUnits="userSpaceOnUse">
<stop stop-color="white"/>
<stop offset="0.46" stop-color="#4DB63F"/>
</linearGradient>
<linearGradient id="paint1_linear_1757_86833" x1="25.9365" y1="15.1061" x2="1.23458" y2="42.2161" gradientUnits="userSpaceOnUse">
<stop stop-color="white"/>
<stop offset="0.46" stop-color="#4DB63F"/>
</linearGradient>
<clipPath id="clip0_1757_86833">
<rect width="106.032" height="33.1748" fill="white"/>
</clipPath>
</defs>
</svg>
