<svg width="678" height="164" viewBox="0 0 678 164" fill="none" xmlns="http://www.w3.org/2000/svg">
<path d="M1.79297 48.0923L13.8189 87.2501C14.0502 88.0032 14.7457 88.5172 15.5335 88.5172H39.6917M1.79297 48.0923L22.0491 22.8699M1.79297 48.0923L39.6917 88.5172M39.6917 88.5172L36.0605 103.878C35.8868 104.612 36.1919 105.377 36.8236 105.79L56.354 118.577M39.6917 88.5172L65.4406 55.0025M39.6917 88.5172H65.4406M22.0491 22.8699L73.343 1.7937M22.0491 22.8699L65.4406 55.0025M22.0491 22.8699L77.917 38.7634M73.343 1.7937L149.467 18.7238M73.343 1.7937L77.917 38.7634M73.343 1.7937L118.43 27.3616M65.4406 55.0025L77.917 38.7634M65.4406 55.0025V88.5172M65.4406 55.0025L80.555 65.3515M77.917 38.7634L80.555 65.3515M77.917 38.7634L118.43 27.3616M77.917 38.7634L128.907 49.6572M149.467 18.7238L174.95 59.4942M149.467 18.7238L128.907 49.6572M149.467 18.7238L154.965 80.9584M118.43 27.3616L128.907 49.6572M174.95 59.4942L181.002 99.5773C181.099 100.216 180.844 100.856 180.337 101.255L158.288 118.577M174.95 59.4942L128.907 49.6572M174.95 59.4942L154.965 80.9584M128.907 49.6572L107.496 81.8712M128.907 49.6572L134.765 74.3512M154.965 80.9584L158.288 118.577M154.965 80.9584L111.895 127.215M154.965 80.9584L134.765 74.3512M158.288 118.577V134.256C158.288 135.007 157.82 135.679 157.114 135.939L129.211 146.218M158.288 118.577L80.555 65.3515M158.288 118.577L129.211 146.218M129.211 146.218L111.895 127.215M129.211 146.218L110.219 144.329C109.153 144.223 108.417 143.211 108.644 142.163L111.895 127.215M129.211 146.218L108.305 144.139C107.791 144.088 107.323 143.817 107.023 143.396L86.0848 114.085M80.555 65.3515L86.0848 114.085M80.555 65.3515L65.4406 88.5172M111.895 127.215L86.0848 114.085M111.895 127.215L107.496 81.8712M86.0848 114.085L56.354 118.577M86.0848 114.085L65.4406 88.5172M86.0848 114.085L107.496 81.8712M107.496 81.8712L134.765 74.3512M56.354 118.577L65.4406 88.5172" stroke="#12A37F" stroke-width="3"/>
<path d="M245.306 67.2619C244.589 67.2619 243.961 67.0153 243.423 66.5221C242.929 65.984 242.683 65.3562 242.683 64.6387V14.7305H247.929V64.6387C247.929 65.3562 247.683 65.984 247.189 66.5221C246.696 67.0153 246.068 67.2619 245.306 67.2619ZM226.742 19.5061C226.024 19.5061 225.441 19.2819 224.993 18.8334C224.545 18.385 224.32 17.8245 224.32 17.1519C224.32 16.4344 224.545 15.8515 224.993 15.4031C225.441 14.9547 226.024 14.7305 226.742 14.7305L263.938 14.7305C264.655 14.7305 265.238 14.9547 265.686 15.4031C266.135 15.8515 266.359 16.4344 266.359 17.1519C266.359 17.8245 266.135 18.385 265.686 18.8334C265.238 19.2819 264.655 19.5061 263.938 19.5061H226.742ZM274.27 52.2626C273.463 52.2626 272.813 52.0159 272.319 51.5227C271.871 51.0294 271.647 50.4017 271.647 49.6394V17.3537C271.647 16.5465 271.871 15.9188 272.319 15.4703C272.813 14.9771 273.463 14.7305 274.27 14.7305C275.032 14.7305 275.638 14.9771 276.086 15.4703C276.579 15.9188 276.826 16.5465 276.826 17.3537V49.6394C276.826 50.4017 276.579 51.0294 276.086 51.5227C275.638 52.0159 275.032 52.2626 274.27 52.2626ZM303.193 67.2619C302.43 67.2619 301.802 67.0153 301.309 66.5221C300.816 66.0288 300.569 65.4235 300.569 64.706V47.2179C300.569 44.4378 300.031 42.1509 298.955 40.3572C297.924 38.5636 296.489 37.2183 294.65 36.3215C292.857 35.4247 290.816 34.9763 288.529 34.9763C286.332 34.9763 284.337 35.4023 282.543 36.2542C280.794 37.1062 279.404 38.2721 278.373 39.7519C277.342 41.2316 276.826 42.9132 276.826 44.7965H273.126C273.216 41.9715 273.978 39.4604 275.413 37.2632C276.848 35.0211 278.754 33.2723 281.131 32.0168C283.507 30.7164 286.153 30.0662 289.068 30.0662C292.251 30.0662 295.099 30.7388 297.61 32.084C300.121 33.3844 302.094 35.3126 303.529 37.8685C305.009 40.4245 305.748 43.5409 305.748 47.2179V64.706C305.748 65.4235 305.502 66.0288 305.009 66.5221C304.515 67.0153 303.91 67.2619 303.193 67.2619ZM274.27 67.2619C273.463 67.2619 272.813 67.0377 272.319 66.5893C271.871 66.0961 271.647 65.4683 271.647 64.706V33.0929C271.647 32.2858 271.871 31.658 272.319 31.2096C272.813 30.7164 273.463 30.4697 274.27 30.4697C275.032 30.4697 275.638 30.7164 276.086 31.2096C276.579 31.658 276.826 32.2858 276.826 33.0929V64.706C276.826 65.4683 276.579 66.0961 276.086 66.5893C275.638 67.0377 275.032 67.2619 274.27 67.2619ZM319.072 67.2619C318.265 67.2619 317.614 67.0377 317.121 66.5893C316.673 66.0961 316.448 65.4459 316.448 64.6387V33.0929C316.448 32.2858 316.673 31.658 317.121 31.2096C317.614 30.7164 318.265 30.4697 319.072 30.4697C319.834 30.4697 320.439 30.7164 320.888 31.2096C321.381 31.658 321.628 32.2858 321.628 33.0929V64.6387C321.628 65.4459 321.381 66.0961 320.888 66.5893C320.439 67.0377 319.834 67.2619 319.072 67.2619ZM319.004 23.4745C318.018 23.4745 317.166 23.1158 316.448 22.3983C315.731 21.6809 315.372 20.8065 315.372 19.7751C315.372 18.6541 315.731 17.7797 316.448 17.1519C317.211 16.4793 318.085 16.143 319.072 16.143C320.013 16.143 320.843 16.4793 321.56 17.1519C322.323 17.7797 322.704 18.6541 322.704 19.7751C322.704 20.8065 322.345 21.6809 321.628 22.3983C320.91 23.1158 320.036 23.4745 319.004 23.4745ZM364.568 67.2619C363.805 67.2619 363.178 67.0153 362.684 66.5221C362.191 66.0288 361.944 65.4235 361.944 64.706V47.2179C361.944 44.4378 361.406 42.1509 360.33 40.3572C359.299 38.5636 357.864 37.2183 356.025 36.3215C354.232 35.4247 352.191 34.9763 349.905 34.9763C347.707 34.9763 345.712 35.4023 343.918 36.2542C342.169 37.1062 340.779 38.2721 339.748 39.7519C338.717 41.2316 338.201 42.9132 338.201 44.7965H334.502C334.591 41.9715 335.354 39.4604 336.789 37.2632C338.223 35.0211 340.129 33.2723 342.506 32.0168C344.882 30.7164 347.528 30.0662 350.443 30.0662C353.626 30.0662 356.474 30.7388 358.985 32.084C361.496 33.3844 363.469 35.3126 364.904 37.8685C366.384 40.4245 367.124 43.5409 367.124 47.2179V64.706C367.124 65.4235 366.877 66.0288 366.384 66.5221C365.891 67.0153 365.285 67.2619 364.568 67.2619ZM335.645 67.2619C334.838 67.2619 334.188 67.0377 333.694 66.5893C333.246 66.0961 333.022 65.4683 333.022 64.706V33.0929C333.022 32.2858 333.246 31.658 333.694 31.2096C334.188 30.7164 334.838 30.4697 335.645 30.4697C336.407 30.4697 337.013 30.7164 337.461 31.2096C337.954 31.658 338.201 32.2858 338.201 33.0929V64.706C338.201 65.4683 337.954 66.0961 337.461 66.5893C337.013 67.0377 336.407 67.2619 335.645 67.2619ZM380.986 54.953L377.825 51.5227L400.828 30.7388C401.366 30.2455 401.927 30.0213 402.51 30.0662C403.093 30.0662 403.631 30.3352 404.124 30.8733C404.617 31.4114 404.841 31.9943 404.797 32.6221C404.797 33.205 404.528 33.7207 403.989 34.1691L380.986 54.953ZM379.304 67.2619C378.542 67.2619 377.914 67.0377 377.421 66.5893C376.973 66.0961 376.748 65.4683 376.748 64.706V17.2864C376.748 16.5241 376.973 15.9188 377.421 15.4703C377.914 14.9771 378.542 14.7305 379.304 14.7305C380.067 14.7305 380.672 14.9771 381.12 15.4703C381.614 15.9188 381.86 16.5241 381.86 17.2864V64.706C381.86 65.4683 381.614 66.0961 381.12 66.5893C380.672 67.0377 380.067 67.2619 379.304 67.2619ZM404.191 66.9256C403.608 67.4189 403.003 67.6207 402.375 67.531C401.747 67.4862 401.209 67.1723 400.761 66.5893L385.761 48.1596L389.394 44.931L404.528 63.5625C404.976 64.1006 405.178 64.6836 405.133 65.3114C405.088 65.8943 404.774 66.4324 404.191 66.9256ZM426.508 67.5983C422.965 67.5983 419.804 66.7911 417.024 65.1768C414.289 63.5177 412.114 61.2757 410.499 58.4507C408.93 55.6257 408.145 52.4419 408.145 48.8995C408.145 45.3122 408.908 42.106 410.432 39.281C411.957 36.456 414.042 34.2364 416.688 32.6221C419.333 30.963 422.382 30.1334 425.835 30.1334C428.571 30.1334 431.082 30.6715 433.369 31.7477C435.7 32.8239 437.741 34.4382 439.489 36.5906C439.983 37.1287 440.162 37.7116 440.027 38.3394C439.893 38.9223 439.512 39.438 438.884 39.8864C438.391 40.2451 437.83 40.3796 437.202 40.29C436.62 40.1554 436.104 39.8191 435.655 39.281C433.055 36.3215 429.781 34.8418 425.835 34.8418C423.324 34.8418 421.104 35.4471 419.176 36.6578C417.293 37.8685 415.813 39.5277 414.737 41.6352C413.706 43.7427 413.19 46.1642 413.19 48.8995C413.19 51.5899 413.75 53.9889 414.872 56.0965C415.993 58.204 417.562 59.8631 419.58 61.0739C421.598 62.2846 423.907 62.8899 426.508 62.8899C428.257 62.8899 429.849 62.6657 431.283 62.2173C432.763 61.7241 434.064 60.9842 435.185 59.9977C435.723 59.5493 436.283 59.3026 436.866 59.2578C437.449 59.2129 437.987 59.3923 438.48 59.7959C439.019 60.2891 439.31 60.8497 439.355 61.4774C439.445 62.1052 439.243 62.6433 438.749 63.0917C435.476 66.0961 431.396 67.5983 426.508 67.5983ZM450.458 44.5947C450.592 41.8146 451.31 39.3259 452.61 37.1287C453.955 34.9314 455.682 33.205 457.789 31.9495C459.941 30.6939 462.318 30.0662 464.919 30.0662C466.982 30.0662 468.573 30.3576 469.694 30.9406C470.816 31.5235 471.242 32.3755 470.972 33.4965C470.793 34.1691 470.479 34.6175 470.031 34.8418C469.627 35.066 469.112 35.1556 468.484 35.1108C467.901 35.066 467.228 35.0211 466.466 34.9763C463.955 34.7521 461.713 35.0211 459.74 35.7834C457.812 36.5009 456.264 37.6219 455.099 39.1465C453.978 40.6711 453.417 42.4872 453.417 44.5947H450.458ZM450.861 67.2619C450.054 67.2619 449.426 67.0377 448.978 66.5893C448.529 66.1409 448.305 65.5131 448.305 64.706V33.0257C448.305 32.2185 448.529 31.5908 448.978 31.1424C449.426 30.6939 450.054 30.4697 450.861 30.4697C451.668 30.4697 452.296 30.6939 452.744 31.1424C453.193 31.5908 453.417 32.2185 453.417 33.0257V64.706C453.417 65.5131 453.193 66.1409 452.744 66.5893C452.296 67.0377 451.668 67.2619 450.861 67.2619ZM483.641 83.2703C483.282 83.2703 482.879 83.1806 482.43 83.0012C480.906 82.3286 480.48 81.2524 481.152 79.7726L502.878 31.8822C503.551 30.4473 504.627 30.0437 506.106 30.6715C507.631 31.2993 508.057 32.3531 507.384 33.8328L485.592 81.7232C485.143 82.7546 484.493 83.2703 483.641 83.2703ZM491.107 66.1185C490.434 66.4324 489.807 66.4996 489.224 66.3203C488.641 66.0961 488.17 65.6477 487.811 64.975L472.812 33.9001C472.498 33.2275 472.453 32.5997 472.677 32.0168C472.902 31.4338 473.35 30.9854 474.023 30.6715C474.695 30.3576 475.323 30.3128 475.906 30.537C476.489 30.7164 476.937 31.1424 477.251 31.815L491.981 62.8899C492.34 63.5625 492.452 64.1903 492.318 64.7733C492.183 65.3562 491.78 65.8046 491.107 66.1185ZM514.997 83.0012C514.19 83.0012 513.539 82.7546 513.046 82.2613C512.598 81.8129 512.374 81.1851 512.374 80.378V48.6304C512.418 45.1328 513.248 41.9939 514.862 39.2138C516.521 36.3888 518.741 34.1691 521.521 32.5548C524.346 30.9406 527.507 30.1334 531.005 30.1334C534.592 30.1334 537.798 30.963 540.624 32.6221C543.449 34.2364 545.668 36.456 547.282 39.281C548.942 42.106 549.771 45.3122 549.771 48.8995C549.771 52.4419 548.964 55.6257 547.35 58.4507C545.78 61.2757 543.628 63.5177 540.893 65.1768C538.157 66.7911 535.063 67.5983 531.61 67.5983C528.606 67.5983 525.871 66.9705 523.404 65.7149C520.983 64.4145 519.032 62.7106 517.553 60.603V80.378C517.553 81.1851 517.306 81.8129 516.813 82.2613C516.364 82.7546 515.759 83.0012 514.997 83.0012ZM531.005 62.8899C533.606 62.8899 535.938 62.2846 538 61.0739C540.063 59.8631 541.677 58.204 542.843 56.0965C544.054 53.9441 544.659 51.5451 544.659 48.8995C544.659 46.209 544.054 43.81 542.843 41.7025C541.677 39.5949 540.063 37.9358 538 36.7251C535.938 35.4695 533.606 34.8418 531.005 34.8418C528.449 34.8418 526.14 35.4695 524.077 36.7251C522.014 37.9358 520.4 39.5949 519.234 41.7025C518.068 43.81 517.485 46.209 517.485 48.8995C517.485 51.5451 518.068 53.9441 519.234 56.0965C520.4 58.204 522.014 59.8631 524.077 61.0739C526.14 62.2846 528.449 62.8899 531.005 62.8899ZM572.531 67.2619C570.154 67.2619 568.024 66.7014 566.141 65.5804C564.302 64.4594 562.845 62.9348 561.769 61.0066C560.693 59.0336 560.155 56.7915 560.155 54.2804V21.3894C560.155 20.6271 560.379 19.9993 560.827 19.5061C561.32 19.0128 561.948 18.7662 562.711 18.7662C563.473 18.7662 564.101 19.0128 564.594 19.5061C565.087 19.9993 565.334 20.6271 565.334 21.3894V54.2804C565.334 56.5673 566.006 58.4506 567.352 59.9304C568.697 61.3653 570.423 62.0828 572.531 62.0828H574.347C575.064 62.0828 575.647 62.3294 576.096 62.8227C576.544 63.3159 576.768 63.9437 576.768 64.706C576.768 65.4683 576.499 66.0961 575.961 66.5893C575.423 67.0377 574.75 67.2619 573.943 67.2619H572.531ZM555.783 36.3215C555.11 36.3215 554.549 36.1197 554.101 35.7162C553.653 35.2677 553.428 34.7297 553.428 34.1019C553.428 33.4293 553.653 32.8912 554.101 32.4876C554.549 32.0392 555.11 31.815 555.783 31.815H572.934C573.607 31.815 574.167 32.0392 574.616 32.4876C575.064 32.8912 575.288 33.4293 575.288 34.1019C575.288 34.7297 575.064 35.2677 574.616 35.7162C574.167 36.1197 573.607 36.3215 572.934 36.3215H555.783ZM584.616 68.3381C583.54 68.3381 582.621 67.957 581.859 67.1947C581.096 66.4324 580.715 65.5131 580.715 64.437C580.715 63.3159 581.096 62.3743 581.859 61.612C582.666 60.8497 583.585 60.4685 584.616 60.4685C585.693 60.4685 586.612 60.8721 587.374 61.6792C588.136 62.4415 588.518 63.3608 588.518 64.437C588.518 65.4683 588.136 66.3876 587.374 67.1947C586.657 67.957 585.737 68.3381 584.616 68.3381ZM599.827 67.2619C599.02 67.2619 598.37 67.0377 597.877 66.5893C597.428 66.0961 597.204 65.4459 597.204 64.6387V33.0929C597.204 32.2858 597.428 31.658 597.877 31.2096C598.37 30.7164 599.02 30.4697 599.827 30.4697C600.59 30.4697 601.195 30.7164 601.643 31.2096C602.137 31.658 602.383 32.2858 602.383 33.0929V64.6387C602.383 65.4459 602.137 66.0961 601.643 66.5893C601.195 67.0377 600.59 67.2619 599.827 67.2619ZM599.76 23.4745C598.774 23.4745 597.922 23.1158 597.204 22.3983C596.487 21.6809 596.128 20.8065 596.128 19.7751C596.128 18.6541 596.487 17.7797 597.204 17.1519C597.966 16.4793 598.841 16.143 599.827 16.143C600.769 16.143 601.599 16.4793 602.316 17.1519C603.078 17.7797 603.46 18.6541 603.46 19.7751C603.46 20.8065 603.101 21.6809 602.383 22.3983C601.666 23.1158 600.792 23.4745 599.76 23.4745ZM630.526 67.5983C626.938 67.5983 623.732 66.7911 620.907 65.1768C618.082 63.5626 615.863 61.3429 614.248 58.5179C612.634 55.6929 611.827 52.4868 611.827 48.8995C611.827 45.2673 612.634 42.0388 614.248 39.2138C615.863 36.3888 618.082 34.1691 620.907 32.5548C623.732 30.9406 626.938 30.1334 630.526 30.1334C634.113 30.1334 637.297 30.9406 640.077 32.5548C642.902 34.1691 645.122 36.3888 646.736 39.2138C648.35 42.0388 649.18 45.2673 649.225 48.8995C649.225 52.4868 648.395 55.6929 646.736 58.5179C645.122 61.3429 642.902 63.5626 640.077 65.1768C637.297 66.7911 634.113 67.5983 630.526 67.5983ZM630.526 62.8899C633.127 62.8899 635.458 62.2846 637.521 61.0739C639.584 59.8631 641.198 58.204 642.364 56.0965C643.53 53.9889 644.113 51.5899 644.113 48.8995C644.113 46.209 643.53 43.81 642.364 41.7025C641.198 39.5501 639.584 37.8685 637.521 36.6578C635.458 35.4471 633.127 34.8418 630.526 34.8418C627.925 34.8418 625.593 35.4471 623.531 36.6578C621.468 37.8685 619.831 39.5501 618.62 41.7025C617.455 43.81 616.872 46.209 616.872 48.8995C616.872 51.5899 617.455 53.9889 618.62 56.0965C619.831 58.204 621.468 59.8631 623.531 61.0739C625.593 62.2846 627.925 62.8899 630.526 62.8899Z" fill="#12A37F"/>
<path d="M233.481 142.595C232.872 142.595 232.369 142.469 231.975 142.218C231.58 141.931 231.383 141.519 231.383 140.981V102.184C231.383 101.682 231.526 101.287 231.813 101C232.136 100.713 232.531 100.57 232.997 100.57H246.18C248.189 100.57 250.019 101.018 251.669 101.915C253.319 102.776 254.646 103.978 255.651 105.52C256.655 107.027 257.158 108.767 257.158 110.74C257.158 112.82 256.602 114.65 255.489 116.228C254.413 117.771 252.996 118.937 251.239 119.726C253.678 120.408 255.633 121.663 257.104 123.493C258.61 125.322 259.364 127.618 259.364 130.38C259.364 132.748 258.826 134.864 257.749 136.73C256.709 138.559 255.256 139.994 253.391 141.035C251.526 142.075 249.391 142.595 246.988 142.595H233.481ZM234.611 139.366H246.988C248.781 139.366 250.36 138.99 251.723 138.236C253.086 137.447 254.162 136.389 254.951 135.062C255.741 133.699 256.135 132.138 256.135 130.38C256.135 128.658 255.741 127.134 254.951 125.806C254.162 124.479 253.086 123.439 251.723 122.686C250.36 121.932 248.781 121.556 246.988 121.556H234.611V139.366ZM234.611 118.327H246.18C248.44 118.327 250.288 117.645 251.723 116.282C253.194 114.883 253.929 113.036 253.929 110.74C253.929 108.516 253.194 106.812 251.723 105.628C250.288 104.408 248.44 103.798 246.18 103.798H234.611V118.327ZM267.805 142.595C267.123 142.595 266.639 142.326 266.352 141.788C266.101 141.25 266.101 140.748 266.352 140.281L282.656 101.7C282.943 100.946 283.463 100.57 284.217 100.57C284.934 100.57 285.454 100.946 285.777 101.7L302.135 140.281C302.422 140.783 302.404 141.304 302.081 141.842C301.759 142.344 301.292 142.595 300.682 142.595C300.324 142.595 300.019 142.523 299.768 142.38C299.552 142.2 299.355 141.931 299.176 141.573L283.356 103.852H285.078L269.311 141.573C269.168 141.931 268.971 142.2 268.719 142.38C268.468 142.523 268.163 142.595 267.805 142.595ZM271.787 132.048L273.078 129.143H295.463L296.7 132.048H271.787ZM314.482 142.595C314.015 142.595 313.621 142.452 313.298 142.165C313.011 141.842 312.868 141.447 312.868 140.981V102.184C312.868 101.718 313.011 101.341 313.298 101.054C313.621 100.731 314.015 100.57 314.482 100.57C314.984 100.57 315.397 100.749 315.719 101.108L343.055 136.676V102.184C343.055 101.718 343.198 101.341 343.485 101.054C343.808 100.731 344.203 100.57 344.669 100.57C345.099 100.57 345.476 100.731 345.799 101.054C346.122 101.341 346.283 101.718 346.283 102.184V140.981C346.283 141.447 346.122 141.842 345.799 142.165C345.476 142.452 345.099 142.595 344.669 142.595C344.418 142.595 344.185 142.559 343.969 142.487C343.79 142.38 343.629 142.254 343.485 142.111L316.096 106.489V140.981C316.096 141.447 315.935 141.842 315.612 142.165C315.325 142.452 314.948 142.595 314.482 142.595ZM380.433 143.133C377.563 143.133 374.854 142.577 372.307 141.465C369.796 140.317 367.572 138.757 365.635 136.784C363.698 134.775 362.173 132.479 361.061 129.896C359.949 127.277 359.393 124.497 359.393 121.556C359.393 118.65 359.931 115.906 361.007 113.323C362.083 110.704 363.572 108.408 365.473 106.435C367.411 104.426 369.653 102.866 372.2 101.754C374.747 100.606 377.491 100.032 380.433 100.032C382.908 100.032 385.257 100.426 387.482 101.216C389.706 102.005 391.786 103.206 393.724 104.821C394.046 105.072 394.208 105.431 394.208 105.897C394.208 106.327 394.064 106.722 393.777 107.081C393.49 107.404 393.096 107.565 392.593 107.565C392.45 107.565 392.307 107.547 392.163 107.511C392.02 107.44 391.876 107.368 391.733 107.296C391.589 107.188 391.428 107.063 391.248 106.919C389.813 105.628 388.181 104.695 386.352 104.121C384.522 103.547 382.549 103.26 380.433 103.26C378.029 103.26 375.751 103.763 373.599 104.767C371.446 105.736 369.545 107.081 367.895 108.803C366.245 110.489 364.953 112.426 364.021 114.614C363.088 116.802 362.622 119.116 362.622 121.556C362.622 124.067 363.088 126.434 364.021 128.658C364.953 130.882 366.227 132.838 367.841 134.524C369.491 136.21 371.393 137.537 373.545 138.506C375.697 139.438 377.993 139.905 380.433 139.905C382.549 139.905 384.522 139.582 386.352 138.936C388.217 138.29 389.957 137.304 391.571 135.976C391.858 135.725 392.199 135.636 392.593 135.707C392.988 135.779 393.329 135.959 393.616 136.246C393.903 136.532 394.046 136.909 394.046 137.375C394.046 137.591 394.028 137.788 393.993 137.967C393.957 138.147 393.849 138.326 393.67 138.506C391.912 140.263 389.867 141.483 387.535 142.165C385.24 142.81 382.872 143.133 380.433 143.133ZM394.046 137.375L390.818 136.676V125.053H381.778C381.311 125.053 380.917 124.91 380.594 124.623C380.307 124.336 380.163 123.977 380.163 123.546C380.163 123.152 380.307 122.829 380.594 122.578C380.917 122.291 381.311 122.147 381.778 122.147H392.432C392.934 122.147 393.329 122.291 393.616 122.578C393.903 122.865 394.046 123.242 394.046 123.708V137.375ZM408.894 142.595C408.464 142.595 408.087 142.452 407.764 142.165C407.441 141.842 407.28 141.447 407.28 140.981V102.184C407.28 101.718 407.441 101.341 407.764 101.054C408.087 100.731 408.464 100.57 408.894 100.57C409.361 100.57 409.737 100.731 410.024 101.054C410.347 101.341 410.508 101.718 410.508 102.184V139.689H432.624C433.126 139.689 433.521 139.833 433.808 140.12C434.095 140.371 434.238 140.712 434.238 141.142C434.238 141.573 434.095 141.931 433.808 142.218C433.521 142.469 433.126 142.595 432.624 142.595H408.894ZM442.703 142.595C442.021 142.595 441.537 142.326 441.25 141.788C440.999 141.25 440.999 140.748 441.25 140.281L457.554 101.7C457.841 100.946 458.361 100.57 459.115 100.57C459.832 100.57 460.352 100.946 460.675 101.7L477.033 140.281C477.32 140.783 477.302 141.304 476.979 141.842C476.657 142.344 476.19 142.595 475.58 142.595C475.222 142.595 474.917 142.523 474.666 142.38C474.45 142.2 474.253 141.931 474.074 141.573L458.254 103.852H459.976L444.209 141.573C444.066 141.931 443.869 142.2 443.618 142.38C443.366 142.523 443.061 142.595 442.703 142.595ZM446.685 132.048L447.976 129.143H470.361L471.598 132.048H446.685ZM489.381 142.595C488.914 142.595 488.52 142.452 488.197 142.165C487.91 141.842 487.766 141.447 487.766 140.981V102.184C487.766 101.682 487.91 101.287 488.197 101C488.52 100.713 488.914 100.57 489.381 100.57H499.066C502.152 100.57 504.968 101.09 507.515 102.13C510.097 103.135 512.322 104.588 514.187 106.489C516.088 108.354 517.541 110.56 518.545 113.107C519.586 115.654 520.106 118.47 520.106 121.556C520.106 124.641 519.586 127.475 518.545 130.057C517.541 132.604 516.088 134.829 514.187 136.73C512.322 138.595 510.097 140.048 507.515 141.088C504.968 142.093 502.152 142.595 499.066 142.595H489.381ZM490.995 139.689H499.066C502.546 139.689 505.613 138.9 508.268 137.322C510.958 135.743 513.057 133.591 514.564 130.865C516.106 128.138 516.877 125.035 516.877 121.556C516.877 118.076 516.106 114.991 514.564 112.3C513.057 109.574 510.958 107.422 508.268 105.843C505.613 104.265 502.546 103.476 499.066 103.476H490.995V139.689ZM534.8 142.595C534.333 142.595 533.939 142.452 533.616 142.165C533.329 141.842 533.185 141.447 533.185 140.981V102.184C533.185 101.718 533.329 101.341 533.616 101.054C533.939 100.731 534.333 100.57 534.8 100.57L560.682 100.57C561.112 100.57 561.489 100.731 561.812 101.054C562.135 101.341 562.296 101.718 562.296 102.184C562.296 102.615 562.135 102.991 561.812 103.314C561.489 103.637 561.112 103.798 560.682 103.798L536.414 103.798V119.941H554.225C554.691 119.941 555.068 120.103 555.355 120.426C555.678 120.713 555.839 121.089 555.839 121.556C555.839 122.022 555.678 122.416 555.355 122.739C555.068 123.062 554.691 123.224 554.225 123.224H536.414V139.366H560.682C561.112 139.366 561.489 139.528 561.812 139.851C562.135 140.174 562.296 140.55 562.296 140.981C562.296 141.447 562.135 141.842 561.812 142.165C561.489 142.452 561.112 142.595 560.682 142.595H534.8ZM587.15 143.133C584.89 143.133 582.809 142.828 580.908 142.218C579.043 141.573 577.428 140.676 576.065 139.528C574.702 138.344 573.626 136.963 572.837 135.385C572.621 134.954 572.603 134.542 572.783 134.147C572.998 133.752 573.339 133.483 573.805 133.34C574.2 133.196 574.594 133.214 574.989 133.394C575.384 133.573 575.689 133.86 575.904 134.255C576.549 135.402 577.393 136.407 578.433 137.268C579.509 138.129 580.765 138.792 582.2 139.259C583.67 139.689 585.32 139.905 587.15 139.905C589.195 139.905 590.953 139.564 592.423 138.882C593.93 138.201 595.078 137.196 595.867 135.869C596.692 134.542 597.105 132.927 597.105 131.026C597.105 128.658 596.244 126.667 594.522 125.053C592.836 123.403 590.253 122.345 586.773 121.878C582.756 121.304 579.617 120.013 577.357 118.004C575.097 115.959 573.967 113.484 573.967 110.578C573.967 108.462 574.487 106.614 575.527 105.036C576.603 103.458 578.092 102.238 579.993 101.377C581.93 100.48 584.155 100.032 586.666 100.032C588.531 100.032 590.253 100.337 591.831 100.946C593.41 101.556 594.791 102.363 595.975 103.368C597.159 104.336 598.073 105.359 598.719 106.435C598.97 106.83 599.024 107.26 598.88 107.726C598.773 108.157 598.486 108.462 598.019 108.641C597.625 108.785 597.23 108.803 596.836 108.695C596.441 108.552 596.118 108.3 595.867 107.942C595.365 107.188 594.719 106.453 593.93 105.736C593.141 105.018 592.154 104.426 590.97 103.96C589.787 103.493 588.352 103.26 586.666 103.26C583.724 103.26 581.41 103.924 579.724 105.251C578.038 106.579 577.195 108.462 577.195 110.901C577.195 112.193 577.536 113.376 578.218 114.453C578.935 115.493 580.047 116.39 581.554 117.143C583.06 117.896 584.98 118.47 587.311 118.865C591.939 119.654 595.257 121.089 597.266 123.17C599.311 125.215 600.333 127.833 600.333 131.026C600.333 132.891 600.01 134.577 599.365 136.084C598.755 137.591 597.858 138.864 596.674 139.905C595.526 140.945 594.145 141.752 592.531 142.326C590.917 142.864 589.123 143.133 587.15 143.133ZM615.287 142.595C614.821 142.595 614.426 142.452 614.103 142.165C613.816 141.842 613.673 141.447 613.673 140.981V102.184C613.673 101.718 613.816 101.341 614.103 101.054C614.426 100.731 614.821 100.57 615.287 100.57C615.753 100.57 616.13 100.731 616.417 101.054C616.74 101.341 616.901 101.718 616.901 102.184V119.941L644.075 119.941V102.184C644.075 101.718 644.219 101.341 644.506 101.054C644.828 100.731 645.223 100.57 645.689 100.57C646.12 100.57 646.496 100.731 646.819 101.054C647.142 101.341 647.304 101.718 647.304 102.184V140.981C647.304 141.447 647.142 141.842 646.819 142.165C646.496 142.452 646.102 142.595 645.636 142.595C645.205 142.595 644.828 142.452 644.506 142.165C644.219 141.842 644.075 141.447 644.075 140.981V122.847L616.901 122.847V140.981C616.901 141.447 616.74 141.842 616.417 142.165C616.13 142.452 615.753 142.595 615.287 142.595Z" fill="#12A37F"/>
</svg>
