<svg width="96" height="96" viewBox="0 0 96 96" fill="none" xmlns="http://www.w3.org/2000/svg">
<path d="M43.4219 42.1629L43.4093 42.2066L34.6964 70.4359H29.2884C28.913 70.3983 28.5499 70.3607 28.1993 70.3107C25.1635 69.9288 23.1293 69.1652 23.1293 68.1574L20.8635 47.5395L19.0547 42.1629H43.4219Z" fill="#E4E5E6"/>
<path d="M43.3529 42.3945L41.9697 46.87L34.6964 70.436H29.2884C28.913 70.3984 28.5499 70.3608 28.1993 70.3108C25.1635 69.9289 23.1293 69.1653 23.1293 68.1575L20.8635 47.5396L20.3001 45.8621L19.4615 43.371L19.0547 42.163H42.7521L43.3529 42.3945Z" fill="#E4E5E6"/>
<path d="M44.3669 40.3038L43.4092 42.2067L34.6962 70.436H29.2883C28.9129 70.3984 28.5498 70.3608 28.1992 70.3108L38.6147 45.0047L39.7788 42.1629L41.0495 39.0834C41.281 39.1397 41.5001 39.2023 41.713 39.2648L44.3669 40.3038Z" fill="#D4D4D4"/>
<path d="M42.323 39.5025C43.4239 39.8978 43.935 41.1619 43.4092 42.2067C42.7421 43.5289 41.4989 44.4664 40.0443 44.7441L39.0402 44.9358C38.9026 44.9609 38.7586 44.9797 38.6147 45.0048C36.7118 45.2989 34.5336 45.4742 32.205 45.4742C29.7765 45.4742 26.4091 45.0986 26.4091 45.0986C25.1634 44.9296 24.0306 44.7043 23.0478 44.4351C20.8696 43.853 19.4174 43.0518 19.1045 42.163C19.0606 42.0441 19.042 41.9188 19.042 41.7999C19.042 39.7719 24.9319 38.1321 32.2051 38.1321C35.6102 38.1321 38.7361 38.4107 41.0495 39.0835C41.4616 39.2034 41.9021 39.3514 42.323 39.5025Z" fill="white"/>
<path d="M43.6096 41.4057C43.6032 41.6748 43.5407 41.9502 43.4093 42.2067C43.0713 42.864 42.5955 43.4335 42.0197 43.8655C41.4438 44.3037 40.7679 44.6041 40.0417 44.7418L39.0403 44.9358C38.9026 44.9609 38.7587 44.9797 38.6147 45.0048C36.7119 45.2989 34.5337 45.4742 32.2051 45.4742C31.9047 45.4742 31.5854 45.4678 31.2662 45.4554C33.1128 45.4053 34.8466 45.2425 36.3926 45.0048C36.5366 44.9797 36.6805 44.9609 36.8182 44.9358L37.8198 44.7418C38.5521 44.6041 39.1528 44.1939 39.7977 43.8655C39.8121 43.8582 39.8265 43.8507 39.8407 43.8431C41.3261 43.0484 40.8031 40.7857 39.128 40.6073C37.671 40.452 36.0914 40.3666 34.4397 40.3666C27.3918 40.3666 21.6333 41.9126 21.2952 43.853C19.8681 43.2709 19.042 42.5573 19.042 41.7999C19.042 39.8595 24.4186 38.2761 31.2475 38.1446C31.5605 38.1382 31.8796 38.1321 32.2051 38.1321C32.4618 38.1321 32.7184 38.1321 32.9749 38.1382C33.1816 38.1382 33.3819 38.1446 33.5883 38.1508C36.4489 38.2134 39.0528 38.5076 41.0495 39.0835C41.0683 39.0896 41.0871 39.0959 41.1059 39.1022C41.3123 39.1523 41.5189 39.2085 41.713 39.2649L42.3201 39.5028C43.1463 39.797 43.647 40.592 43.6096 41.4057Z" fill="#D4D4D4"/>
<path d="M24.2019 54.9404C23.7202 54.9404 23.3102 54.572 23.2675 54.083L22.9118 49.9997C22.8669 49.4832 23.2491 49.0279 23.7657 48.9829C24.2824 48.9375 24.7375 49.3201 24.7825 49.8368L25.1383 53.9201C25.1832 54.4366 24.801 54.8918 24.2844 54.9369C24.2567 54.9393 24.2292 54.9404 24.2019 54.9404Z" fill="white"/>
<path d="M75.2996 38.2323C75.2996 39.8346 70.7679 41.1365 65.1785 41.1365C59.6014 41.1365 55.076 39.841 55.0635 38.2386V38.2323C55.0635 38.0946 55.0948 37.9693 55.1575 37.8379C55.1637 37.8379 55.1637 37.8318 55.1637 37.8318C57.054 29.92 59.8205 26.5025 59.8205 26.5025H70.5613C70.5613 26.5025 73.3405 29.9388 75.2369 37.9068C75.2369 37.9131 75.2432 37.9131 75.2432 37.9194C75.2557 37.9883 75.2745 38.0633 75.2933 38.1383C75.2933 38.1447 75.2933 38.1447 75.2933 38.1509C75.2996 38.1759 75.2996 38.2072 75.2996 38.2323Z" fill="#E4E5E6"/>
<path d="M76.9586 54.0305C76.9586 58.4933 76.6331 63.5571 75.8195 69.2719C75.8195 70.8678 71.3816 71.6691 65.717 71.6691C65.2663 71.6691 64.8344 71.6691 64.4214 71.6628C64.2649 71.6565 64.1145 71.6565 63.9645 71.6503C63.8329 71.6503 63.714 71.6503 63.5889 71.644C58.4938 71.5251 56.0653 70.9867 54.9198 70.5363C54.3126 70.2983 53.9121 69.71 53.9121 69.059V45.9316C53.9121 45.3184 53.9457 44.703 54.0243 44.0948C54.3047 41.9247 54.6625 39.9754 55.0637 38.2385C55.0762 39.8409 59.6017 41.1364 65.1787 41.1364C67.7888 41.1364 70.1736 40.8548 71.9699 40.3791C74.0167 39.8534 75.2999 39.0835 75.2999 38.2322C75.2999 38.2071 75.2999 38.1758 75.2936 38.1508C75.4188 38.6766 75.5377 39.2211 75.6505 39.7845C75.7006 40.0411 75.7506 40.3039 75.8007 40.5732C75.9071 41.1427 76.0071 41.7248 76.1011 42.3258C76.1387 42.5698 76.1761 42.8201 76.2137 43.0769C76.2451 43.2896 76.2764 43.5087 76.3014 43.7279C76.3577 44.1221 76.4078 44.5228 76.4579 44.9296C76.6832 46.8951 76.8459 49.0294 76.9148 51.3453C76.9274 51.6332 76.9335 51.9274 76.9399 52.2154V52.228C76.946 52.522 76.9524 52.8163 76.9524 53.1168C76.9586 53.4171 76.9586 53.7238 76.9586 54.0305Z" fill="#89CF6E"/>
<path d="M76.8147 59.3071C76.6457 62.3804 76.3266 65.6978 75.8196 69.272C75.8196 70.8679 71.3817 71.6692 65.717 71.6692C59.1448 71.6692 56.2155 71.0432 54.9198 70.5364C54.3126 70.2984 53.9121 69.7101 53.9121 69.0591V61.7734L62.0178 62.3743C63.0131 62.4556 64.0709 62.4932 65.16 62.4932C71.5069 62.4932 76.7397 61.066 76.8147 59.3071Z" fill="#E4E5E6"/>
<path d="M76.9586 54.0305C76.9586 58.4933 76.6331 63.5571 75.8195 69.2719C75.8195 70.8679 71.3816 71.6691 65.717 71.6691C64.9596 71.6691 64.2524 71.6628 63.5889 71.644C68.4398 71.5001 72.0263 70.7051 72.0263 69.2719C72.8338 63.5634 73.1656 58.5059 73.1656 54.0494C73.1656 34.414 66.7622 26.5023 66.7622 26.5023H70.5616C70.5616 26.5023 76.9586 34.4077 76.9586 54.0305Z" fill="#D4D4D4"/>
<path d="M76.9588 54.0304C76.9588 55.7016 76.9151 57.4605 76.8149 59.3069C76.7773 60.2521 75.25 61.0971 72.8591 61.6855C73.0718 58.9627 73.1658 56.4214 73.1658 54.0492C73.1658 48.6223 72.6776 44.0908 71.9702 40.3789C74.017 39.8533 75.3002 39.0834 75.3002 38.2321C75.3002 38.207 75.3002 38.1757 75.2939 38.1506C75.4191 38.6764 75.5379 39.2209 75.6507 39.7843C75.7008 40.0409 75.7508 40.3038 75.8009 40.573C75.9073 41.1425 76.0074 41.7246 76.1014 42.3256C76.139 42.5697 76.1764 42.82 76.214 43.0767C76.2453 43.2894 76.2766 43.5086 76.3017 43.7277C76.3579 44.122 76.4081 44.5226 76.4582 44.9294C76.6834 46.8949 76.8462 49.0293 76.9151 51.3452C76.9276 51.6331 76.9337 51.9272 76.9402 52.2153V52.2278C76.9463 52.5219 76.9527 52.8223 76.9527 53.1166C76.9588 53.417 76.9588 53.7237 76.9588 54.0304ZM59.9746 24.1892V26.7269C59.9746 27.5495 62.3656 28.2163 65.3152 28.2163C68.2647 28.2163 70.6557 27.5495 70.6557 26.7269V24.1892H59.9746Z" fill="#6DBF4D"/>
<path d="M65.3148 20.0129C69.1491 20.0129 72.2575 19.1855 72.2575 18.1648C72.2575 17.144 69.1491 16.3166 65.3148 16.3166C61.4804 16.3166 58.3721 17.144 58.3721 18.1648C58.3721 19.1855 61.4804 20.0129 65.3148 20.0129Z" fill="#89CF6E"/>
<path d="M58.3721 18.4288V23.2678C58.3721 24.3372 61.4804 25.2041 65.3148 25.2041C69.1491 25.2041 72.2575 24.3372 72.2575 23.2678V18.4288H58.3721Z" fill="#89CF6E"/>
<path d="M72.2582 18.165C72.2582 19.1853 69.1473 20.0114 65.3167 20.0114C64.7658 20.0114 64.2276 19.9928 63.708 19.9613C66.7689 19.7674 69.0409 19.0349 69.0409 18.165C69.0409 17.295 66.7689 16.5626 63.708 16.3686C64.2276 16.3373 64.7658 16.3185 65.3167 16.3185C69.1473 16.3185 72.2582 17.1446 72.2582 18.165Z" fill="#6DBF4D"/>
<path d="M72.2582 18.4279V23.2663C72.2582 24.3366 69.1472 25.2066 65.3166 25.2066C64.7657 25.2066 64.2275 25.1878 63.708 25.1502C66.7688 24.95 69.0409 24.1801 69.0409 23.2663V18.4279H72.2582ZM69.4503 53.5416C69.4503 55.3356 67.9795 56.79 66.1651 56.79C64.3507 56.79 62.8799 55.3356 62.8799 53.5416C62.8799 50.4655 66.1651 47.778 66.1651 47.778C66.1651 47.778 69.4503 50.5184 69.4503 53.5416Z" fill="#6DBF4D"/>
<path d="M68.4715 52.5632C68.4715 54.3572 67.0007 55.8115 65.1863 55.8115C63.3719 55.8115 61.9011 54.3572 61.9011 52.5632C61.9011 49.4871 65.1863 46.7996 65.1863 46.7996C65.1863 46.7996 68.4715 49.54 68.4715 52.5632ZM56.5448 48.4453C56.0691 48.3694 55.7223 47.9409 55.7573 47.4513L56.0497 43.363C56.0868 42.8458 56.536 42.4566 57.0533 42.4935C57.5707 42.5301 57.9597 42.9797 57.9228 43.497L57.6303 47.5854C57.5933 48.1025 57.1441 48.4918 56.6268 48.4549C56.5991 48.4529 56.5718 48.4496 56.5448 48.4453Z" fill="white"/>
<path d="M55.1575 37.8376C55.1261 37.9691 55.0948 38.0944 55.0635 38.2321C55.0635 38.0944 55.0948 37.9691 55.1575 37.8376Z" fill="white"/>
<path d="M30.3802 71.5932L28.9668 74.427C34.0405 77.7289 40.3322 79.6833 47.1468 79.6833C53.6299 79.6833 59.6398 77.9144 64.5779 74.8992L63.084 71.8503L30.3802 71.5932Z" fill="#FF8D29"/>
<path d="M51.5671 42.3522L47.112 30.9405L34.6007 61.3547L34.597 61.4575C35.2523 61.8859 35.6846 62.6211 35.6846 63.456C35.6846 64.7783 34.6005 65.8502 33.2632 65.8502C33.096 65.8502 32.9328 65.8334 32.7752 65.8015L32.7528 65.8468L30.3037 71.8004C34.9946 74.7469 40.8116 76.491 47.112 76.491C53.106 76.491 58.6625 74.9125 63.228 72.2218L59.6021 62.9341L59.5409 62.9391C59.1546 63.1006 58.73 63.19 58.2842 63.19C56.5011 63.19 55.0557 61.7608 55.0557 59.9977C55.0557 58.5938 55.9723 57.4015 57.246 56.9741L57.2559 56.9241L53.3343 46.8789L53.2852 46.9207C52.9339 47.1168 52.5283 47.2287 52.0962 47.2287C50.7589 47.2287 49.6748 46.1568 49.6748 44.8345C49.6748 43.6954 50.4794 42.7421 51.5573 42.4999L51.5671 42.3522Z" fill="#FFAD31"/>
<path d="M63.2264 72.2199C61.7993 73.0648 60.2721 73.7972 58.6697 74.4043L45.2373 35.4968L47.1151 30.94L51.5655 42.3506L51.5592 42.501C50.4827 42.745 49.6752 43.6964 49.6752 44.8356C49.6752 46.1563 50.758 47.2266 52.0975 47.2266C52.5295 47.2266 52.9362 47.1139 53.2868 46.9199L53.3368 46.876L57.2551 56.9223L57.2488 56.9723C55.9721 57.4041 55.0581 58.5935 55.0581 59.9955C55.0581 61.7607 56.504 63.1877 58.2817 63.1877C58.7323 63.1877 59.1517 63.1001 59.5398 62.9374L59.6023 62.9311L63.2264 72.2199Z" fill="#FF8D29"/>
<path d="M38.4749 58.4515C38.3559 58.4515 38.2349 58.4287 38.1181 58.3806C37.6386 58.1833 37.4097 57.6347 37.607 57.1551L39.4811 52.5993C39.6782 52.1196 40.2276 51.8901 40.7065 52.0881C41.186 52.2854 41.4149 52.834 41.2177 53.3136L39.3435 57.8694C39.1944 58.2322 38.8441 58.4515 38.4749 58.4515Z" fill="#FFE8C4"/>
<path d="M45.0211 49.0561C45.906 49.0561 46.6233 48.3468 46.6233 47.4719C46.6233 46.597 45.906 45.8878 45.0211 45.8878C44.1363 45.8878 43.4189 46.597 43.4189 47.4719C43.4189 48.3468 44.1363 49.0561 45.0211 49.0561Z" fill="white"/>
<path d="M47.9581 56.4488C48.9904 56.4488 49.8273 55.6213 49.8273 54.6006C49.8273 53.5799 48.9904 52.7524 47.9581 52.7524C46.9257 52.7524 46.0889 53.5799 46.0889 54.6006C46.0889 55.6213 46.9257 56.4488 47.9581 56.4488Z" fill="white"/>
<path d="M43.6855 64.3697C45.0127 64.3697 46.0887 63.3058 46.0887 61.9934C46.0887 60.681 45.0127 59.6172 43.6855 59.6172C42.3582 59.6172 41.2822 60.681 41.2822 61.9934C41.2822 63.3058 42.3582 64.3697 43.6855 64.3697Z" fill="white"/>
<path d="M51.6963 71.2345C52.7286 71.2345 53.5654 70.407 53.5654 69.3863C53.5654 68.3655 52.7286 67.5381 51.6963 67.5381C50.664 67.5381 49.8271 68.3655 49.8271 69.3863C49.8271 70.407 50.664 71.2345 51.6963 71.2345Z" fill="white"/>
</svg>
