<svg width="96" height="96" viewBox="0 0 96 96" fill="none" xmlns="http://www.w3.org/2000/svg">
<path d="M40.4233 30.9891C39.8356 33.1386 39.3819 35.2335 39.0371 37.2509C39.0371 37.2509 37.7004 50.2142 38.0339 58.5675C38.1178 60.6703 39.4578 62.521 41.429 63.2582C44.3299 64.3432 49.36 65.6098 57.0339 65.6098C66.8325 65.6098 74.7758 63.2887 74.7758 60.4255C74.7758 60.4255 78.0631 47.0756 73.4631 30.6277L40.4233 30.9891Z" fill="#E4E5E6"/>
<path d="M74.771 60.4272C74.771 63.2869 66.8272 65.6098 57.0317 65.6098C55.9031 65.6098 54.8347 65.5824 53.8213 65.533C62.165 65.1112 68.5091 62.9857 68.5091 60.4272C68.5091 60.4272 71.7907 47.1148 67.2161 30.6907L73.4615 30.625C78.058 47.0765 74.771 60.4272 74.771 60.4272Z" fill="#D4D4D4"/>
<path d="M44.3286 21.4338C42.63 22.1362 41.0907 23.4254 39.914 25.4729C39.2384 26.6483 38.7793 28.2322 38.7793 28.2322C38.5741 28.7763 38.6351 29.3946 38.9822 29.863L38.6611 29.0649C38.6611 31.5663 46.7279 33.5942 56.6787 33.5942C66.6296 33.5942 74.6963 31.5663 74.6963 29.0649L74.3706 29.863C74.7177 29.3946 74.7787 28.7763 74.5735 28.2322C74.5735 28.2322 74.1144 26.6483 73.4388 25.4729C72.2621 23.4254 70.7228 22.1362 69.0242 21.4338H44.3286Z" fill="#E4E5E6"/>
<path d="M38.6885 28.9541L38.9843 29.6992C38.8201 29.48 38.7214 29.2225 38.6885 28.9541ZM68.4912 29.6992L68.7926 28.9706C68.7542 29.228 68.6556 29.48 68.4912 29.6992Z" fill="#D4D4D4"/>
<path d="M74.6991 29.0634C74.6991 31.5669 66.6347 33.5938 56.6802 33.5938C55.6775 33.5938 54.697 33.5719 53.7436 33.5282C62.2957 33.183 68.8206 31.315 68.8206 29.0634L68.7933 29.1292C68.8426 28.8334 68.8043 28.5212 68.6946 28.2307C68.6946 28.2307 68.2345 26.6476 67.5607 25.4698C66.3827 23.4265 64.8433 22.1336 63.1449 21.4324H69.0289C70.7271 22.1336 72.2667 23.4265 73.4446 25.4698C74.1185 26.6476 74.5786 28.2307 74.5786 28.2307C74.6881 28.5212 74.721 28.8334 74.6718 29.1292L74.6991 29.0634ZM38.6885 28.9539L38.9843 29.699C38.8201 29.4798 38.7214 29.2223 38.6885 28.9539Z" fill="#D4D4D4"/>
<path d="M68.7906 28.971C68.7522 29.2283 68.6536 29.4802 68.4893 29.6992L68.7906 28.971Z" fill="#D4D4D4"/>
<path d="M41.6314 40.6521C41.6003 40.6521 41.569 40.6502 41.5374 40.6468C41.0865 40.5953 40.7626 40.1881 40.8139 39.7372C41.046 37.7002 41.4077 35.6801 41.8891 33.7328C41.998 33.2922 42.4437 33.0231 42.8839 33.1324C43.3244 33.2412 43.5932 33.6867 43.4842 34.1273C43.0198 36.0063 42.6708 37.9562 42.4468 39.9232C42.3989 40.3426 42.0436 40.6521 41.6314 40.6521Z" fill="white"/>
<path d="M59.7068 41.0842C59.7068 41.0842 58.9905 39.4456 59.7673 36.9109C59.7673 36.9109 62.0198 39.1384 60.777 42.0571L59.7068 41.0842ZM60.6217 42.4412C60.6217 42.4412 57.5923 43.0557 55.4951 41.2891C55.4951 41.2891 57.5923 40.4442 59.5342 40.9818L60.6217 42.4412ZM62.2528 43.9774C62.2528 43.9774 62.1406 42.0828 63.6941 40.1625C63.6941 40.1625 65.2045 42.7484 63.418 45.3599L62.2528 43.9774ZM65.0137 47.2955C65.0137 47.2955 65.2021 45.0322 67.2154 43.1325C67.2154 43.1325 68.473 46.3692 66.0967 49.0011L65.0137 47.2955Z" fill="#D4D4D4"/>
<path d="M64.6113 47.5002C64.6113 47.5002 62.4374 47.2141 60.1748 48.8162C60.1748 48.8162 63.0466 50.6883 66.1043 48.8699L64.6113 47.5002ZM67.0978 51.0941C67.0978 51.0941 64.4946 50.8442 61.9355 52.6563C61.9355 52.6563 65.328 54.7 68.7864 52.6433L67.0978 51.0941Z" fill="#D4D4D4"/>
<path d="M67.4339 50.8198C67.4339 50.8198 67.7817 47.8743 70.1695 45.8465C70.1695 45.8465 71.3967 49.9762 68.555 52.8097L67.4339 50.8198ZM62.0663 44.1405C62.0663 44.1405 60.1399 43.7937 58.0521 45.1296C58.0521 45.1296 60.5338 46.9213 63.3406 45.4254L62.0663 44.1405ZM63.8087 39.4562C63.5062 39.4562 63.2609 39.2109 63.2609 38.9083C63.2609 38.8994 63.2598 37.9897 63.1844 36.8715C63.1641 36.5696 63.3922 36.3084 63.6941 36.2879C63.9989 36.2683 64.2573 36.4959 64.2776 36.7976C64.3556 37.955 64.3565 38.8699 64.3565 38.9083C64.3565 39.2109 64.1113 39.4562 63.8087 39.4562ZM57.0163 45.6783C56.8421 45.6783 56.4096 45.6499 55.4603 45.4623C55.1634 45.4037 54.9704 45.1155 55.0291 44.8187C55.0877 44.522 55.3756 44.3285 55.6727 44.3875C56.6929 44.5892 57.0077 44.5821 57.0228 44.5826C57.3185 44.5757 57.5756 44.8037 57.5916 45.1004C57.6077 45.3969 57.3908 45.6521 57.0946 45.6757C57.0784 45.6771 57.0532 45.6783 57.0163 45.6783ZM67.5058 42.4516C67.4467 42.4516 67.3865 42.442 67.3275 42.4217C67.0418 42.3233 66.8898 42.0123 66.9874 41.7264C66.9945 41.7051 67.2223 41.0072 67.2223 39.9837C67.2223 39.6811 67.4676 39.4358 67.7701 39.4358C68.0726 39.4358 68.3179 39.6811 68.3179 39.9837C68.3179 41.2132 68.0358 42.047 68.0238 42.0819C67.9457 42.309 67.7332 42.4516 67.5058 42.4516ZM58.6569 49.4668C58.376 49.4668 57.8084 49.4286 57.1601 49.1722C56.8787 49.0609 56.7409 48.7426 56.8521 48.4613C56.9633 48.1798 57.2815 48.0421 57.563 48.1533C58.2024 48.4062 58.7385 48.3689 58.7439 48.3689C59.0471 48.3428 59.3105 48.5671 59.336 48.8684C59.3616 49.1699 59.138 49.435 58.8365 49.4605C58.816 49.4623 58.7535 49.4668 58.6569 49.4668Z" fill="#D4D4D4"/>
<path d="M70.5403 56.0925C70.3617 56.0925 70.1867 56.0056 70.0816 55.8451C66.4065 50.2422 62.2683 44.8305 57.782 39.7605C57.5815 39.5339 57.6028 39.1876 57.8294 38.9871C58.056 38.7866 58.4023 38.808 58.6028 39.0345C63.1236 44.1437 67.2939 49.5975 70.9978 55.2443C71.1638 55.4972 71.0932 55.8368 70.8401 56.0028C70.7476 56.0635 70.6432 56.0925 70.5403 56.0925ZM60.6779 53.2445H58.8082C58.5057 53.2445 58.2603 52.9992 58.2603 52.6967C58.2603 52.3942 58.5057 52.1489 58.8082 52.1489H60.6779C60.9805 52.1489 61.2258 52.3942 61.2258 52.6967C61.2258 52.9992 60.9805 53.2445 60.6779 53.2445ZM70.5707 45.4229C70.5135 45.4229 70.4553 45.4138 70.3979 45.3948C70.111 45.2996 69.9556 44.9897 70.0503 44.7026C70.0528 44.6953 70.2962 43.9495 70.2962 43.1837C70.2962 42.8811 70.5415 42.6358 70.844 42.6358C71.1466 42.6358 71.3919 42.8811 71.3919 43.1837C71.3919 44.1321 71.1024 45.0114 71.0901 45.0484C71.0136 45.2779 70.8 45.4229 70.5707 45.4229Z" fill="#D4D4D4"/>
<path d="M59.0506 41.0842C59.0506 41.0842 58.3342 39.4456 59.111 36.9109C59.111 36.9109 61.3636 39.1384 60.1208 42.0571L59.0506 41.0842ZM59.9654 42.4412C59.9654 42.4412 56.9361 43.0557 54.8389 41.2891C54.8389 41.2891 56.9361 40.4442 58.878 40.9818L59.9654 42.4412ZM61.5966 43.9774C61.5966 43.9774 61.4844 42.0828 63.0379 40.1625C63.0379 40.1625 64.5483 42.7484 62.7617 45.3599L61.5966 43.9774ZM64.3575 47.2955C64.3575 47.2955 64.5459 45.0322 66.5592 43.1325C66.5592 43.1325 67.8168 46.3692 65.4405 49.0011L64.3575 47.2955Z" fill="#FFAD31"/>
<path d="M63.955 47.5002C63.955 47.5002 61.7812 47.2141 59.5186 48.8162C59.5186 48.8162 62.3903 50.6883 65.448 48.8699L63.955 47.5002ZM66.4415 51.0941C66.4415 51.0941 63.8384 50.8442 61.2793 52.6563C61.2793 52.6563 64.6718 54.7 68.1302 52.6433L66.4415 51.0941Z" fill="#FFAD31"/>
<path d="M66.778 50.8198C66.778 50.8198 67.1258 47.8743 69.5137 45.8465C69.5137 45.8465 70.7409 49.9762 67.8992 52.8097L66.778 50.8198ZM61.4102 44.1405C61.4102 44.1405 59.4838 43.7937 57.3959 45.1296C57.3959 45.1296 59.8778 46.9213 62.6846 45.4254L61.4102 44.1405ZM63.1527 39.4562C62.8502 39.4562 62.6049 39.2109 62.6049 38.9083C62.6049 38.8994 62.6038 37.9897 62.5284 36.8715C62.5081 36.5696 62.7362 36.3084 63.0381 36.2879C63.3429 36.2683 63.6013 36.4959 63.6217 36.7976C63.6996 37.955 63.7006 38.8699 63.7006 38.9083C63.7006 39.2109 63.4553 39.4562 63.1527 39.4562ZM56.36 45.6783C56.1859 45.6783 55.7534 45.6499 54.804 45.4623C54.5071 45.4037 54.3141 45.1155 54.3728 44.8187C54.4314 44.522 54.7194 44.3285 55.0164 44.3875C56.0367 44.5892 56.3515 44.5821 56.3666 44.5826C56.6624 44.5757 56.9194 44.8037 56.9355 45.1004C56.9515 45.3969 56.7346 45.6521 56.4385 45.6757C56.4222 45.6771 56.397 45.6783 56.36 45.6783ZM66.8499 42.4516C66.7908 42.4516 66.7306 42.442 66.6717 42.4217C66.386 42.3233 66.2339 42.0123 66.3315 41.7264C66.3386 41.7051 66.5664 41.0072 66.5664 39.9837C66.5664 39.6811 66.8117 39.4358 67.1142 39.4358C67.4167 39.4358 67.6621 39.6811 67.6621 39.9837C67.6621 41.2132 67.38 42.047 67.3679 42.0819C67.2899 42.309 67.0773 42.4516 66.8499 42.4516ZM58.0007 49.4668C57.7199 49.4668 57.1522 49.4286 56.504 49.1722C56.2226 49.0609 56.0846 48.7426 56.1959 48.4613C56.3071 48.1798 56.6253 48.0421 56.9068 48.1533C57.5463 48.4062 58.0823 48.3689 58.0878 48.3689C58.391 48.3428 58.6544 48.5671 58.6799 48.8684C58.7055 49.1699 58.4818 49.435 58.1804 49.4605C58.1599 49.4623 58.0973 49.4668 58.0007 49.4668Z" fill="#FFAD31"/>
<path d="M69.8826 56.0925C69.704 56.0925 69.5291 56.0056 69.4239 55.8451C65.7489 50.2422 61.6109 44.8305 57.1248 39.7605C56.9243 39.5339 56.9456 39.1876 57.1722 38.9871C57.3987 38.7866 57.745 38.808 57.9455 39.0345C62.4662 44.1437 66.6364 49.5975 70.3401 55.2443C70.5061 55.4972 70.4355 55.8368 70.1824 56.0028C70.0899 56.0635 69.9856 56.0925 69.8826 56.0925ZM60.0206 53.2445H58.1509C57.8484 53.2445 57.6031 52.9992 57.6031 52.6967C57.6031 52.3942 57.8484 52.1489 58.1509 52.1489H60.0206C60.3231 52.1489 60.5684 52.3942 60.5684 52.6967C60.5684 52.9992 60.3231 53.2445 60.0206 53.2445ZM69.9131 45.4229C69.8558 45.4229 69.7976 45.4138 69.7403 45.3948C69.4534 45.2996 69.2979 44.9897 69.3926 44.7026C69.3952 44.6953 69.6385 43.9495 69.6385 43.1837C69.6385 42.8811 69.8838 42.6358 70.1863 42.6358C70.4888 42.6358 70.7341 42.8811 70.7341 43.1837C70.7341 44.1321 70.4447 45.0114 70.4324 45.0484C70.3559 45.2779 70.1423 45.4229 69.9131 45.4229Z" fill="#FFAD31"/>
<path d="M70.7706 23.0489C70.7706 23.8871 69.6201 24.6487 67.6973 25.2459C65.1389 26.051 61.2109 26.5661 56.8008 26.5661C52.2483 26.5661 48.2053 26.0183 45.6523 25.1636C43.8775 24.5829 42.8311 23.8487 42.8311 23.0489C42.8311 21.1096 49.0873 19.5374 56.8008 19.5374C64.5199 19.5373 70.7706 21.1095 70.7706 23.0489Z" fill="#E4E5E6"/>
<path d="M70.7706 23.0488C70.7706 23.1146 70.7651 23.1805 70.7487 23.2461C68.2068 22.3805 64.1254 21.8218 59.5181 21.8218C52.0676 21.8218 45.9756 23.29 45.5702 25.1361C43.8446 24.561 42.8311 23.8378 42.8311 23.0488C42.8311 21.1095 49.0873 19.5373 56.8008 19.5373C64.5199 19.5373 70.7706 21.1095 70.7706 23.0488Z" fill="#D4D4D4"/>
<path d="M67.6963 25.2454C65.1379 26.0506 61.2099 26.5657 56.7998 26.5657C52.2473 26.5657 48.2044 26.0178 45.6514 25.1632C45.761 25.0591 45.8322 25.0043 45.8322 25.0043C48.3797 23.6731 52.2363 22.8184 56.5479 22.8184C61.0017 22.8184 64.8804 23.8867 67.5045 25.1357C67.5757 25.1687 67.636 25.2071 67.6963 25.2454Z" fill="#FFAD31"/>
<path d="M67.6956 25.2453C65.1371 26.0506 61.2092 26.5657 56.7991 26.5657C55.0845 26.5657 53.4355 26.4889 51.918 26.341C54.3759 26.2894 56.6479 26.0755 58.572 25.7429C59.4998 25.5825 59.6005 24.2905 58.7057 23.9976C57.3234 23.5449 55.6915 23.0757 54.3997 22.8897C55.1008 22.8404 55.8185 22.8184 56.5471 22.8184C61.001 22.8184 64.8797 23.8867 67.5038 25.1357C67.575 25.1687 67.6353 25.207 67.6956 25.2453Z" fill="#FF8D29"/>
<path d="M22.9954 73.0325C16.4513 57.3186 22.9954 42.0667 22.9954 42.0667H50.4705C50.4705 42.0667 57.0146 57.3186 50.4705 73.0325H22.9954Z" fill="#FF6B6E"/>
<path d="M22.9684 52.3665C22.9293 52.3665 22.8899 52.3637 22.8502 52.358C22.4009 52.2932 22.0893 51.8766 22.154 51.4274C22.4463 49.3989 22.8677 47.3903 23.4067 45.4576C23.5285 45.0204 23.981 44.7644 24.4189 44.8867C24.8561 45.0085 25.1117 45.4618 24.9897 45.8989C24.4697 47.764 24.0628 49.7029 23.7806 51.6618C23.7216 52.0712 23.3703 52.3665 22.9684 52.3665Z" fill="#FFE8C4"/>
<path d="M50.4707 73.0329H45.9023C52.4483 57.3211 45.9023 42.0693 45.9023 42.0693H50.4707C50.4707 42.0693 57.0114 57.3211 50.4707 73.0329Z" fill="#DB4A4D"/>
<path d="M50.5596 38.6913H22.9814V42.0669H50.5596V38.6913Z" fill="#FFAD31"/>
<path d="M50.5644 38.6893H45.9023V42.0693H50.5644V38.6893Z" fill="#FF8D29"/>
<path d="M50.5596 73.0325H22.9814V76.462H50.5596V73.0325Z" fill="#FFAD31"/>
<path d="M50.5644 73.033H45.9023V76.4625H50.5644V73.033Z" fill="#FF8D29"/>
<path d="M37.1243 58.3802C36.5963 55.9993 34.2077 54.487 31.7997 55.0091C29.3918 55.5312 27.8624 57.8931 28.3904 60.274L30.6888 59.7756C30.4387 58.6478 31.1631 57.5291 32.3037 57.2817C33.4444 57.0344 34.5758 57.7507 34.8259 58.8786L37.1243 58.3802Z" fill="#DB4A4D"/>
<path d="M29.7293 60.9037C30.3679 60.7859 30.8113 60.2881 30.7197 59.7917C30.6281 59.2954 30.0362 58.9885 29.3975 59.1063C28.7589 59.2241 28.3155 59.7219 28.4071 60.2183C28.4987 60.7146 29.0907 61.0215 29.7293 60.9037Z" fill="#DB4A4D"/>
<path d="M36.1629 59.5171C36.8015 59.3993 37.2449 58.9012 37.1533 58.4047C37.0617 57.9081 36.4698 57.6011 35.8311 57.7189C35.1925 57.8368 34.7491 58.3349 34.8407 58.8314C34.9323 59.328 35.5243 59.635 36.1629 59.5171Z" fill="#DB4A4D"/>
<path d="M35.001 64.7577C36.2809 66.8335 39.0334 67.4784 41.1368 66.1953C43.2403 64.9122 43.9103 62.1795 42.6304 60.1036L40.6226 61.3284C41.2289 62.3117 40.9116 63.6061 39.9152 64.2139C38.9188 64.8217 37.615 64.5163 37.0087 63.5329L35.001 64.7577Z" fill="#DB4A4D"/>
<path d="M42.0626 61.5353C42.6273 61.2144 42.8829 60.5985 42.6334 60.1594C42.384 59.7204 41.724 59.6246 41.1592 59.9454C40.5945 60.2663 40.3389 60.8822 40.5884 61.3213C40.8378 61.7603 41.4978 61.8561 42.0626 61.5353Z" fill="#DB4A4D"/>
<path d="M36.4376 64.9562C37.0023 64.6353 37.2579 64.0191 37.0085 63.5799C36.759 63.1408 36.099 63.0449 35.5343 63.3658C34.9695 63.6868 34.7139 64.3029 34.9634 64.7421C35.2128 65.1813 35.8729 65.2771 36.4376 64.9562Z" fill="#DB4A4D"/>
<path d="M30.3251 71.0378C32.4431 69.8282 33.1803 67.0984 31.9685 64.9527C30.7567 62.807 28.0477 62.0454 25.9297 63.2549L27.0864 65.303C28.0897 64.73 29.3728 65.0908 29.9469 66.1072C30.5209 67.1237 30.1717 68.4167 29.1684 68.9896L30.3251 71.0378Z" fill="#DB4A4D"/>
<path d="M27.0806 65.3429C27.5277 65.1083 27.6456 64.4518 27.344 63.8765C27.0424 63.3012 26.4354 63.025 25.9883 63.2595C25.5412 63.4941 25.4232 64.1506 25.7248 64.7259C26.0265 65.3012 26.6334 65.5774 27.0806 65.3429Z" fill="#DB4A4D"/>
<path d="M30.3075 71.0773C30.7547 70.8427 30.8727 70.1863 30.571 69.611C30.2693 69.0358 29.6622 68.7596 29.215 68.9942C28.7678 69.2287 28.6498 69.8852 28.9515 70.4604C29.2532 71.0356 29.8603 71.3118 30.3075 71.0773Z" fill="#DB4A4D"/>
<path d="M45.6406 70.9331C48.0706 71.1406 50.2276 69.3131 50.4488 66.8592C50.6701 64.4053 48.8732 62.24 46.4432 62.0325L46.232 64.3747C47.3831 64.4731 48.2342 65.4986 48.1294 66.6611C48.0246 67.8235 47.0029 68.6892 45.8518 68.5908L45.6406 70.9331Z" fill="#DB4A4D"/>
<path d="M47.2587 63.3467C47.3371 62.7017 46.9944 62.1293 46.4933 62.0683C45.9921 62.0072 45.5222 62.4807 45.4438 63.1257C45.3653 63.7708 45.708 64.3432 46.2092 64.4042C46.7104 64.4653 47.1802 63.9918 47.2587 63.3467Z" fill="#DB4A4D"/>
<path d="M46.6571 69.9015C46.7355 69.257 46.3929 68.685 45.8917 68.624C45.3905 68.563 44.9207 69.0361 44.8422 69.6807C44.7638 70.3253 45.1065 70.8972 45.6076 70.9582C46.1088 71.0192 46.5787 70.5461 46.6571 69.9015Z" fill="#DB4A4D"/>
<path d="M36.0267 58.3802C35.4986 55.9993 33.1097 54.487 30.7015 55.0091C28.2933 55.5312 26.7637 57.8931 27.2918 60.274L29.5904 59.7756C29.3403 58.6478 30.0648 57.5291 31.2056 57.2817C32.3463 57.0344 33.4778 57.7507 33.728 58.8786L36.0267 58.3802Z" fill="#FFAD31"/>
<path d="M28.6329 60.9046C29.2716 60.7867 29.7151 60.2884 29.6235 59.7916C29.5319 59.2949 28.9398 58.9877 28.3011 59.1056C27.6623 59.2235 27.2188 59.7218 27.3104 60.2186C27.4021 60.7154 27.9941 61.0225 28.6329 60.9046Z" fill="white"/>
<path d="M35.0675 59.5181C35.7062 59.4003 36.1497 58.9022 36.0581 58.4056C35.9665 57.9091 35.3744 57.6021 34.7356 57.7199C34.0969 57.8378 33.6534 58.3358 33.745 58.8324C33.8366 59.3289 34.4287 59.6359 35.0675 59.5181Z" fill="white"/>
<path d="M33.9072 64.7577C35.1872 66.8335 37.9398 67.4784 40.0433 66.1953C42.1468 64.9122 42.8168 62.1795 41.5368 60.1036L39.529 61.3284C40.1354 62.3117 39.818 63.6061 38.8216 64.2139C37.8251 64.8217 36.5213 64.5163 35.915 63.5329L33.9072 64.7577Z" fill="#FFAD31"/>
<path d="M40.966 61.5345C41.5307 61.2137 41.7863 60.5978 41.5368 60.1589C41.2874 59.7199 40.6274 59.6241 40.0626 59.9449C39.4979 60.2657 39.2423 60.8815 39.4917 61.3205C39.7412 61.7594 40.4012 61.8552 40.966 61.5345Z" fill="white"/>
<path d="M35.3439 64.9553C35.9086 64.6345 36.1642 64.0185 35.9147 63.5795C35.6653 63.1405 35.0052 63.0447 34.4405 63.3655C33.8758 63.6863 33.6202 64.3023 33.8696 64.7413C34.1191 65.1803 34.7791 65.2761 35.3439 64.9553Z" fill="white"/>
<path d="M29.231 71.0377C31.3488 69.8283 32.086 67.0989 30.8743 64.9534C29.6626 62.808 26.9538 62.0465 24.8359 63.2558L25.9925 65.3037C26.9958 64.7308 28.2788 65.0915 28.8528 66.1078C29.4268 67.1241 29.0777 68.4169 28.0744 68.9898L29.231 71.0377Z" fill="#FFAD31"/>
<path d="M25.9843 65.3416C26.4315 65.1071 26.5494 64.4506 26.2478 63.8754C25.9461 63.3001 25.339 63.0239 24.8918 63.2585C24.4446 63.493 24.3266 64.1495 24.6283 64.7248C24.9299 65.3 25.537 65.5762 25.9843 65.3416Z" fill="white"/>
<path d="M29.2147 71.077C29.6619 70.8425 29.7799 70.186 29.4782 69.6108C29.1765 69.0355 28.5694 68.7593 28.1222 68.9939C27.675 69.2284 27.5571 69.8849 27.8587 70.4601C28.1604 71.0354 28.7675 71.3115 29.2147 71.077Z" fill="white"/>
<path d="M44.5439 70.9339C46.9739 71.1415 49.1309 69.3137 49.3522 66.8595C49.5734 64.4053 47.7765 62.2399 45.3466 62.0323L45.1354 64.3748C46.2865 64.4731 47.1376 65.4988 47.0327 66.6614C46.9279 67.824 45.9063 68.6897 44.7552 68.5914L44.5439 70.9339Z" fill="#FFAD31"/>
<path d="M46.1649 63.3467C46.2433 62.7019 45.9007 62.1297 45.3995 62.0687C44.8983 62.0077 44.4285 62.481 44.35 63.1258C44.2716 63.7706 44.6143 64.3428 45.1154 64.4038C45.6166 64.4648 46.0865 63.9916 46.1649 63.3467Z" fill="white"/>
<path d="M45.5635 69.9013C45.6419 69.2562 45.2992 68.6838 44.798 68.6228C44.2968 68.5618 43.8269 69.0352 43.7485 69.6803C43.67 70.3253 44.0127 70.8977 44.5139 70.9588C45.0151 71.0198 45.485 70.5463 45.5635 69.9013Z" fill="white"/>
</svg>
