<svg width="96" height="96" viewBox="0 0 96 96" fill="none" xmlns="http://www.w3.org/2000/svg">
<path d="M36.875 32.5497V65.3824C36.875 65.3824 41.5818 67.5679 55.9447 67.5679C66.4766 67.5679 75.0144 65.5579 75.0144 63.0784V32.5497H36.875Z" fill="#E4E5E6"/>
<path d="M75.0172 32.5491V63.08C75.0172 65.5599 66.476 67.5662 55.9446 67.5662C55.1571 67.5662 54.396 67.5609 53.667 67.5449C63.283 67.3108 70.7812 65.4055 70.7812 63.08V32.5491H75.0172Z" fill="#D4D4D4"/>
<path d="M36.875 53.9557V65.3824C36.875 65.3824 41.5818 67.5678 55.9447 67.5678C66.4766 67.5678 75.0144 65.5579 75.0144 63.0786V53.6028L36.875 53.9557Z" fill="#FFAD31"/>
<path d="M75.0182 53.6015V63.0799C75.0182 65.5599 66.477 67.5663 55.9457 67.5663C55.1793 67.5663 54.4397 67.561 53.7266 67.545C63.3427 67.3162 70.8515 65.4056 70.8515 63.0799V53.6386L75.0182 53.6015Z" fill="#FF8D29"/>
<path d="M55.9447 58.4175C66.4766 58.4175 75.0144 56.366 75.0144 53.8353C75.0144 51.3047 66.4766 49.2532 55.9447 49.2532C45.4128 49.2532 36.875 51.3047 36.875 53.8353C36.875 56.366 45.4128 58.4175 55.9447 58.4175Z" fill="#FFAD31"/>
<path d="M75.0176 53.8356C75.0176 56.3633 66.476 58.4175 55.9442 58.4175C55.0766 58.4175 54.2252 58.4015 53.3896 58.3749C62.7135 58.0768 69.9087 56.1558 69.9087 53.8356C69.9087 51.51 62.7135 49.5943 53.3896 49.2962C54.2252 49.2696 55.0766 49.2537 55.9442 49.2537C66.476 49.2537 75.0176 51.3025 75.0176 53.8356Z" fill="#FF8D29"/>
<path d="M35.9658 27.6106V30.9792C35.9658 33.5768 44.9103 35.6825 55.9439 35.6825C66.9774 35.6825 75.9219 33.5768 75.9219 30.9792V27.6106H35.9658Z" fill="#FF6B6E"/>
<path d="M75.9217 27.6103V30.9787C75.9217 33.5756 66.9811 35.6828 55.9437 35.6828C55.0442 35.6828 54.1555 35.6668 53.2881 35.6402C63.0695 35.3368 70.6105 33.3626 70.6105 30.9787V27.6103H75.9217V27.6103Z" fill="#DB4A4D"/>
<path d="M55.9439 32.1001C66.9774 32.1001 75.9219 29.9896 75.9219 27.3861C75.9219 24.7826 66.9774 22.6721 55.9439 22.6721C44.9103 22.6721 35.9658 24.7826 35.9658 27.3861C35.9658 29.9896 44.9103 32.1001 55.9439 32.1001Z" fill="#FFAD31"/>
<path d="M38.8528 27.9682C38.6007 27.9682 38.3527 27.849 38.1975 27.6266C37.9451 27.2652 38.0336 26.7676 38.3952 26.5152C39.2883 25.8919 40.7054 25.3496 42.6071 24.9033C43.0356 24.8031 43.4658 25.069 43.5666 25.4981C43.6673 25.9273 43.401 26.3569 42.9718 26.4577C40.8494 26.9557 39.8085 27.4757 39.309 27.8243C39.1698 27.9215 39.0105 27.9682 38.8528 27.9682ZM48.9479 52.2719C48.618 52.2719 48.3093 52.0658 48.1943 51.7369C48.0488 51.3206 48.2683 50.8653 48.6844 50.7198C49.3363 50.492 50.1928 50.3511 51.2302 50.3011C51.6733 50.2799 52.0448 50.6195 52.066 51.06C52.0872 51.5004 51.7474 51.8746 51.3071 51.8958C50.4232 51.9384 49.7181 52.0497 49.2113 52.227C49.1242 52.2573 49.0353 52.2719 48.9479 52.2719Z" fill="#FFE8C4"/>
<path d="M75.9249 27.3874C75.9249 29.9897 66.9844 32.1026 55.9469 32.1026C55.1645 32.1026 54.3929 32.092 53.6318 32.0706C63.573 31.7992 71.2896 29.8035 71.2896 27.3874C71.2896 24.9712 63.573 22.9755 53.6318 22.7041C54.3929 22.6828 55.1645 22.6721 55.9469 22.6721C66.9844 22.6721 75.9249 24.785 75.9249 27.3874Z" fill="#FF8D29"/>
<path d="M56.6572 52.9658C57.8214 50.9994 59.5837 51.2605 59.5837 51.2605C59.5837 51.2605 64.1348 36.0841 68.013 37.0428C69.9964 37.533 68.013 44.3968 61.0713 51.7508C61.0713 51.7508 61.6012 52.649 61.3253 53.9171L56.6572 52.9658Z" fill="#FF6B6E"/>
<path d="M61.0738 51.7489C61.0738 51.7489 61.6006 52.6482 61.3239 53.9147L59.488 53.5422C59.4879 53.5336 59.4879 53.525 59.4877 53.5164C59.4733 52.4568 59.8177 51.4312 60.51 50.629C66.0761 44.1798 67.7892 38.4337 66.3315 37.5245C66.8954 37.0934 67.4595 36.9019 68.013 37.0402C69.9979 37.5351 68.013 44.3945 61.0738 51.7489Z" fill="#DB4A4D"/>
<path d="M64.1621 54.5483C61.6792 51.4385 58.1203 53.2389 58.1203 53.2389C55.6373 50.7838 52.9889 52.9116 52.9889 52.9116C52.9889 52.9116 52.3143 53.7104 52.5563 54.2922C53.0941 55.5851 61.0597 55.4446 63.3115 55.4506C64.7988 55.4546 64.1621 54.5483 64.1621 54.5483Z" fill="#FF8D29"/>
<path d="M42.539 46.7119C45.5243 47.9449 47.7747 50.9488 47.7747 54.3477V74.3022L47.7155 74.2877C47.7155 75.9976 42.3417 77.3837 35.7127 77.3837C29.0838 77.3837 23.71 75.9976 23.71 74.2877V74.3022V54.3477C23.71 50.9617 25.9501 47.9529 28.9174 46.7119H42.539Z" fill="#E4E5E6"/>
<path d="M47.771 54.3464V74.3024L47.7125 74.2866C47.7125 76 42.3377 77.3837 35.7123 77.3837C34.9566 77.3837 34.2116 77.3677 33.4932 77.3304C39.0649 77.0643 43.2796 75.8032 43.2796 74.2866L43.3381 74.3024V54.3464C43.3381 50.9513 41.0871 47.9447 38.1017 46.71H42.5399C45.5253 47.9447 47.771 50.9513 47.771 54.3464Z" fill="#D4D4D4"/>
<path d="M28.9141 45.1202V47.6295C28.9141 48.5997 31.9632 49.3863 35.7246 49.3863C39.486 49.3863 42.5351 48.5997 42.5351 47.6295V45.1202H28.9141Z" fill="#FFAD31"/>
<path d="M25.5264 72.3945C27.646 73.2665 31.4054 73.8463 35.6899 73.8463C40.0462 73.8463 43.8598 73.2469 45.9587 72.3504V54.2921C43.8598 55.1885 40.0462 55.7879 35.6899 55.7879C31.4054 55.7879 27.646 55.2081 25.5264 54.3362V72.3945Z" fill="#FF6B6E"/>
<path d="M45.9565 54.2932V72.3493C43.8599 73.2486 40.0444 73.8447 35.6862 73.8447C35.0157 73.8447 34.3612 73.8287 33.7227 73.8021C35.1232 73.7426 36.4414 73.6202 37.6325 73.4463C40.1306 73.0815 41.9921 70.9597 41.9921 68.4349V55.3255C43.6098 55.0648 44.972 54.7134 45.9565 54.2932Z" fill="#DB4A4D"/>
<path d="M42.5407 45.1189V47.6307C42.5407 48.5993 39.4916 49.3869 35.7295 49.3869C35.1175 49.3869 34.5216 49.3656 33.9521 49.3283C36.8469 49.126 38.9807 48.4396 38.9807 47.6307V45.1189H42.5407V45.1189Z" fill="#FF8D29"/>
<path d="M27.1006 40.3183V44.0384C27.1006 45.2997 31.0647 46.3222 35.9546 46.3222C40.8446 46.3222 44.8086 45.2997 44.8086 44.0384V40.3183H27.1006Z" fill="#FF6B6E"/>
<path d="M35.9546 42.4866C40.8446 42.4866 44.8086 41.4816 44.8086 40.2418C44.8086 39.0021 40.8446 37.997 35.9546 37.997C31.0647 37.997 27.1006 39.0021 27.1006 40.2418C27.1006 41.4816 31.0647 42.4866 35.9546 42.4866Z" fill="#FFAD31"/>
<path d="M44.808 40.3186V44.0384C44.808 45.2996 40.8433 46.3213 35.9528 46.3213C35.3461 46.3213 34.7555 46.3054 34.1807 46.2735C38.2198 46.0607 41.2531 45.14 41.2531 44.0384V40.3187H44.808V40.3186Z" fill="#DB4A4D"/>
<path d="M44.808 40.244C44.808 41.484 40.8433 42.4844 35.9528 42.4844C35.3461 42.4844 34.7555 42.4686 34.1807 42.4366C38.2198 42.229 41.2531 41.3297 41.2531 40.244C41.2531 39.1584 38.2198 38.2538 34.1807 38.0463C34.7554 38.0143 35.3461 37.9984 35.9528 37.9984C40.8433 37.9983 44.808 39.0041 44.808 40.244Z" fill="#FF8D29"/>
<path d="M29.8971 40.915C29.5673 40.915 29.2587 40.7091 29.1436 40.3801C28.998 39.964 29.2173 39.5086 29.6335 39.3631C30.2853 39.135 31.1418 38.9941 32.1793 38.9443C32.6197 38.9231 32.9937 39.2628 33.0149 39.7033C33.0361 40.1436 32.6962 40.5177 32.2559 40.5389C31.3722 40.5814 30.6672 40.6927 30.1607 40.8699C30.0734 40.9005 29.9845 40.915 29.8971 40.915ZM41.1891 62.854C41.0333 62.854 40.8857 62.8831 40.7434 62.9244C40.0856 60.6802 37.9954 59.038 35.5136 59.038C33.0319 59.038 30.9417 60.6802 30.2838 62.9244C30.1415 62.8831 29.994 62.854 29.8382 62.854C28.9605 62.854 28.249 63.5575 28.249 64.4253C28.249 65.2931 28.9605 65.9966 29.8382 65.9966C29.994 65.9966 30.1415 65.9675 30.2838 65.9262C30.9417 68.1703 33.0319 69.8126 35.5136 69.8126C37.9954 69.8126 40.0856 68.1703 40.7434 65.9262C40.8857 65.9675 41.0332 65.9966 41.1891 65.9966C42.0667 65.9966 42.7782 65.2931 42.7782 64.4253C42.7782 63.5575 42.0667 62.854 41.1891 62.854Z" fill="#FFE8C4"/>
<path d="M41.628 63.7949C41.4722 63.7949 41.3246 63.824 41.1823 63.8653C40.5245 61.6211 38.4342 59.9788 35.9523 59.9788C33.4705 59.9788 31.3802 61.621 30.7224 63.8653C30.5801 63.824 30.4325 63.7949 30.2767 63.7949C29.399 63.7949 28.6875 64.4984 28.6875 65.3662C28.6875 66.234 29.399 66.9375 30.2767 66.9375C30.4325 66.9375 30.5801 66.9084 30.7224 66.8671C31.3802 69.1113 33.4705 70.7536 35.9523 70.7536C38.4342 70.7536 40.5245 69.1113 41.1823 66.8671C41.3246 66.9084 41.4721 66.9375 41.628 66.9375C42.5057 66.9375 43.2172 66.234 43.2172 65.3662C43.2172 64.4984 42.5057 63.7949 41.628 63.7949Z" fill="#DB4A4D"/>
<path d="M41.1891 62.854C41.0333 62.854 40.8857 62.8831 40.7434 62.9244C40.0856 60.6802 37.9954 59.0379 35.5136 59.0379C33.0319 59.0379 30.9417 60.6801 30.2838 62.9244C30.1415 62.8831 29.994 62.854 29.8382 62.854C28.9605 62.854 28.249 63.5575 28.249 64.4253C28.249 65.2931 28.9605 65.9966 29.8382 65.9966C29.994 65.9966 30.1415 65.9675 30.2838 65.9262C30.9417 68.1704 33.0319 69.8127 35.5136 69.8127C37.9954 69.8127 40.0856 68.1704 40.7434 65.9262C40.8857 65.9675 41.0332 65.9966 41.1891 65.9966C42.0667 65.9966 42.7782 65.2931 42.7782 64.4253C42.7782 63.5575 42.0667 62.854 41.1891 62.854Z" fill="#FFE8C4"/>
<path d="M35.7526 63.3061C35.7471 63.3061 35.7418 63.3061 35.7363 63.3061C35.0494 63.2993 34.4813 62.8713 34.2166 62.1611C33.6037 60.5162 34.9066 59.185 35.681 58.7108C35.9318 58.5575 36.2592 58.6361 36.4126 58.8869C36.5658 59.1372 36.4874 59.4641 36.2376 59.6179C36.1704 59.6598 34.7558 60.5602 35.2138 61.7895C35.3248 62.0873 35.504 62.2395 35.7468 62.2419C35.9842 62.2398 36.1938 62.1025 36.2467 61.9687C36.2952 61.8457 36.1788 61.7035 36.0726 61.606C35.8562 61.4072 35.8418 61.0706 36.0406 60.8542C36.2392 60.6376 36.5758 60.6234 36.7923 60.8221C37.2827 61.2724 37.4446 61.8328 37.2364 62.3597C37.0156 62.9187 36.4069 63.3061 35.7526 63.3061Z" fill="#FFAD31"/>
<path d="M27.102 61.3833C26.6611 61.3833 26.3037 61.0259 26.3037 60.5851V57.7697C26.3037 57.3289 26.6611 56.9714 27.102 56.9714C27.5428 56.9714 27.9002 57.3288 27.9002 57.7697V60.5851C27.9002 61.0259 27.5428 61.3833 27.102 61.3833Z" fill="#FFD4D5"/>
</svg>
