<svg width="96" height="96" viewBox="0 0 96 96" fill="none" xmlns="http://www.w3.org/2000/svg">
<path d="M31.7137 46.2154C31.7137 46.2154 31.0813 30.3042 20.2734 18.6592C20.2734 18.6592 26.7157 28.5968 28.7013 46.1169L29.9641 47.2596L31.7137 46.2154Z" fill="#89CF6E"/>
<path d="M31.7142 46.2143L29.9651 47.2573L29.382 46.7325L29.9198 46.4151C29.9198 46.4151 29.5245 36.5098 24.0504 26.611C22.1846 21.7329 20.4873 18.9926 20.293 18.6816C31.0792 30.3295 31.7142 46.2143 31.7142 46.2143Z" fill="#6DBF4D"/>
<path d="M34.1684 45.3252C32.5704 36.988 30.8302 14.5125 30.8302 14.5125C26.9004 23.352 29.9442 43.0238 31.1306 46.8289L34.1684 45.3252Z" fill="#89CF6E"/>
<path d="M34.1705 45.3265L31.1322 46.8295C31.0741 46.6481 31.0157 46.4213 30.9508 46.1687C31.9526 45.6735 32.5098 44.5848 32.333 43.4815C31.2481 36.7109 30.1604 24.642 29.6357 18.4352C29.9274 16.984 30.3225 15.656 30.8278 14.5094C30.8278 14.5094 32.5704 36.989 34.1705 45.3265Z" fill="#6DBF4D"/>
<path d="M44.2047 62.4876L37.7199 65.9147L31.2286 69.728C26.9724 68.6785 23.2155 64.9948 22.49 60.4406C21.6543 55.1802 25.8456 49.3756 28.7024 46.1171C28.7024 46.1171 29.9592 46.577 31.7149 46.2143C33.1982 45.9098 34.1053 45.0547 34.1053 45.0547C34.2737 45.1518 34.4421 45.2555 34.6171 45.3591C38.3485 47.6135 43.9066 51.7791 44.7293 56.9811C45.0403 58.8987 44.8266 60.7775 44.2047 62.4876Z" fill="#FF6B6E"/>
<path d="M25.5741 60.1643C25.0446 60.1643 24.6113 59.7394 24.6029 59.208C24.5714 57.2305 25.1083 55.0641 26.1989 52.7688C26.429 52.284 27.009 52.0777 27.4935 52.3081C27.9783 52.5385 28.1845 53.1181 27.9541 53.6029C26.993 55.6257 26.5192 57.5012 26.5459 59.177C26.5545 59.7137 26.1265 60.1556 25.5899 60.1641C25.5847 60.1642 25.5793 60.1643 25.5741 60.1643Z" fill="#FFD4D5"/>
<path d="M44.2041 62.4877L37.5821 66.0764C31.706 61.6581 33.3978 49.46 33.3978 49.46C33.6311 47.782 34.0521 46.4346 34.6158 45.3592C38.3475 47.6136 43.906 51.7792 44.7287 56.9812C45.0397 58.8988 44.826 60.7775 44.2041 62.4877Z" fill="#DB4A4D"/>
<path d="M54.0201 33.6946C54.0201 33.6946 53.0511 26.8104 48.0449 24.2288C48.0449 24.2288 46.43 33.3504 52.7281 39.3741L54.0201 33.6946Z" fill="#89CF6E"/>
<path d="M54.0191 33.6919L52.7298 39.3732C52.4772 39.1335 52.2376 38.8873 52.0173 38.6411L52.8465 35.0134C52.8465 35.0134 52.0043 29.0666 47.8711 26.158C47.9165 24.9595 48.046 24.2274 48.046 24.2274C53.0474 26.8122 54.0191 33.6919 54.0191 33.6919Z" fill="#6DBF4D"/>
<path d="M52.7772 41.4629C52.2861 41.4629 51.8649 41.0936 51.8126 40.5947C51.782 40.3046 51.1483 33.4118 58.36 26.6198C58.7505 26.2519 59.3656 26.2702 59.7336 26.6609C60.1015 27.0516 60.0832 27.6666 59.6924 28.0346C53.2196 34.1306 53.7213 40.1424 53.7458 40.3953C53.7974 40.9279 53.4089 41.4041 52.8764 41.4579C52.8432 41.4612 52.81 41.4629 52.7772 41.4629Z" fill="#FFAD31"/>
<path d="M41.7264 63.0793C35.8523 58.6605 37.8134 46.7561 37.8134 46.7561C39.6454 33.6841 52.7788 40.4929 52.7788 40.4929C52.7788 40.4929 66.6153 33.8669 68.0573 47.3958C68.1827 48.5729 68.218 49.6788 68.1715 50.7161C68.1715 50.7161 67.683 59.1111 62.3646 63.7547C57.0461 68.3983 41.7264 63.0793 41.7264 63.0793Z" fill="#89CF6E"/>
<path d="M40.55 52.3803C40.5449 52.3803 40.54 52.3803 40.5351 52.3802C39.9986 52.3721 39.5702 51.9306 39.5782 51.3939C39.6138 49.0235 39.8898 47.3222 39.9016 47.251C40.0545 46.1586 40.2976 45.1325 40.6205 44.2242C40.8003 43.7186 41.3554 43.4544 41.8616 43.6343C42.3671 43.8142 42.6312 44.3699 42.4514 44.8755C42.1723 45.6604 41.9605 46.5582 41.8223 47.5439C41.8163 47.5825 41.5545 49.2063 41.5211 51.4232C41.5131 51.9548 41.0797 52.3803 40.55 52.3803Z" fill="#BDEBAB"/>
<path d="M68.1754 50.7168C68.1754 50.7168 67.683 59.1128 62.3642 63.7578C60.2522 65.5976 56.5725 65.8698 52.8926 65.5264C54.739 65.3061 56.3781 64.7684 57.5377 63.7578C62.8565 59.1128 63.3489 50.7168 63.3489 50.7168C63.3943 49.6803 63.3619 48.5724 63.2324 47.3934C62.6557 41.958 60.0773 39.7748 57.2009 39.114C61.3859 38.356 67.1519 38.9197 68.0588 47.3934C68.1818 48.5724 68.2208 49.6803 68.1754 50.7168Z" fill="#6DBF4D"/>
<path d="M63.9834 61.4927C69.8954 57.3712 71.1967 60.1258 71.1967 60.1258L70.7571 60.5134C76.5243 57.4563 75.1368 61.2554 75.1368 61.2554L75.1252 61.2074C75.1252 61.2074 82.3792 59.6004 84.0422 63.0227C85.7053 66.445 78.4924 66.2386 74.315 63.9858L75.34 64.5633C75.5037 65.3406 75.676 67.6833 70.8788 64.9292L71.3048 65.3314C71.3048 65.3314 69.9097 68.0407 64.1426 63.7233L63.9834 61.4927Z" fill="#89CF6E"/>
<path d="M75.139 61.2567L75.126 61.2049C75.126 61.2049 75.139 61.2049 75.1584 61.1984C75.1455 61.2373 75.139 61.2567 75.139 61.2567ZM74.3163 63.9838L75.3398 64.5603C75.5018 65.3377 75.6767 67.6825 70.8765 64.9295L71.304 65.3312C71.304 65.3312 69.9111 68.0388 64.1456 63.7247L64.0938 63.051C67.1838 63.5886 70.7727 63.7959 74.5884 63.5757C77.8015 63.3879 80.8268 62.9279 83.4958 62.2543C83.716 62.4745 83.8974 62.7336 84.0399 63.0251C85.7048 66.4453 78.4946 66.238 74.3163 63.9838Z" fill="#6DBF4D"/>
<path d="M62.418 59.923C65.0929 51.8632 68.2638 53.5464 68.2638 53.5464L68.1222 54.2224C71.411 47.2697 72.7801 51.8349 72.7801 51.8349L72.7353 51.7978C72.7353 51.7978 78.4502 45.1659 82.4335 47.2245C86.4167 49.2831 79.4618 54.1739 73.9296 54.9923L75.3044 54.8148C76.0071 55.4333 77.8217 57.5237 71.3508 58.3058L72.0367 58.3852C72.0367 58.3852 72.6301 61.9269 64.1412 61.9168L62.418 59.923Z" fill="#89CF6E"/>
<path d="M71.8083 52.0968L71.7629 52.058C71.7629 52.058 71.7694 52.0515 71.7889 52.0321C71.8019 52.071 71.8083 52.0968 71.8083 52.0968ZM73.9267 54.9928L75.3065 54.8179C76.0061 55.4333 77.8199 57.526 71.3484 58.3099L72.035 58.3876C72.035 58.3876 72.631 61.925 64.1382 61.9185L62.415 59.9231C62.5251 59.5863 68.1505 57.3512 70.8648 55.7832C75.1987 53.2825 78.7593 49.8163 81.3635 46.875C81.7264 46.9334 82.089 47.0435 82.4324 47.2249C86.4164 49.285 79.459 54.1765 73.9267 54.9928Z" fill="#6DBF4D"/>
<path d="M64.1757 61.4941C65.5291 65.2199 62.4219 68.9703 57.8967 70.577C48.421 73.9416 32.6991 75.9894 24.3205 77.7025C20.7325 78.4361 19.8914 76.0079 23.0799 74.2363C32.297 69.1148 43.3116 62.0438 53.5256 58.4171C58.0342 56.8162 62.8272 57.782 64.1757 61.4941Z" fill="#FFAD31"/>
<path d="M57.8944 70.5786C48.4231 73.9407 32.7003 75.9878 24.324 77.7045C21.6873 78.2422 20.5341 77.0762 21.3698 75.7157C29.8305 74.0119 45.2681 71.9713 54.6228 68.6546C59.1511 67.048 62.2543 63.2972 60.9002 59.5723C60.6736 58.9503 60.3497 58.4062 59.948 57.9398C61.9174 58.4321 63.4916 59.6046 64.1783 61.4963C65.5257 65.2212 62.4227 68.972 57.8944 70.5786Z" fill="#FF8D29"/>
<path d="M46.5124 72.1492C46.1885 72.1492 45.8719 71.9873 45.6875 71.6924C45.0369 70.6516 44.5047 69.5102 44.106 68.2999C43.9381 67.7901 44.215 67.2408 44.7247 67.0728C45.2342 66.9052 45.7839 67.1819 45.9517 67.6916C46.3019 68.754 46.7674 69.7535 47.3355 70.6623C47.62 71.1174 47.4816 71.7169 47.0266 72.0013C46.8664 72.1014 46.6883 72.1492 46.5124 72.1492ZM57.1997 68.9867C56.8758 68.9867 56.5591 68.8249 56.3747 68.5299C55.724 67.489 55.1918 66.3475 54.7931 65.1374C54.6251 64.6276 54.9021 64.0783 55.4118 63.9103C55.9214 63.7427 56.471 64.0194 56.6388 64.5291C56.989 65.5914 57.4545 66.5908 58.0227 67.4998C58.3071 67.9548 58.1689 68.5543 57.7139 68.8389C57.5536 68.939 57.3756 68.9867 57.1997 68.9867ZM50.7396 67.7012C50.3532 67.7012 49.9877 67.4692 49.8363 67.0883C49.3652 65.9036 49.0413 64.688 48.8735 63.4752C48.7999 62.9436 49.1713 62.453 49.7029 62.3794C50.2311 62.3055 50.7249 62.677 50.7986 63.2087C50.9451 64.2669 51.229 65.3306 51.6422 66.3702C51.8406 66.8689 51.597 67.4339 51.0983 67.6323C50.9805 67.6791 50.859 67.7012 50.7396 67.7012ZM39.3093 71.8575C38.9229 71.8575 38.5576 71.6255 38.406 71.2446C38.0079 70.2439 37.7342 69.2167 37.5923 68.1916C37.5187 67.66 37.89 67.1694 38.4215 67.0958C38.9529 67.0223 39.4437 67.3934 39.5174 67.9251C39.6379 68.7955 39.8716 69.6707 40.2119 70.5264C40.4102 71.0251 40.1668 71.5901 39.6681 71.7885C39.5503 71.8353 39.4287 71.8575 39.3093 71.8575Z" fill="#FFE8C4"/>
<path d="M71.8091 52.0964L71.7637 52.0576C71.7637 52.0576 71.7702 52.0511 71.7896 52.0316C71.8026 52.0705 71.8091 52.0964 71.8091 52.0964ZM75.1583 61.1983C75.1453 61.2372 75.1388 61.2567 75.1388 61.2567L75.1259 61.2048C75.1259 61.2048 75.1388 61.2048 75.1583 61.1983Z" fill="#6DBF4D"/>
</svg>
