<svg width="96" height="96" viewBox="0 0 96 96" fill="none" xmlns="http://www.w3.org/2000/svg">
<path d="M57.4768 23.3594H23.6982V62.0356H57.4768V23.3594Z" fill="#FFAD31"/>
<path d="M57.4768 62.0355V67.3073L42.7785 67.3196L40.6059 65.1532L39.1945 66.5585L38.55 67.203L36.5309 65.2023L34.4749 67.2336L32.3208 65.0979L30.0869 67.3073L27.9328 65.1777L25.8462 67.2397L23.6982 65.1163V62.0355H57.4768Z" fill="#FF6B6E"/>
<path d="M39.9385 62.0355C40.5031 59.0958 41.6078 56.2789 43.1972 53.732C42.8965 53.554 42.7308 53.3515 42.7308 53.1367V47.3433C42.7308 46.5147 45.2593 45.8458 48.377 45.8458C51.4946 45.8458 54.0232 46.5147 54.0232 47.3433V53.1367C54.0232 53.3515 53.8574 53.554 53.5567 53.732C55.1461 56.2789 56.257 59.0958 56.8216 62.0355H39.9385Z" fill="#FF8D29"/>
<path d="M57.4777 66.0492V67.3073L42.7793 67.3196L40.6067 65.1532L39.1953 66.5586L39.7967 62.8149C39.8396 62.5511 39.8826 62.2933 39.9379 62.0355H56.821C56.8762 62.2933 56.9192 62.5511 56.9622 62.8149L57.4777 66.0492Z" fill="#DB4A4D"/>
<path d="M57.4768 19.849V23.3594H23.6982V19.9656L25.8462 17.8422L27.9328 19.9043L30.0869 17.7685L32.3208 19.9779L34.4749 17.8483L36.5309 19.8736L38.55 17.8729L40.5753 19.8736L42.7293 17.744L44.9387 19.9288L46.9886 17.9036L49.0139 19.9043L51.1189 17.8237L53.273 19.9534L55.4271 17.8237L57.4768 19.849Z" fill="#FF6B6E"/>
<path d="M57.4807 23.3594V61.785C53.5224 61.3062 52.8167 59.6921 52.8167 59.6921C52.8167 59.6921 47.2688 49.6393 52.8167 37.9723H52.8657C52.4914 37.512 52.3441 36.8921 52.4914 36.2846L52.516 36.1802H52.6694C52.1661 35.8856 51.8162 35.5543 51.669 35.1983C49.2449 29.7668 51.5831 26.0108 51.5831 26.0108C51.5831 24.7772 53.9581 23.7277 57.2537 23.3594H57.4807V23.3594ZM44.708 37.5606V37.5667C44.5976 37.9534 44.4995 38.1866 44.4995 38.1866C39.375 51.351 28.9912 46.7972 28.9912 46.7972C37.8346 45.5268 38.8287 36.2472 38.8287 36.2472C38.8287 36.2472 40.2464 34.9523 41.2898 34.5902C41.2898 34.5902 42.0384 35.9772 42.0262 36.6584L43.1861 34.8847C43.1861 34.8847 44.3215 35.6826 44.708 37.5606ZM42.0785 33.0946C41.7625 33.0946 41.4941 32.8523 41.4676 32.5318C41.4376 32.1707 41.2122 28.9656 42.5007 27.6489C42.9076 27.2328 43.4308 27.0315 44.0175 27.0676C44.3559 27.0883 44.6134 27.3793 44.5926 27.7176C44.5719 28.056 44.2802 28.3128 43.9426 28.2928C43.7102 28.2783 43.5372 28.3447 43.3782 28.507C42.7002 29.1991 42.5967 31.281 42.6908 32.4306C42.7185 32.7684 42.4673 33.0648 42.1295 33.0925C42.1125 33.094 42.0954 33.0946 42.0785 33.0946Z" fill="#FF8D29"/>
<path d="M44.6934 37.6555C44.3068 35.7777 43.1712 34.9799 43.1712 34.9799L42.0113 36.7535C42.0234 36.0723 41.2748 34.6854 41.2748 34.6854C40.2313 35.0474 38.8135 36.3423 38.8135 36.3423C39.1021 34.6854 39.7833 33.7587 40.5259 33.2433C42.0787 32.1632 44.3006 33.0284 44.7853 34.851C45.0617 35.9127 44.8714 36.9988 44.6934 37.6555Z" fill="#FF8D29"/>
<path d="M43.9951 37.0329C43.6086 35.155 42.4733 34.3573 42.4733 34.3573L41.3135 36.1308C41.3256 35.4496 40.5771 34.0627 40.5771 34.0627C39.5338 34.4248 38.1162 35.7196 38.1162 35.7196C38.4048 34.0627 39.0858 33.1361 39.8283 32.6206C41.3809 31.5405 43.6025 32.4057 44.0871 34.2284C44.3634 35.2901 44.1731 36.3762 43.9951 37.0329Z" fill="#89CF6E"/>
<path d="M43.9969 37.033V37.0392C43.8865 37.4258 43.7883 37.659 43.7883 37.659C38.6639 50.8236 28.2803 46.2698 28.2803 46.2698C37.1235 44.9993 38.1176 35.7196 38.1176 35.7196C38.1176 35.7196 39.5353 34.4246 40.5787 34.0626C40.5787 34.0626 41.3273 35.4496 41.3151 36.1308L42.4749 34.3571C42.4749 34.3572 43.6103 35.155 43.9969 37.033Z" fill="#FF6B6E"/>
<path d="M43.9969 37.0326V37.0387C43.8865 37.4254 43.7883 37.6586 43.7883 37.6586C38.6639 50.8227 28.2803 46.269 28.2803 46.269C29.3051 46.1217 30.2256 45.8639 31.0542 45.5264C34.3926 45.1827 38.5719 43.182 41.2905 36.2102C41.2905 36.2102 41.3028 36.1795 41.3272 36.1182C41.3272 36.112 41.3273 36.112 41.3335 36.1059L42.4749 34.3568C42.4749 34.3568 43.6103 35.1546 43.9969 37.0326Z" fill="#DB4A4D"/>
<path d="M41.708 32.6096C41.392 32.6096 41.1237 32.3672 41.0972 32.0468C41.0672 31.6857 40.8417 28.4808 42.1302 27.1641C42.5372 26.7481 43.0604 26.5468 43.6471 26.5828C43.9854 26.6035 44.2429 26.8945 44.2221 27.2328C44.2014 27.5711 43.9097 27.828 43.5722 27.8079C43.3398 27.7935 43.1667 27.8599 43.0078 28.0222C42.3298 28.7143 42.2263 30.7961 42.3204 31.9456C42.3481 32.2833 42.0968 32.5797 41.7591 32.6075C41.742 32.6089 41.725 32.6096 41.708 32.6096Z" fill="#89CF6E"/>
<path d="M26.8493 39.7361C26.3409 39.7361 25.9287 39.3239 25.9287 38.8155V29.7218C25.9287 29.2134 26.3409 28.8012 26.8493 28.8012C27.3577 28.8012 27.7698 29.2134 27.7698 29.7218V38.8155C27.7699 39.3239 27.3577 39.7361 26.8493 39.7361Z" fill="#FFE8C4"/>
<path d="M57.4781 19.8494V23.36H53.3682V19.8617L55.4293 17.824L57.4781 19.8494Z" fill="#DB4A4D"/>
<path d="M62.8169 77.152C67.1033 77.152 70.6288 76.052 71.0528 74.6425L71.1211 74.6519C74.4556 67.1832 69.6463 61.5786 69.6463 61.5786H55.9951V77.1154L62.8169 77.152Z" fill="#FFAD31"/>
<path d="M71.1208 74.6537L71.0533 74.6414C70.6297 76.053 67.1008 77.1514 62.8169 77.1514L60.1104 77.1392C64.0076 77.0042 67.113 75.9608 67.5059 74.6414L67.5733 74.6537C70.9122 67.1848 66.1004 61.5816 66.1004 61.5816H69.6479C69.6479 61.5816 74.4535 67.1848 71.1208 74.6537Z" fill="#FF8D29"/>
<path d="M55.4698 60.4092L55.4433 60.5184C55.233 61.385 55.632 62.2891 56.4272 62.7087C57.7657 63.415 60.1097 63.8832 62.7775 63.8832C65.4033 63.8832 67.7368 63.47 69.0638 62.7419C70.3508 62.0357 69.9877 60.7876 69.6949 59.8863L55.4698 60.4092Z" fill="#FF6B6E"/>
<path d="M55.7697 37.9742C50.2234 49.6412 55.7697 59.6936 55.7697 59.6936C55.7697 59.6936 56.7436 61.9164 62.8164 61.9164C66.4739 61.9164 69.4708 60.9614 69.7391 59.7498L69.7298 59.6936C69.7298 59.6936 75.2761 49.6412 69.7298 37.9742H55.7697Z" fill="#FFAD31"/>
<path d="M69.066 62.7419C67.7344 63.4724 65.4024 63.8836 62.7759 63.8836C62.1991 63.8836 61.6405 63.8591 61.1006 63.8161C62.9722 63.6749 64.58 63.3005 65.5925 62.7419C66.826 62.0666 66.5438 60.9003 66.2615 60.0101L69.692 59.8874C69.9865 60.7897 70.3485 62.0359 69.066 62.7419Z" fill="#DB4A4D"/>
<path d="M55.7697 37.9742C50.2234 49.6412 55.7697 59.6936 55.7697 59.6936C55.7697 59.6936 56.7436 61.9164 62.8164 61.9164C66.4739 61.9164 69.4708 60.9614 69.7391 59.7498L69.7298 59.6936C69.7298 59.6936 75.2761 49.6412 69.7298 37.9742H55.7697Z" fill="#FFAD31"/>
<path d="M69.7289 59.6901L69.7411 59.7515C69.4711 60.9605 66.4766 61.9179 62.8193 61.9179C62.1566 61.9179 61.5492 61.8933 61.0029 61.8381C63.838 61.5988 65.9673 60.7641 66.1942 59.7515C66.1942 59.7515 71.7292 49.6375 66.182 37.9709H69.7289C75.276 49.6375 69.7289 59.6901 69.7289 59.6901Z" fill="#FF8D29"/>
<path d="M55.4698 36.1764L55.4433 36.2856C55.233 37.1521 55.632 38.056 56.4272 38.4756C57.7657 39.1818 60.1096 39.6499 62.7774 39.6499C65.4031 39.6499 67.7152 39.1964 69.0636 38.5087C69.9145 38.0748 70.3013 37.0776 70.0085 36.1764H55.4698Z" fill="#FF8D29"/>
<path d="M54.621 35.1957C52.1979 29.7686 54.5394 26.0114 54.5394 26.0114H71.1122C71.1122 26.0114 73.3924 29.7073 70.9693 35.1344C70.5453 36.5439 67.1048 37.5916 62.8183 37.5916C58.5317 37.5916 55.0061 36.4917 54.5821 35.0822L54.621 35.1957Z" fill="#FFAD31"/>
<path d="M62.8176 28.8071C67.3897 28.8071 71.0961 27.5557 71.0961 26.0119C71.0961 24.4681 67.3897 23.2167 62.8176 23.2167C58.2455 23.2167 54.5391 24.4681 54.5391 26.0119C54.5391 27.5557 58.2455 28.8071 62.8176 28.8071Z" fill="#FFE8C4"/>
<path d="M55.4698 36.1764L55.4433 36.2856C55.233 37.1521 55.632 38.056 56.4272 38.4756C57.7657 39.1818 60.1096 39.6499 62.7774 39.6499C65.4031 39.6499 67.7152 39.1964 69.0636 38.5087C69.9145 38.0748 70.3013 37.0776 70.0085 36.1764H55.4698Z" fill="#FF6B6E"/>
<path d="M69.0657 38.5112C67.7154 39.1985 65.4019 39.6526 62.7753 39.6526C62.18 39.6526 61.6031 39.628 61.0508 39.5851C62.941 39.4317 64.5488 39.0389 65.5921 38.5112C66.4452 38.0755 66.8318 37.0754 66.5372 36.1794H70.0108C70.2992 37.0754 69.9125 38.0755 69.0657 38.5112Z" fill="#DB4A4D"/>
<path d="M54.621 35.1957C52.1979 29.7686 54.5394 26.0114 54.5394 26.0114H71.1122C71.1122 26.0114 73.3924 29.7073 70.9693 35.1344C70.5453 36.5439 67.1048 37.5916 62.8183 37.5916C58.5317 37.5916 55.0061 36.4917 54.5821 35.0822L54.621 35.1957Z" fill="#FFAD31"/>
<path d="M56.0227 34.4203C55.6141 34.4203 55.2411 34.1463 55.1328 33.7326C54.8101 32.4989 54.6791 31.2611 54.7435 30.0537C54.7704 29.546 55.2031 29.1586 55.7115 29.1834C56.2192 29.2105 56.6087 29.644 56.5816 30.1517C56.5274 31.169 56.6391 32.217 56.9137 33.2665C57.0424 33.7584 56.748 34.2614 56.2562 34.3901C56.1782 34.4106 56.0998 34.4203 56.0227 34.4203ZM56.1077 45.8854C55.7231 45.7477 55.4643 45.364 55.5017 44.938C55.6136 43.6677 55.9073 42.4582 56.3749 41.3431C56.5713 40.8742 57.1092 40.6554 57.5795 40.85C58.0484 41.0467 58.269 41.5862 58.0724 42.0549C57.6785 42.9945 57.4306 44.0188 57.3355 45.0995C57.2909 45.606 56.8442 45.9804 56.3378 45.9358C56.2574 45.9287 56.1804 45.9114 56.1077 45.8854Z" fill="#FFE8C4"/>
<path d="M70.9688 35.136C70.5453 36.5414 67.1022 37.5909 62.8183 37.5909C62.2108 37.5909 61.6215 37.5663 61.0508 37.5234C64.4755 37.284 67.0593 36.3389 67.4213 35.136C69.8457 29.7047 67.5625 26.0101 67.5625 26.0101H71.1101C71.1101 26.0101 73.393 29.7047 70.9688 35.136Z" fill="#FF8D29"/>
<path d="M62.8176 28.8071C67.3897 28.8071 71.0961 27.5557 71.0961 26.0119C71.0961 24.4681 67.3897 23.2167 62.8176 23.2167C58.2455 23.2167 54.5391 24.4681 54.5391 26.0119C54.5391 27.5557 58.2455 28.8071 62.8176 28.8071Z" fill="#E4E5E6"/>
<path d="M71.0966 26.0102C71.0966 27.5569 67.3898 28.809 62.8175 28.809C62.2101 28.809 61.6147 28.7844 61.0439 28.7475C64.7631 28.4714 67.5493 27.3481 67.5493 26.0102C67.5493 24.6721 64.7631 23.5551 61.0439 23.2789C61.6147 23.2421 62.2101 23.2175 62.8175 23.2175C67.3898 23.2175 71.0966 24.4696 71.0966 26.0102Z" fill="#D4D4D4"/>
<path d="M48.378 63.3499C48.3635 63.3499 48.3489 63.3495 48.3343 63.3485C47.6012 63.2967 46.9004 63.2169 46.2516 63.1114C45.917 63.0569 45.69 62.7413 45.7444 62.4064C45.7988 62.0716 46.114 61.8453 46.4488 61.8988C47.061 61.9985 47.7244 62.074 48.4205 62.123C48.7586 62.1469 49.0135 62.4405 48.9897 62.7789C48.9669 63.1025 48.6973 63.3499 48.378 63.3499ZM50.3502 63.418C50.0113 63.418 49.7365 63.143 49.7365 62.8038C49.7365 62.4646 50.0113 62.1896 50.3502 62.1896C52.6395 62.1896 54.758 61.9203 56.1621 61.4506C56.4831 61.3431 56.8313 61.5167 56.9388 61.8386C57.0462 62.1602 56.8727 62.5083 56.5511 62.6158C55.0266 63.1256 52.7664 63.418 50.3502 63.418Z" fill="#333333"/>
<path d="M55.4543 54.8331C57.2273 57.6383 58.4101 60.7681 58.9319 64.0356L61.3655 79.2759V79.5416C61.3655 81.1556 56.4333 82.4641 50.3492 82.4641C44.2651 82.4641 39.333 81.1556 39.333 79.5416V79.2759L41.7666 64.0356C42.2884 60.7681 43.4711 57.6383 45.2441 54.8331H55.4543Z" fill="#E4E5E6"/>
<path d="M61.3683 79.2744V79.5444C61.3683 81.1585 56.434 82.4657 50.3522 82.4657C49.7692 82.4657 49.1983 82.4534 48.6338 82.435C53.9055 82.2141 57.9376 81.005 57.9376 79.5444V79.2744L55.5012 64.0353C54.9795 60.7702 53.7951 57.6402 52.0215 54.8293H55.4521C57.2258 57.6402 58.4102 60.7702 58.9319 64.0353L61.3683 79.2744Z" fill="#D4D4D4"/>
<path d="M46.0505 79.8075C46.7925 79.8075 47.394 79.2128 47.394 78.4791C47.394 77.7454 46.7925 77.1507 46.0505 77.1507C45.3085 77.1507 44.707 77.7454 44.707 78.4791C44.707 79.2128 45.3085 79.8075 46.0505 79.8075Z" fill="white"/>
<path d="M55.9947 48.5646V54.3615C55.9947 55.1886 53.4674 55.8592 50.3499 55.8592C47.2324 55.8592 44.7051 55.1886 44.7051 54.3615V48.5646H55.9947Z" fill="white"/>
<path d="M54.6487 79.8075C55.3909 79.8075 55.9927 79.2128 55.9927 78.4791C55.9927 77.7454 55.3909 77.1507 54.6487 77.1507C53.9064 77.1507 53.3047 77.7454 53.3047 78.4791C53.3047 79.2128 53.9064 79.8075 54.6487 79.8075Z" fill="white"/>
<path d="M50.3494 76.6191C51.0914 76.6191 51.6929 76.0243 51.6929 75.2907C51.6929 74.557 51.0914 73.9622 50.3494 73.9622C49.6074 73.9622 49.0059 74.557 49.0059 75.2907C49.0059 76.0243 49.6074 76.6191 50.3494 76.6191Z" fill="white"/>
<path d="M44.4392 75.026C45.1812 75.026 45.7827 74.431 45.7827 73.6971C45.7827 72.9632 45.1812 72.3682 44.4392 72.3682C43.6972 72.3682 43.0957 72.9632 43.0957 73.6971C43.0957 74.431 43.6972 75.026 44.4392 75.026Z" fill="white"/>
<path d="M55.9948 48.5646V54.358C55.9948 55.1866 53.4721 55.8555 50.3541 55.8555C49.7587 55.8555 49.1817 55.8309 48.6416 55.7819C50.9188 55.5916 52.5637 55.027 52.5637 54.358V48.5646H55.9948V48.5646Z" fill="#E4E5E6"/>
<path d="M56.259 75.026C57.0013 75.026 57.603 74.431 57.603 73.6971C57.603 72.9632 57.0013 72.3682 56.259 72.3682C55.5168 72.3682 54.915 72.9632 54.915 73.6971C54.915 74.431 55.5168 75.026 56.259 75.026Z" fill="white"/>
<path d="M50.3499 50.0619C53.4674 50.0619 55.9947 49.3915 55.9947 48.5644C55.9947 47.7374 53.4674 47.067 50.3499 47.067C47.2323 47.067 44.7051 47.7374 44.7051 48.5644C44.7051 49.3915 47.2323 50.0619 50.3499 50.0619Z" fill="white"/>
<path d="M55.9949 48.5649C55.9949 49.3937 53.4721 50.0628 50.3541 50.0628C49.8631 50.0628 49.3904 50.0444 48.9424 50.0137C51.3791 49.848 53.1775 49.2647 53.1775 48.5649C53.1775 47.865 51.3791 47.2818 48.9424 47.116C49.3904 47.0853 49.8631 47.067 50.3541 47.067C53.4721 47.067 55.9949 47.7361 55.9949 48.5649Z" fill="#E4E5E6"/>
</svg>
