<svg width="131" height="114" viewBox="0 0 131 114" fill="none" xmlns="http://www.w3.org/2000/svg">
<path d="M60.7728 25.1163L61.3618 26.0952L56.9032 33.5L47.5433 49.0435L31.3309 40.069L40.6908 24.5256L50.0507 8.98065L50.4688 8.28516L59.7959 23.4918L60.7728 25.1163Z" fill="white" fill-opacity="0.4"/>
<path d="M97.6777 22.494L97.659 22.636L94.9328 53.0605L65.9464 40.0621L71.3433 37.0927L63.3502 23.8099L62.3672 22.1736L57.3971 14.0651L48.7549 0H76.9254L77.8897 1.60049L80.8569 6.5261L92.2808 25.4813L97.5664 22.547L97.6777 22.494Z" fill="white" fill-opacity="0.4"/>
<path d="M102.298 82.0529L101.119 82.0526L96.6604 74.6478L87.301 59.1041L103.513 50.1289L112.872 65.6729L122.233 81.2173L122.652 81.9123L104.254 82.0539L102.298 82.0529Z" fill="white" fill-opacity="0.4"/>
<path d="M86.2117 108.027L114.983 108.026L116.912 108.027L130.999 84.6328L104.168 84.8393L102.198 84.8381L86.2102 84.8379L86.211 78.8672L59.9871 96.4326L86.213 113.999L86.2117 108.027Z" fill="white" fill-opacity="0.4"/>
<path d="M30.7775 89.5958L31.367 88.6174L40.2845 88.6172L59.0035 88.6177L59.004 106.567L40.2848 106.567L21.5645 106.567L20.7271 106.568L29.7986 91.2193L30.7775 89.5958Z" fill="white" fill-opacity="0.4"/>
<path d="M41.6901 77.8104L36.2933 74.8231L28.3002 88.1059L27.3174 89.7417L15.2257 110.226L14.0946 112.129L9.82913 105.052L6.2128 99.0598L0 88.7285L0.964338 87.128L15.3557 63.2296L9.95885 60.2602L36.8311 48.204L38.9453 47.2617L41.6901 77.8104Z" fill="white" fill-opacity="0.4"/>
</svg>
