<svg width="174" height="159" viewBox="0 0 174 159" fill="none" xmlns="http://www.w3.org/2000/svg">
<path d="M81.0291 35.0297L81.8076 36.3949L75.9143 46.7227L63.5425 68.4016L42.1133 55.8847L54.485 34.2057L66.8568 12.5247L67.4094 11.5547L79.7379 32.7639L81.0291 35.0297Z" fill="#E1ADE9"/>
<path d="M129.806 31.3731L129.781 31.5712L126.178 74.0053L87.8641 55.8759L94.9976 51.7344L84.4325 33.2084L83.1331 30.9262L76.5637 19.6171L65.1406 0H102.376L103.651 2.23226L107.573 9.10216L122.673 35.5396L129.659 31.447L129.806 31.3731Z" fill="#E1ADE9"/>
<path d="M135.916 114.443L134.359 114.443L128.465 104.115L116.094 82.4359L137.523 69.918L149.894 91.5976L162.266 113.278L162.82 114.247L138.501 114.445L135.916 114.443Z" fill="#E1ADE9"/>
<path d="M114.652 150.67L152.682 150.669L155.231 150.671L173.851 118.041L138.385 118.33L135.782 118.328L114.65 118.328L114.651 110L79.9883 134.499L114.653 158.999L114.652 150.67Z" fill="#E1ADE9"/>
<path d="M41.3783 124.963L42.1575 123.598L53.9445 123.598L78.687 123.598L78.6877 148.633L53.9448 148.633L29.2007 148.633L28.0938 148.634L40.0844 127.227L41.3783 124.963Z" fill="#E1ADE9"/>
<path d="M55.8046 108.521L48.6711 104.355L38.106 122.881L36.807 125.162L20.8244 153.733L19.3292 156.387L13.6912 146.516L8.91121 138.159L0.699219 123.749L1.97387 121.517L20.9962 88.185L13.8627 84.0435L49.382 67.2283L52.1765 65.9141L55.8046 108.521Z" fill="#E1ADE9"/>
</svg>
