<svg width="24" height="24" viewBox="0 0 24 24" fill="none" xmlns="http://www.w3.org/2000/svg">
<path d="M10.8574 10.543L10.8543 10.5539L8.67605 17.6112H7.32407C7.2302 17.6018 7.13943 17.5924 7.05179 17.5799C6.29284 17.4845 5.78428 17.2936 5.78428 17.0416L5.21784 11.8871L4.76562 10.543H10.8574Z" fill="#E4E5E6"/>
<path d="M10.8402 10.6009L10.4944 11.7197L8.67605 17.6112H7.32407C7.2302 17.6018 7.13943 17.5924 7.05179 17.5799C6.29284 17.4845 5.78428 17.2936 5.78428 17.0416L5.21784 11.8871L5.07698 11.4678L4.86732 10.845L4.76562 10.543H10.69L10.8402 10.6009Z" fill="#E4E5E6"/>
<path d="M11.0927 10.0746L10.8533 10.5503L8.67504 17.6077H7.32306C7.22919 17.5983 7.13842 17.5889 7.05078 17.5764L9.65465 11.2498L9.94568 10.5394L10.2633 9.76953C10.3212 9.78359 10.376 9.79925 10.4292 9.81488L11.0927 10.0746Z" fill="#D4D4D4"/>
<path d="M10.582 9.87776C10.8572 9.97657 10.985 10.2926 10.8535 10.5538C10.6868 10.8844 10.376 11.1187 10.0123 11.1882L9.76128 11.2361C9.72686 11.2423 9.69088 11.247 9.65489 11.2533C9.17918 11.3269 8.63463 11.3707 8.05248 11.3707C7.44536 11.3707 6.6035 11.2768 6.6035 11.2768C6.29207 11.2345 6.00886 11.1782 5.76318 11.1109C5.21863 10.9654 4.85558 10.7651 4.77734 10.5429C4.76638 10.5132 4.76172 10.4818 4.76172 10.4521C4.76172 9.94511 6.2342 9.53516 8.05249 9.53516C8.90378 9.53516 9.68524 9.60481 10.2636 9.77301C10.3666 9.80298 10.4767 9.83998 10.582 9.87776Z" fill="black"/>
<path d="M10.9036 10.3536C10.902 10.4208 10.8864 10.4897 10.8535 10.5538C10.769 10.7181 10.6501 10.8605 10.5062 10.9685C10.3622 11.078 10.1932 11.1531 10.0116 11.1876L9.7613 11.2361C9.72688 11.2424 9.69089 11.2471 9.6549 11.2533C9.17919 11.3269 8.63464 11.3707 8.0525 11.3707C7.97739 11.3707 7.89758 11.3691 7.81777 11.366C8.27942 11.3534 8.71288 11.3128 9.09938 11.2533C9.13537 11.2471 9.17136 11.2424 9.20578 11.2361L9.45617 11.1876C9.63924 11.1531 9.78942 11.0506 9.95063 10.9685C9.95424 10.9667 9.95784 10.9648 9.9614 10.9629C10.3327 10.7642 10.202 10.1986 9.78321 10.1539C9.41898 10.1151 9.02408 10.0938 8.61114 10.0938C6.84916 10.0938 5.40954 10.4803 5.32503 10.9654C4.96824 10.8199 4.76172 10.6414 4.76172 10.4521C4.76172 9.96701 6.10587 9.57114 7.81311 9.53829C7.89135 9.53669 7.97112 9.53516 8.05249 9.53516C8.11667 9.53516 8.18081 9.53516 8.24496 9.53668C8.29661 9.53668 8.34669 9.53829 8.39831 9.53982C9.11344 9.55548 9.76443 9.62902 10.2636 9.77301C10.2683 9.77454 10.273 9.77611 10.2777 9.77767C10.3293 9.7902 10.381 9.80426 10.4295 9.81836L10.5813 9.87784C10.7878 9.95138 10.913 10.1501 10.9036 10.3536Z" fill="#D4D4D4"/>
<path d="M6.04998 13.7364C5.92956 13.7364 5.82706 13.6443 5.8164 13.522L5.72746 12.5012C5.71623 12.3721 5.81178 12.2583 5.94094 12.247C6.07011 12.2357 6.18388 12.3313 6.19514 12.4605L6.28408 13.4813C6.29531 13.6104 6.19977 13.7242 6.0706 13.7355C6.06369 13.7361 6.05682 13.7364 6.04998 13.7364Z" fill="black"/>
<path d="M18.8246 9.55745C18.8246 9.95801 17.6917 10.2835 16.2944 10.2835C14.9001 10.2835 13.7688 9.95962 13.7656 9.55901V9.55745C13.7656 9.52303 13.7735 9.4917 13.7891 9.45885C13.7907 9.45885 13.7907 9.45732 13.7907 9.45732C14.2633 7.47938 14.9549 6.625 14.9549 6.625H17.6401C17.6401 6.625 18.3349 7.48408 18.809 9.47608C18.809 9.47764 18.8105 9.47764 18.8105 9.47921C18.8137 9.49644 18.8184 9.5152 18.8231 9.53396C18.8231 9.53556 18.8231 9.53556 18.8231 9.53709C18.8246 9.54335 18.8246 9.55118 18.8246 9.55745Z" fill="#E4E5E6"/>
<path d="M19.2382 13.509C19.2382 14.6247 19.1568 15.8906 18.9534 17.3193C18.9534 17.7183 17.8439 17.9186 16.4278 17.9186C16.3151 17.9186 16.2071 17.9186 16.1039 17.9171C16.0648 17.9155 16.0272 17.9155 15.9897 17.9139C15.9568 17.9139 15.927 17.9139 15.8958 17.9124C14.622 17.8827 14.0148 17.7481 13.7285 17.6354C13.5767 17.576 13.4766 17.4289 13.4766 17.2661V11.4843C13.4766 11.331 13.485 11.1771 13.5046 11.0251C13.5747 10.4826 13.6642 9.99521 13.7645 9.56099C13.7676 9.96159 14.899 10.2855 16.2932 10.2855C16.9457 10.2855 17.5419 10.2151 17.991 10.0961C18.5027 9.96473 18.8235 9.77226 18.8235 9.55942C18.8235 9.55316 18.8235 9.54533 18.8219 9.53906C18.8532 9.67052 18.883 9.80664 18.9112 9.94749C18.9237 10.0116 18.9362 10.0773 18.9487 10.1447C18.9753 10.287 19.0003 10.4326 19.0238 10.5828C19.0332 10.6438 19.0426 10.7064 19.052 10.7706C19.0598 10.8238 19.0676 10.8786 19.0739 10.9333C19.088 11.0319 19.1005 11.1321 19.113 11.2338C19.1693 11.7251 19.21 12.2587 19.2272 12.8377C19.2304 12.9097 19.2319 12.9832 19.2335 13.0552V13.0584C19.235 13.1319 19.2366 13.2055 19.2366 13.2806C19.2382 13.3557 19.2382 13.4323 19.2382 13.509Z" fill="#89CF6E"/>
<path d="M19.2022 14.8281C19.16 15.5964 19.0802 16.4258 18.9534 17.3193C18.9534 17.7183 17.844 17.9186 16.4278 17.9186C14.7847 17.9186 14.0524 17.7622 13.7285 17.6354C13.5767 17.576 13.4766 17.4289 13.4766 17.2661V15.4447L15.503 15.5949C15.7518 15.6152 16.0163 15.6246 16.2885 15.6246C17.8752 15.6246 19.1835 15.2678 19.2022 14.8281Z" fill="#E4E5E6"/>
<path d="M19.2409 13.507C19.2409 14.6227 19.1595 15.8887 18.9561 17.3174C18.9561 17.7164 17.8466 17.9167 16.4305 17.9167C16.2411 17.9167 16.0643 17.9151 15.8984 17.9104C17.1112 17.8744 18.0078 17.6757 18.0078 17.3174C18.2097 15.8903 18.2926 14.6259 18.2926 13.5118C18.2926 8.60291 16.6918 6.625 16.6918 6.625H17.6416C17.6416 6.625 19.2409 8.60134 19.2409 13.507Z" fill="#D4D4D4"/>
<path d="M19.2382 13.5072C19.2382 13.925 19.2273 14.3647 19.2022 14.8263C19.1929 15.0626 18.811 15.2739 18.2133 15.4209C18.2665 14.7402 18.29 14.1049 18.29 13.5119C18.29 12.1551 18.1679 11.0223 17.9911 10.0943C18.5028 9.96288 18.8236 9.77041 18.8236 9.55758C18.8236 9.55131 18.8236 9.54348 18.822 9.53722C18.8533 9.66867 18.883 9.80479 18.9112 9.94565C18.9237 10.0098 18.9362 10.0755 18.9488 10.1428C18.9754 10.2852 19.0004 10.4307 19.0239 10.581C19.0333 10.642 19.0426 10.7046 19.052 10.7687C19.0599 10.8219 19.0677 10.8767 19.074 10.9315C19.088 11.0301 19.1006 11.1302 19.1131 11.2319C19.1694 11.7233 19.2101 12.2569 19.2273 12.8359C19.2304 12.9078 19.232 12.9814 19.2336 13.0534V13.0565C19.2351 13.13 19.2367 13.2051 19.2367 13.2787C19.2382 13.3538 19.2382 13.4305 19.2382 13.5072ZM14.9922 6.04688V6.68129C14.9922 6.88693 15.5899 7.05364 16.3273 7.05364C17.0647 7.05364 17.6625 6.88693 17.6625 6.68129V6.04688H14.9922Z" fill="#6DBF4D"/>
<path d="M16.3294 5.00222C17.288 5.00222 18.0651 4.79536 18.0651 4.54017C18.0651 4.28499 17.288 4.07812 16.3294 4.07812C15.3708 4.07812 14.5938 4.28499 14.5938 4.54017C14.5938 4.79536 15.3708 5.00222 16.3294 5.00222Z" fill="#89CF6E"/>
<path d="M14.5938 4.60938V5.81913C14.5938 6.08647 15.3708 6.30318 16.3294 6.30318C17.288 6.30318 18.0651 6.08647 18.0651 5.81913V4.60938H14.5938Z" fill="#89CF6E"/>
<path d="M18.0633 4.54365C18.0633 4.79874 17.2856 5.00526 16.3279 5.00526C16.1902 5.00526 16.0557 5.0006 15.9258 4.99273C16.691 4.94425 17.259 4.76114 17.259 4.54365C17.259 4.32615 16.691 4.14304 15.9258 4.09456C16.0557 4.08673 16.1902 4.08203 16.3279 4.08203C17.2856 4.08204 18.0633 4.28857 18.0633 4.54365Z" fill="#6DBF4D"/>
<path d="M18.0633 4.60938V5.81898C18.0633 6.08655 17.2856 6.30405 16.3279 6.30405C16.1902 6.30405 16.0557 6.29935 15.9258 6.28995C16.691 6.2399 17.259 6.04743 17.259 5.81898V4.60938H18.0633ZM17.3614 13.3878C17.3614 13.8363 16.9936 14.1999 16.5401 14.1999C16.0865 14.1999 15.7188 13.8363 15.7188 13.3878C15.7188 12.6188 16.5401 11.9469 16.5401 11.9469C16.5401 11.9469 17.3614 12.632 17.3614 13.3878Z" fill="#6DBF4D"/>
<path d="M17.1167 13.143C17.1167 13.5915 16.7489 13.9551 16.2954 13.9551C15.8418 13.9551 15.474 13.5915 15.474 13.143C15.474 12.374 16.2954 11.7021 16.2954 11.7021C16.2954 11.7021 17.1167 12.3872 17.1167 13.143ZM14.135 12.1136C14.0161 12.0946 13.9294 11.9875 13.9381 11.8651L14.0112 10.843C14.0205 10.7137 14.1328 10.6164 14.2621 10.6256C14.3914 10.6348 14.4887 10.7472 14.4795 10.8765L14.4064 11.8986C14.3971 12.0279 14.2848 12.1252 14.1555 12.116C14.1486 12.1155 14.1417 12.1146 14.135 12.1136Z" fill="black"/>
<path d="M13.7891 9.46484C13.7813 9.4977 13.7735 9.52902 13.7656 9.56345C13.7656 9.52903 13.7735 9.4977 13.7891 9.46484Z" fill="black"/>
<path d="M7.59554 17.9023L7.24219 18.6108C8.5106 19.4363 10.0835 19.9249 11.7872 19.9249C13.408 19.9249 14.9104 19.4826 16.145 18.7288L15.7715 17.9666L7.59554 17.9023Z" fill="#FF8D29"/>
<path d="M12.894 10.5912L11.7802 7.73828L8.65237 15.3418L8.65146 15.3675C8.81528 15.4747 8.92334 15.6584 8.92334 15.8672C8.92334 16.1977 8.65232 16.4657 8.318 16.4657C8.27621 16.4657 8.2354 16.4615 8.196 16.4536L8.19041 16.4649L7.57812 17.9533C8.75084 18.6899 10.2051 19.1259 11.7802 19.1259C13.2787 19.1259 14.6678 18.7313 15.8092 18.0586L14.9027 15.7367L14.8874 15.7379C14.7909 15.7783 14.6847 15.8007 14.5732 15.8007C14.1275 15.8007 13.7661 15.4434 13.7661 15.0026C13.7661 14.6516 13.9953 14.3535 14.3137 14.2467L14.3162 14.2342L13.3358 11.7229L13.3235 11.7333C13.2357 11.7824 13.1343 11.8103 13.0262 11.8103C12.6919 11.8103 12.4209 11.5424 12.4209 11.2118C12.4209 10.927 12.622 10.6887 12.8915 10.6281L12.894 10.5912Z" fill="#FFAD31"/>
<path d="M15.8059 18.0582C15.4491 18.2695 15.0673 18.4526 14.6667 18.6044L11.3086 8.87747L11.778 7.73828L12.8906 10.5909L12.8891 10.6285C12.6199 10.6895 12.4181 10.9274 12.4181 11.2122C12.4181 11.5423 12.6888 11.8099 13.0236 11.8099C13.1316 11.8099 13.2333 11.7818 13.321 11.7332L13.3335 11.7223L14.313 14.2339L14.3115 14.2463C13.9923 14.3543 13.7638 14.6516 13.7638 15.0022C13.7638 15.4435 14.1253 15.8002 14.5697 15.8002C14.6823 15.8002 14.7872 15.7783 14.8842 15.7376L14.8998 15.7361L15.8059 18.0582Z" fill="#FF8D29"/>
<path d="M9.62142 14.6164C9.59166 14.6164 9.5614 14.6107 9.53222 14.5987C9.41234 14.5494 9.35511 14.4122 9.40443 14.2924L9.87296 13.1534C9.92224 13.0335 10.0596 12.9761 10.1793 13.0256C10.2992 13.0749 10.3564 13.2121 10.3071 13.332L9.83857 14.4709C9.80129 14.5616 9.71372 14.6164 9.62142 14.6164Z" fill="#FFE8C4"/>
<path d="M11.256 12.2686C11.4772 12.2686 11.6566 12.0913 11.6566 11.8726C11.6566 11.6539 11.4772 11.4766 11.256 11.4766C11.0348 11.4766 10.8555 11.6539 10.8555 11.8726C10.8555 12.0913 11.0348 12.2686 11.256 12.2686Z" fill="black"/>
<path d="M11.9907 14.1155C12.2488 14.1155 12.458 13.9086 12.458 13.6535C12.458 13.3983 12.2488 13.1914 11.9907 13.1914C11.7327 13.1914 11.5234 13.3983 11.5234 13.6535C11.5234 13.9086 11.7327 14.1155 11.9907 14.1155Z" fill="black"/>
<path d="M10.9211 16.0944C11.2529 16.0944 11.5219 15.8284 11.5219 15.5003C11.5219 15.1722 11.2529 14.9062 10.9211 14.9062C10.5893 14.9062 10.3203 15.1722 10.3203 15.5003C10.3203 15.8284 10.5893 16.0944 10.9211 16.0944Z" fill="black"/>
<path d="M12.9243 17.8108C13.1824 17.8108 13.3916 17.6039 13.3916 17.3488C13.3916 17.0936 13.1824 16.8867 12.9243 16.8867C12.6662 16.8867 12.457 17.0936 12.457 17.3488C12.457 17.6039 12.6662 17.8108 12.9243 17.8108Z" fill="black"/>
</svg>
